  0
SECTION
  2
HEADER
  9
$ACADVER
  1
AC1021
  9
$ACADMAINTVER
 70
    25
  9
$DWGCODEPAGE
  3
ANSI_1252
  9
$INSBASE
 10
0.0
 20
0.0
 30
0.0
  9
$EXTMIN
 10
-13.42646
 20
-11.25146
 30
0.0
  9
$EXTMAX
 10
13.50146
 20
9.06396
 30
0.0
  9
$LIMMIN
 10
0.0
 20
0.0
  9
$LIMMAX
 10
12.0
 20
9.0
  9
$ORTHOMODE
 70
     0
  9
$REGENMODE
 70
     1
  9
$FILLMODE
 70
     1
  9
$QTEXTMODE
 70
     0
  9
$MIRRTEXT
 70
     1
  9
$LTSCALE
 40
1.0
  9
$ATTMODE
 70
     1
  9
$TEXTSIZE
 40
0.2
  9
$TRACEWID
 40
0.05
  9
$TEXTSTYLE
  7
Standard
  9
$CLAYER
  8
0
  9
$CELTYPE
  6
ByLayer
  9
$CECOLOR
 62
   256
  9
$CELTSCALE
 40
1.0
  9
$DISPSILH
 70
     0
  9
$DIMSCALE
 40
1.0
  9
$DIMASZ
 40
0.18
  9
$DIMEXO
 40
0.0625
  9
$DIMDLI
 40
0.38
  9
$DIMRND
 40
0.0
  9
$DIMDLE
 40
0.0
  9
$DIMEXE
 40
0.18
  9
$DIMTP
 40
0.0
  9
$DIMTM
 40
0.0
  9
$DIMTXT
 40
0.18
  9
$DIMCEN
 40
0.09
  9
$DIMTSZ
 40
0.0
  9
$DIMTOL
 70
     0
  9
$DIMLIM
 70
     0
  9
$DIMTIH
 70
     1
  9
$DIMTOH
 70
     1
  9
$DIMSE1
 70
     0
  9
$DIMSE2
 70
     0
  9
$DIMTAD
 70
     0
  9
$DIMZIN
 70
     0
  9
$DIMBLK
  1

  9
$DIMASO
 70
     1
  9
$DIMSHO
 70
     1
  9
$DIMPOST
  1

  9
$DIMAPOST
  1

  9
$DIMALT
 70
     0
  9
$DIMALTD
 70
     2
  9
$DIMALTF
 40
25.4
  9
$DIMLFAC
 40
1.0
  9
$DIMTOFL
 70
     0
  9
$DIMTVP
 40
0.0
  9
$DIMTIX
 70
     0
  9
$DIMSOXD
 70
     0
  9
$DIMSAH
 70
     0
  9
$DIMBLK1
  1

  9
$DIMBLK2
  1

  9
$DIMSTYLE
  2
Standard
  9
$DIMCLRD
 70
     0
  9
$DIMCLRE
 70
     0
  9
$DIMCLRT
 70
     0
  9
$DIMTFAC
 40
1.0
  9
$DIMGAP
 40
0.09
  9
$DIMJUST
 70
     0
  9
$DIMSD1
 70
     0
  9
$DIMSD2
 70
     0
  9
$DIMTOLJ
 70
     1
  9
$DIMTZIN
 70
     0
  9
$DIMALTZ
 70
     0
  9
$DIMALTTZ
 70
     0
  9
$DIMUPT
 70
     0
  9
$DIMDEC
 70
     4
  9
$DIMTDEC
 70
     4
  9
$DIMALTU
 70
     2
  9
$DIMALTTD
 70
     2
  9
$DIMTXSTY
  7
Standard
  9
$DIMAUNIT
 70
     0
  9
$DIMADEC
 70
     0
  9
$DIMALTRND
 40
0.0
  9
$DIMAZIN
 70
     0
  9
$DIMDSEP
 70
    46
  9
$DIMATFIT
 70
     3
  9
$DIMFRAC
 70
     0
  9
$DIMLDRBLK
  1

  9
$DIMLUNIT
 70
     2
  9
$DIMLWD
 70
    -2
  9
$DIMLWE
 70
    -2
  9
$DIMTMOVE
 70
     0
  9
$DIMFXL
 40
1.0
  9
$DIMFXLON
 70
     0
  9
$DIMJOGANG
 40
0.7853981633974483
  9
$DIMTFILL
 70
     0
  9
$DIMTFILLCLR
 70
     0
  9
$DIMARCSYM
 70
     0
  9
$DIMLTYPE
  6

  9
$DIMLTEX1
  6

  9
$DIMLTEX2
  6

  9
$LUNITS
 70
     2
  9
$LUPREC
 70
     4
  9
$SKETCHINC
 40
0.1
  9
$FILLETRAD
 40
0.5
  9
$AUNITS
 70
     0
  9
$AUPREC
 70
     0
  9
$MENU
  1
.
  9
$ELEVATION
 40
0.0
  9
$PELEVATION
 40
0.0
  9
$THICKNESS
 40
0.0
  9
$LIMCHECK
 70
     0
  9
$CHAMFERA
 40
0.5
  9
$CHAMFERB
 40
0.5
  9
$CHAMFERC
 40
1.0
  9
$CHAMFERD
 40
0.0
  9
$SKPOLY
 70
     0
  9
$TDCREATE
 40
2460341.8290236
  9
$TDUCREATE
 40
2460341.8290236
  9
$TDUPDATE
 40
2460341.829023762
  9
$TDUUPDATE
 40
2460341.829023762
  9
$TDINDWG
 40
0.0000000116
  9
$TDUSRTIMER
 40
0.0000000116
  9
$USRTIMER
 70
     1
  9
$ANGBASE
 50
0.0
  9
$ANGDIR
 70
     0
  9
$PDMODE
 70
     0
  9
$PDSIZE
 40
0.0
  9
$PLINEWID
 40
0.0
  9
$SPLFRAME
 70
     0
  9
$SPLINETYPE
 70
     6
  9
$SPLINESEGS
 70
     8
  9
$HANDSEED
  5
EF
  9
$SURFTAB1
 70
     6
  9
$SURFTAB2
 70
     6
  9
$SURFTYPE
 70
     6
  9
$SURFU
 70
     6
  9
$SURFV
 70
     6
  9
$UCSBASE
  2

  9
$UCSNAME
  2

  9
$UCSORG
 10
0.0
 20
0.0
 30
0.0
  9
$UCSXDIR
 10
1.0
 20
0.0
 30
0.0
  9
$UCSYDIR
 10
0.0
 20
1.0
 30
0.0
  9
$UCSORTHOREF
  2

  9
$UCSORTHOVIEW
 70
     0
  9
$UCSORGTOP
 10
0.0
 20
0.0
 30
0.0
  9
$UCSORGBOTTOM
 10
0.0
 20
0.0
 30
0.0
  9
$UCSORGLEFT
 10
0.0
 20
0.0
 30
0.0
  9
$UCSORGRIGHT
 10
0.0
 20
0.0
 30
0.0
  9
$UCSORGFRONT
 10
0.0
 20
0.0
 30
0.0
  9
$UCSORGBACK
 10
0.0
 20
0.0
 30
0.0
  9
$PUCSBASE
  2

  9
$PUCSNAME
  2

  9
$PUCSORG
 10
0.0
 20
0.0
 30
0.0
  9
$PUCSXDIR
 10
1.0
 20
0.0
 30
0.0
  9
$PUCSYDIR
 10
0.0
 20
1.0
 30
0.0
  9
$PUCSORTHOREF
  2

  9
$PUCSORTHOVIEW
 70
     0
  9
$PUCSORGTOP
 10
0.0
 20
0.0
 30
0.0
  9
$PUCSORGBOTTOM
 10
0.0
 20
0.0
 30
0.0
  9
$PUCSORGLEFT
 10
0.0
 20
0.0
 30
0.0
  9
$PUCSORGRIGHT
 10
0.0
 20
0.0
 30
0.0
  9
$PUCSORGFRONT
 10
0.0
 20
0.0
 30
0.0
  9
$PUCSORGBACK
 10
0.0
 20
0.0
 30
0.0
  9
$USERI1
 70
     0
  9
$USERI2
 70
     0
  9
$USERI3
 70
     0
  9
$USERI4
 70
     0
  9
$USERI5
 70
     0
  9
$USERR1
 40
0.0
  9
$USERR2
 40
0.0
  9
$USERR3
 40
0.0
  9
$USERR4
 40
0.0
  9
$USERR5
 40
0.0
  9
$WORLDVIEW
 70
     1
  9
$SHADEDGE
 70
     3
  9
$SHADEDIF
 70
    70
  9
$TILEMODE
 70
     1
  9
$MAXACTVP
 70
    64
  9
$PINSBASE
 10
0.0
 20
0.0
 30
0.0
  9
$PLIMCHECK
 70
     0
  9
$PEXTMIN
 10
1.000000000000000E+20
 20
1.000000000000000E+20
 30
1.000000000000000E+20
  9
$PEXTMAX
 10
-1.000000000000000E+20
 20
-1.000000000000000E+20
 30
-1.000000000000000E+20
  9
$PLIMMIN
 10
0.0
 20
0.0
  9
$PLIMMAX
 10
12.0
 20
9.0
  9
$UNITMODE
 70
     0
  9
$VISRETAIN
 70
     1
  9
$PLINEGEN
 70
     0
  9
$PSLTSCALE
 70
     1
  9
$TREEDEPTH
 70
  3020
  9
$CMLSTYLE
  2
Standard
  9
$CMLJUST
 70
     0
  9
$CMLSCALE
 40
1.0
  9
$PROXYGRAPHICS
 70
     1
  9
$MEASUREMENT
 70
     0
  9
$CELWEIGHT
370
    -1
  9
$ENDCAPS
280
     0
  9
$JOINSTYLE
280
     0
  9
$LWDISPLAY
290
     0
  9
$INSUNITS
 70
     5
  9
$HYPERLINKBASE
  1

  9
$STYLESHEET
  1

  9
$XEDIT
290
     1
  9
$CEPSNTYPE
380
     0
  9
$PSTYLEMODE
290
     1
  9
$FINGERPRINTGUID
  2
{FF642954-56E2-4F5A-822B-C9F51057F6EA}
  9
$VERSIONGUID
  2
{FAEB1C32-E019-11D5-929B-00C0DF256EC4}
  9
$EXTNAMES
290
     1
  9
$PSVPSCALE
 40
0.0
  9
$OLESTARTUP
290
     0
  9
$SORTENTS
280
   127
  9
$INDEXCTL
280
     0
  9
$HIDETEXT
280
     1
  9
$XCLIPFRAME
290
     0
  9
$HALOGAP
280
     0
  9
$OBSCOLOR
 70
   257
  9
$OBSLTYPE
280
     0
  9
$INTERSECTIONDISPLAY
280
     0
  9
$INTERSECTIONCOLOR
 70
   257
  9
$DIMASSOC
280
     2
  9
$PROJECTNAME
  1

  9
$CAMERADISPLAY
290
     0
  9
$LENSLENGTH
 40
50.0
  9
$CAMERAHEIGHT
 40
0.0
  9
$STEPSPERSEC
 40
2.0
  9
$STEPSIZE
 40
6.0
  9
$3DDWFPREC
 40
2.0
  9
$PSOLWIDTH
 40
0.25
  9
$PSOLHEIGHT
 40
4.0
  9
$LOFTANG1
 40
1.570796326794897
  9
$LOFTANG2
 40
1.570796326794897
  9
$LOFTMAG1
 40
0.0
  9
$LOFTMAG2
 40
0.0
  9
$LOFTPARAM
 70
     7
  9
$LOFTNORMALS
280
     1
  9
$LATITUDE
 40
37.795
  9
$LONGITUDE
 40
-122.394
  9
$NORTHDIRECTION
 40
0.0
  9
$TIMEZONE
 70
 -8000
  9
$LIGHTGLYPHDISPLAY
280
     1
  9
$TILEMODELIGHTSYNCH
280
     1
  9
$SOLIDHIST
280
     1
  9
$SHOWHIST
280
     1
  9
$DWFFRAME
280
     2
  9
$DGNFRAME
280
     2
  9
$REALWORLDSCALE
290
     1
  9
$INTERFERECOLOR
 62
   256
  9
$CSHADOW
280
     0
  9
$SHADOWPLANELOCATION
 40
0.0
  0
ENDSEC
  0
SECTION
  2
CLASSES
  0
CLASS
  1
ACDBDICTIONARYWDFLT
  2
AcDbDictionaryWithDefault
  3
ObjectDBX Classes
 90
        0
 91
        4
280
     0
281
     0
  0
CLASS
  1
VISUALSTYLE
  2
AcDbVisualStyle
  3
ObjectDBX Classes
 90
     4095
 91
        4
280
     0
281
     0
  0
CLASS
  1
MATERIAL
  2
AcDbMaterial
  3
ObjectDBX Classes
 90
     1153
 91
        4
280
     0
281
     0
  0
ENDSEC
  0
SECTION
  2
TABLES
  0
TABLE
  2
VPORT
  5
8
330
0
100
AcDbSymbolTable
 70
     1
  0
VPORT
  5
29
330
8
100
AcDbSymbolTableRecord
100
AcDbViewportTableRecord
  2
*Active
 70
     0
 10
0.0
 20
0.0
 11
1.0
 21
1.0
 12
10.42990654205607
 22
4.5
 13
0.0
 23
0.0
 14
0.5
 24
0.5
 15
0.5
 25
0.5
 16
0.0
 26
0.0
 36
1.0
 17
0.0
 27
0.0
 37
0.0
 40
9.0
 41
1.972972972850329
 42
50.0
 43
0.0
 44
0.0
 50
0.0
 51
0.0
 71
     0
 72
   100
 73
     1
 74
     3
 75
     0
 76
     0
 77
     0
 78
     0
281
     0
 65
     1
110
0.0
120
0.0
130
0.0
111
1.0
121
0.0
131
0.0
112
0.0
122
1.0
132
0.0
 79
     0
146
0.0
 60
     3
 61
     5
292
     1
282
     1
141
0.0
142
0.0
 63
   250
  0
ENDTAB
  0
TABLE
  2
LTYPE
  5
5
330
0
100
AcDbSymbolTable
 70
     1
  0
LTYPE
  5
14
330
5
100
AcDbSymbolTableRecord
100
AcDbLinetypeTableRecord
  2
ByBlock
 70
     0
  3

 72
    65
 73
     0
 40
0.0
  0
LTYPE
  5
15
330
5
100
AcDbSymbolTableRecord
100
AcDbLinetypeTableRecord
  2
ByLayer
 70
     0
  3

 72
    65
 73
     0
 40
0.0
  0
LTYPE
  5
16
330
5
100
AcDbSymbolTableRecord
100
AcDbLinetypeTableRecord
  2
Continuous
 70
     0
  3
Solid line
 72
    65
 73
     0
 40
0.0
  0
ENDTAB
  0
TABLE
  2
LAYER
  5
2
330
0
100
AcDbSymbolTable
 70
     2
  0
LAYER
  5
10
330
2
100
AcDbSymbolTableRecord
100
AcDbLayerTableRecord
  2
0
 70
     0
 62
     7
  6
Continuous
370
    -3
390
F
347
3E
  0
LAYER
  5
40
330
2
100
AcDbSymbolTableRecord
100
AcDbLayerTableRecord
  2
Layer 1
 70
     0
 62
     7
  6
Continuous
370
    -3
390
F
347
3E
  0
ENDTAB
  0
TABLE
  2
STYLE
  5
3
330
0
100
AcDbSymbolTable
 70
     1
  0
STYLE
  5
11
330
3
100
AcDbSymbolTableRecord
100
AcDbTextStyleTableRecord
  2
Standard
 70
     0
 40
0.0
 41
1.0
 50
0.0
 71
     0
 42
0.2
  3
txt
  4

  0
ENDTAB
  0
TABLE
  2
VIEW
  5
6
330
0
100
AcDbSymbolTable
 70
     0
  0
ENDTAB
  0
TABLE
  2
UCS
  5
7
330
0
100
AcDbSymbolTable
 70
     0
  0
ENDTAB
  0
TABLE
  2
APPID
  5
9
330
0
100
AcDbSymbolTable
 70
     2
  0
APPID
  5
12
330
9
100
AcDbSymbolTableRecord
100
AcDbRegAppTableRecord
  2
ACAD
 70
     0
  0
APPID
  5
3F
330
9
100
AcDbSymbolTableRecord
100
AcDbRegAppTableRecord
  2
ODA
 70
     0
  0
ENDTAB
  0
TABLE
  2
DIMSTYLE
  5
A
330
0
100
AcDbSymbolTable
 70
     1
100
AcDbDimStyleTable
  0
DIMSTYLE
105
27
330
A
100
AcDbSymbolTableRecord
100
AcDbDimStyleTableRecord
  2
Standard
 70
     0
178
     0
340
11
  0
ENDTAB
  0
TABLE
  2
BLOCK_RECORD
  5
1
330
0
100
AcDbSymbolTable
 70
     1
  0
BLOCK_RECORD
  5
1F
330
1
100
AcDbSymbolTableRecord
100
AcDbBlockTableRecord
  2
*Model_Space
340
22
 70
     0
280
     1
281
     0
  0
BLOCK_RECORD
  5
1B
330
1
100
AcDbSymbolTableRecord
100
AcDbBlockTableRecord
  2
*Paper_Space
340
1E
 70
     0
280
     1
281
     0
  0
BLOCK_RECORD
  5
23
330
1
100
AcDbSymbolTableRecord
100
AcDbBlockTableRecord
  2
*Paper_Space0
340
26
 70
     0
280
     1
281
     0
  0
ENDTAB
  0
ENDSEC
  0
SECTION
  2
BLOCKS
  0
BLOCK
  5
20
330
1F
100
AcDbEntity
  8
0
100
AcDbBlockBegin
  2
*Model_Space
 70
     0
 10
0.0
 20
0.0
 30
0.0
  3
*Model_Space
  1

  0
ENDBLK
  5
21
330
1F
100
AcDbEntity
  8
0
100
AcDbBlockEnd
  0
BLOCK
  5
1C
330
1B
100
AcDbEntity
 67
     1
  8
0
100
AcDbBlockBegin
  2
*Paper_Space
 70
     0
 10
0.0
 20
0.0
 30
0.0
  3
*Paper_Space
  1

  0
ENDBLK
  5
1D
330
1B
100
AcDbEntity
 67
     1
  8
0
100
AcDbBlockEnd
  0
BLOCK
  5
24
330
23
100
AcDbEntity
  8
0
100
AcDbBlockBegin
  2
*Paper_Space0
 70
     0
 10
0.0
 20
0.0
 30
0.0
  3
*Paper_Space0
  1

  0
ENDBLK
  5
25
330
23
100
AcDbEntity
  8
0
100
AcDbBlockEnd
  0
ENDSEC
  0
SECTION
  2
ENTITIES
  0
ELLIPSE
  5
41
330
1F
100
AcDbEntity
  8
Layer 1
370
    53
100
AcDbEllipse
 10
0.0
 20
0.0
 30
0.0
 11
0.0
 21
0.3
 31
0.0
210
0.0
220
0.0
230
1.0
 40
1.0
 41
0.0
 42
6.283185307179586
  0
ELLIPSE
  5
42
330
1F
100
AcDbEntity
  8
Layer 1
370
    53
100
AcDbEllipse
 10
12.0
 20
2.9
 30
0.0
 11
0.0
 21
0.3
 31
0.0
210
0.0
220
0.0
230
1.0
 40
1.0
 41
0.0
 42
6.283185307179586
  0
ELLIPSE
  5
43
330
1F
100
AcDbEntity
  8
Layer 1
370
    53
100
AcDbEllipse
 10
6.00001
 20
-1.60001
 30
0.0
 11
0.0
 21
0.30001
 31
0.0
210
0.0
220
0.0
230
1.0
 40
1.0
 41
0.0
 42
6.283185307179586
  0
ELLIPSE
  5
44
330
1F
100
AcDbEntity
  8
Layer 1
370
    53
100
AcDbEllipse
 10
-5.99999
 20
-1.60001
 30
0.0
 11
0.0
 21
0.30001
 31
0.0
210
0.0
220
0.0
230
1.0
 40
1.0
 41
0.0
 42
6.283185307179586
  0
SPLINE
  5
45
330
1F
100
AcDbEntity
  8
Layer 1
370
    53
100
AcDbSpline
210
0.0
220
0.0
230
1.0
 70
    11
 71
     3
 72
   564
 73
   560
 74
     0
 42
0.0000000001
 43
0.0000000001
 12
1.0
 22
0.0
 32
0.0
 13
1.0
 23
0.0
 33
0.0
 40
0.0
 40
0.0
 40
0.0
 40
0.0
 40
0.0070921985815603
 40
0.0070921985815603
 40
0.0070921985815603
 40
0.0070921985815603
 40
0.0141843971631206
 40
0.0141843971631206
 40
0.0141843971631206
 40
0.0141843971631206
 40
0.0212765957446809
 40
0.0212765957446809
 40
0.0212765957446809
 40
0.0212765957446809
 40
0.0283687943262411
 40
0.0283687943262411
 40
0.0283687943262411
 40
0.0283687943262411
 40
0.0354609929078014
 40
0.0354609929078014
 40
0.0354609929078014
 40
0.0354609929078014
 40
0.0425531914893617
 40
0.0425531914893617
 40
0.0425531914893617
 40
0.0425531914893617
 40
0.049645390070922
 40
0.049645390070922
 40
0.049645390070922
 40
0.049645390070922
 40
0.0567375886524823
 40
0.0567375886524823
 40
0.0567375886524823
 40
0.0567375886524823
 40
0.0638297872340425
 40
0.0638297872340425
 40
0.0638297872340425
 40
0.0638297872340425
 40
0.0709219858156028
 40
0.0709219858156028
 40
0.0709219858156028
 40
0.0709219858156028
 40
0.0780141843971631
 40
0.0780141843971631
 40
0.0780141843971631
 40
0.0780141843971631
 40
0.0851063829787234
 40
0.0851063829787234
 40
0.0851063829787234
 40
0.0851063829787234
 40
0.0921985815602837
 40
0.0921985815602837
 40
0.0921985815602837
 40
0.0921985815602837
 40
0.099290780141844
 40
0.099290780141844
 40
0.099290780141844
 40
0.099290780141844
 40
0.1063829787234043
 40
0.1063829787234043
 40
0.1063829787234043
 40
0.1063829787234043
 40
0.1134751773049645
 40
0.1134751773049645
 40
0.1134751773049645
 40
0.1134751773049645
 40
0.1205673758865248
 40
0.1205673758865248
 40
0.1205673758865248
 40
0.1205673758865248
 40
0.1276595744680851
 40
0.1276595744680851
 40
0.1276595744680851
 40
0.1276595744680851
 40
0.1347517730496454
 40
0.1347517730496454
 40
0.1347517730496454
 40
0.1347517730496454
 40
0.1418439716312057
 40
0.1418439716312057
 40
0.1418439716312057
 40
0.1418439716312057
 40
0.148936170212766
 40
0.148936170212766
 40
0.148936170212766
 40
0.148936170212766
 40
0.1560283687943262
 40
0.1560283687943262
 40
0.1560283687943262
 40
0.1560283687943262
 40
0.1631205673758865
 40
0.1631205673758865
 40
0.1631205673758865
 40
0.1631205673758865
 40
0.1702127659574468
 40
0.1702127659574468
 40
0.1702127659574468
 40
0.1702127659574468
 40
0.1773049645390071
 40
0.1773049645390071
 40
0.1773049645390071
 40
0.1773049645390071
 40
0.1843971631205674
 40
0.1843971631205674
 40
0.1843971631205674
 40
0.1843971631205674
 40
0.1914893617021277
 40
0.1914893617021277
 40
0.1914893617021277
 40
0.1914893617021277
 40
0.198581560283688
 40
0.198581560283688
 40
0.198581560283688
 40
0.198581560283688
 40
0.2056737588652482
 40
0.2056737588652482
 40
0.2056737588652482
 40
0.2056737588652482
 40
0.2127659574468085
 40
0.2127659574468085
 40
0.2127659574468085
 40
0.2127659574468085
 40
0.2198581560283688
 40
0.2198581560283688
 40
0.2198581560283688
 40
0.2198581560283688
 40
0.2269503546099291
 40
0.2269503546099291
 40
0.2269503546099291
 40
0.2269503546099291
 40
0.2340425531914894
 40
0.2340425531914894
 40
0.2340425531914894
 40
0.2340425531914894
 40
0.2411347517730496
 40
0.2411347517730496
 40
0.2411347517730496
 40
0.2411347517730496
 40
0.2482269503546099
 40
0.2482269503546099
 40
0.2482269503546099
 40
0.2482269503546099
 40
0.2553191489361702
 40
0.2553191489361702
 40
0.2553191489361702
 40
0.2553191489361702
 40
0.2624113475177305
 40
0.2624113475177305
 40
0.2624113475177305
 40
0.2624113475177305
 40
0.2695035460992908
 40
0.2695035460992908
 40
0.2695035460992908
 40
0.2695035460992908
 40
0.2765957446808511
 40
0.2765957446808511
 40
0.2765957446808511
 40
0.2765957446808511
 40
0.2836879432624114
 40
0.2836879432624114
 40
0.2836879432624114
 40
0.2836879432624114
 40
0.2907801418439716
 40
0.2907801418439716
 40
0.2907801418439716
 40
0.2907801418439716
 40
0.2978723404255319
 40
0.2978723404255319
 40
0.2978723404255319
 40
0.2978723404255319
 40
0.3049645390070922
 40
0.3049645390070922
 40
0.3049645390070922
 40
0.3049645390070922
 40
0.3120567375886525
 40
0.3120567375886525
 40
0.3120567375886525
 40
0.3120567375886525
 40
0.3191489361702128
 40
0.3191489361702128
 40
0.3191489361702128
 40
0.3191489361702128
 40
0.3262411347517731
 40
0.3262411347517731
 40
0.3262411347517731
 40
0.3262411347517731
 40
0.3333333333333333
 40
0.3333333333333333
 40
0.3333333333333333
 40
0.3333333333333333
 40
0.3404255319148936
 40
0.3404255319148936
 40
0.3404255319148936
 40
0.3404255319148936
 40
0.3475177304964539
 40
0.3475177304964539
 40
0.3475177304964539
 40
0.3475177304964539
 40
0.3546099290780142
 40
0.3546099290780142
 40
0.3546099290780142
 40
0.3546099290780142
 40
0.3617021276595745
 40
0.3617021276595745
 40
0.3617021276595745
 40
0.3617021276595745
 40
0.3687943262411347
 40
0.3687943262411347
 40
0.3687943262411347
 40
0.3687943262411347
 40
0.375886524822695
 40
0.375886524822695
 40
0.375886524822695
 40
0.375886524822695
 40
0.3829787234042553
 40
0.3829787234042553
 40
0.3829787234042553
 40
0.3829787234042553
 40
0.3900709219858156
 40
0.3900709219858156
 40
0.3900709219858156
 40
0.3900709219858156
 40
0.3971631205673759
 40
0.3971631205673759
 40
0.3971631205673759
 40
0.3971631205673759
 40
0.4042553191489361
 40
0.4042553191489361
 40
0.4042553191489361
 40
0.4042553191489361
 40
0.4113475177304964
 40
0.4113475177304964
 40
0.4113475177304964
 40
0.4113475177304964
 40
0.4184397163120567
 40
0.4184397163120567
 40
0.4184397163120567
 40
0.4184397163120567
 40
0.425531914893617
 40
0.425531914893617
 40
0.425531914893617
 40
0.425531914893617
 40
0.4326241134751773
 40
0.4326241134751773
 40
0.4326241134751773
 40
0.4326241134751773
 40
0.4397163120567376
 40
0.4397163120567376
 40
0.4397163120567376
 40
0.4397163120567376
 40
0.4468085106382979
 40
0.4468085106382979
 40
0.4468085106382979
 40
0.4468085106382979
 40
0.4539007092198581
 40
0.4539007092198581
 40
0.4539007092198581
 40
0.4539007092198581
 40
0.4609929078014184
 40
0.4609929078014184
 40
0.4609929078014184
 40
0.4609929078014184
 40
0.4680851063829787
 40
0.4680851063829787
 40
0.4680851063829787
 40
0.4680851063829787
 40
0.475177304964539
 40
0.475177304964539
 40
0.475177304964539
 40
0.475177304964539
 40
0.4822695035460993
 40
0.4822695035460993
 40
0.4822695035460993
 40
0.4822695035460993
 40
0.4893617021276596
 40
0.4893617021276596
 40
0.4893617021276596
 40
0.4893617021276596
 40
0.4964539007092199
 40
0.4964539007092199
 40
0.4964539007092199
 40
0.4964539007092199
 40
0.5035460992907801
 40
0.5035460992907801
 40
0.5035460992907801
 40
0.5035460992907801
 40
0.5106382978723404
 40
0.5106382978723404
 40
0.5106382978723404
 40
0.5106382978723404
 40
0.5177304964539007
 40
0.5177304964539007
 40
0.5177304964539007
 40
0.5177304964539007
 40
0.524822695035461
 40
0.524822695035461
 40
0.524822695035461
 40
0.524822695035461
 40
0.5319148936170213
 40
0.5319148936170213
 40
0.5319148936170213
 40
0.5319148936170213
 40
0.5390070921985816
 40
0.5390070921985816
 40
0.5390070921985816
 40
0.5390070921985816
 40
0.5460992907801419
 40
0.5460992907801419
 40
0.5460992907801419
 40
0.5460992907801419
 40
0.5531914893617021
 40
0.5531914893617021
 40
0.5531914893617021
 40
0.5531914893617021
 40
0.5602836879432624
 40
0.5602836879432624
 40
0.5602836879432624
 40
0.5602836879432624
 40
0.5673758865248227
 40
0.5673758865248227
 40
0.5673758865248227
 40
0.5673758865248227
 40
0.574468085106383
 40
0.574468085106383
 40
0.574468085106383
 40
0.574468085106383
 40
0.5815602836879432
 40
0.5815602836879432
 40
0.5815602836879432
 40
0.5815602836879432
 40
0.5886524822695035
 40
0.5886524822695035
 40
0.5886524822695035
 40
0.5886524822695035
 40
0.5957446808510638
 40
0.5957446808510638
 40
0.5957446808510638
 40
0.5957446808510638
 40
0.6028368794326241
 40
0.6028368794326241
 40
0.6028368794326241
 40
0.6028368794326241
 40
0.6099290780141844
 40
0.6099290780141844
 40
0.6099290780141844
 40
0.6099290780141844
 40
0.6170212765957447
 40
0.6170212765957447
 40
0.6170212765957447
 40
0.6170212765957447
 40
0.624113475177305
 40
0.624113475177305
 40
0.624113475177305
 40
0.624113475177305
 40
0.6312056737588653
 40
0.6312056737588653
 40
0.6312056737588653
 40
0.6312056737588653
 40
0.6382978723404256
 40
0.6382978723404256
 40
0.6382978723404256
 40
0.6382978723404256
 40
0.6453900709219859
 40
0.6453900709219859
 40
0.6453900709219859
 40
0.6453900709219859
 40
0.6524822695035462
 40
0.6524822695035462
 40
0.6524822695035462
 40
0.6524822695035462
 40
0.6595744680851063
 40
0.6595744680851063
 40
0.6595744680851063
 40
0.6595744680851063
 40
0.6666666666666666
 40
0.6666666666666666
 40
0.6666666666666666
 40
0.6666666666666666
 40
0.6737588652482269
 40
0.6737588652482269
 40
0.6737588652482269
 40
0.6737588652482269
 40
0.6808510638297872
 40
0.6808510638297872
 40
0.6808510638297872
 40
0.6808510638297872
 40
0.6879432624113475
 40
0.6879432624113475
 40
0.6879432624113475
 40
0.6879432624113475
 40
0.6950354609929078
 40
0.6950354609929078
 40
0.6950354609929078
 40
0.6950354609929078
 40
0.7021276595744681
 40
0.7021276595744681
 40
0.7021276595744681
 40
0.7021276595744681
 40
0.7092198581560284
 40
0.7092198581560284
 40
0.7092198581560284
 40
0.7092198581560284
 40
0.7163120567375887
 40
0.7163120567375887
 40
0.7163120567375887
 40
0.7163120567375887
 40
0.723404255319149
 40
0.723404255319149
 40
0.723404255319149
 40
0.723404255319149
 40
0.7304964539007093
 40
0.7304964539007093
 40
0.7304964539007093
 40
0.7304964539007093
 40
0.7375886524822695
 40
0.7375886524822695
 40
0.7375886524822695
 40
0.7375886524822695
 40
0.7446808510638298
 40
0.7446808510638298
 40
0.7446808510638298
 40
0.7446808510638298
 40
0.75177304964539
 40
0.75177304964539
 40
0.75177304964539
 40
0.75177304964539
 40
0.7588652482269503
 40
0.7588652482269503
 40
0.7588652482269503
 40
0.7588652482269503
 40
0.7659574468085106
 40
0.7659574468085106
 40
0.7659574468085106
 40
0.7659574468085106
 40
0.7730496453900709
 40
0.7730496453900709
 40
0.7730496453900709
 40
0.7730496453900709
 40
0.7801418439716312
 40
0.7801418439716312
 40
0.7801418439716312
 40
0.7801418439716312
 40
0.7872340425531915
 40
0.7872340425531915
 40
0.7872340425531915
 40
0.7872340425531915
 40
0.7943262411347518
 40
0.7943262411347518
 40
0.7943262411347518
 40
0.7943262411347518
 40
0.8014184397163121
 40
0.8014184397163121
 40
0.8014184397163121
 40
0.8014184397163121
 40
0.8085106382978723
 40
0.8085106382978723
 40
0.8085106382978723
 40
0.8085106382978723
 40
0.8156028368794326
 40
0.8156028368794326
 40
0.8156028368794326
 40
0.8156028368794326
 40
0.8226950354609929
 40
0.8226950354609929
 40
0.8226950354609929
 40
0.8226950354609929
 40
0.8297872340425532
 40
0.8297872340425532
 40
0.8297872340425532
 40
0.8297872340425532
 40
0.8368794326241135
 40
0.8368794326241135
 40
0.8368794326241135
 40
0.8368794326241135
 40
0.8439716312056738
 40
0.8439716312056738
 40
0.8439716312056738
 40
0.8439716312056738
 40
0.851063829787234
 40
0.851063829787234
 40
0.851063829787234
 40
0.851063829787234
 40
0.8581560283687943
 40
0.8581560283687943
 40
0.8581560283687943
 40
0.8581560283687943
 40
0.8652482269503546
 40
0.8652482269503546
 40
0.8652482269503546
 40
0.8652482269503546
 40
0.8723404255319149
 40
0.8723404255319149
 40
0.8723404255319149
 40
0.8723404255319149
 40
0.8794326241134752
 40
0.8794326241134752
 40
0.8794326241134752
 40
0.8794326241134752
 40
0.8865248226950354
 40
0.8865248226950354
 40
0.8865248226950354
 40
0.8865248226950354
 40
0.8936170212765957
 40
0.8936170212765957
 40
0.8936170212765957
 40
0.8936170212765957
 40
0.900709219858156
 40
0.900709219858156
 40
0.900709219858156
 40
0.900709219858156
 40
0.9078014184397163
 40
0.9078014184397163
 40
0.9078014184397163
 40
0.9078014184397163
 40
0.9148936170212766
 40
0.9148936170212766
 40
0.9148936170212766
 40
0.9148936170212766
 40
0.9219858156028369
 40
0.9219858156028369
 40
0.9219858156028369
 40
0.9219858156028369
 40
0.9290780141843972
 40
0.9290780141843972
 40
0.9290780141843972
 40
0.9290780141843972
 40
0.9361702127659575
 40
0.9361702127659575
 40
0.9361702127659575
 40
0.9361702127659575
 40
0.9432624113475178
 40
0.9432624113475178
 40
0.9432624113475178
 40
0.9432624113475178
 40
0.950354609929078
 40
0.950354609929078
 40
0.950354609929078
 40
0.950354609929078
 40
0.9574468085106383
 40
0.9574468085106383
 40
0.9574468085106383
 40
0.9574468085106383
 40
0.9645390070921985
 40
0.9645390070921985
 40
0.9645390070921985
 40
0.9645390070921985
 40
0.9716312056737588
 40
0.9716312056737588
 40
0.9716312056737588
 40
0.9716312056737588
 40
0.9787234042553191
 40
0.9787234042553191
 40
0.9787234042553191
 40
0.9787234042553191
 40
0.9858156028368794
 40
0.9858156028368794
 40
0.9858156028368794
 40
0.9858156028368794
 40
1.0
 40
1.0
 40
1.0
 40
1.0
 10
12.7
 20
1.44896
 30
0.0
 10
11.01061
 20
-0.14667
 30
0.0
 10
9.02094
 20
-1.42755
 30
0.0
 10
6.82455
 20
-2.3
 30
0.0
 10
6.82455
 20
-2.3
 30
0.0
 10
6.82455
 20
-2.3
 30
0.0
 10
6.81233
 20
-2.3
 30
0.0
 10
6.81233
 20
-2.3
 30
0.0
 10
6.81233
 20
-2.3
 30
0.0
 10
4.65126
 20
-3.1559
 30
0.0
 10
2.34049
 20
-3.6
 30
0.0
 10
0.0
 20
-3.6
 30
0.0
 10
0.0
 20
-3.6
 30
0.0
 10
-2.34049
 20
-3.6
 30
0.0
 10
-4.65126
 20
-3.1559
 30
0.0
 10
-6.81229
 20
-2.3
 30
0.0
 10
-6.81229
 20
-2.3
 30
0.0
 10
-6.81229
 20
-2.3
 30
0.0
 10
-6.82455
 20
-2.3
 30
0.0
 10
-6.82455
 20
-2.3
 30
0.0
 10
-6.82455
 20
-2.3
 30
0.0
 10
-9.02094
 20
-1.42755
 30
0.0
 10
-11.01061
 20
-0.14667
 30
0.0
 10
-12.7
 20
1.44896
 30
0.0
 10
-12.7
 20
1.44896
 30
0.0
 10
-12.7
 20
1.44896
 30
0.0
 10
-12.7
 20
3.1
 30
0.0
 10
-12.7
 20
3.1
 30
0.0
 10
-12.7
 20
3.1
 30
0.0
 10
-12.7
 20
3.37614
 30
0.0
 10
-12.47614
 20
3.6
 30
0.0
 10
-12.2
 20
3.6
 30
0.0
 10
-12.2
 20
3.6
 30
0.0
 10
-12.2
 20
3.6
 30
0.0
 10
-10.60809
 20
3.6
 30
0.0
 10
-10.60809
 20
3.6
 30
0.0
 10
-10.60809
 20
3.6
 30
0.0
 10
-9.30917
 20
2.38013
 30
0.0
 10
-7.80001
 20
1.38153
 30
0.0
 10
-6.14075
 20
0.66456
 30
0.0
 10
-6.14075
 20
0.66456
 30
0.0
 10
-6.14075
 20
0.66456
 30
0.0
 10
-6.13461
 20
0.6619
 30
0.0
 10
-6.13461
 20
0.6619
 30
0.0
 10
-6.13461
 20
0.6619
 30
0.0
 10
-6.02729
 20
0.61558
 30
0.0
 10
-5.91932
 20
0.57046
 30
0.0
 10
-5.81077
 20
0.52652
 30
0.0
 10
-5.81077
 20
0.52652
 30
0.0
 10
-5.81077
 20
0.52652
 30
0.0
 10
-5.79545
 20
0.52033
 30
0.0
 10
-5.79545
 20
0.52033
 30
0.0
 10
-5.79545
 20
0.52033
 30
0.0
 10
-5.68837
 20
0.47712
 30
0.0
 10
-5.58069
 20
0.43506
 30
0.0
 10
-5.47244
 20
0.39419
 30
0.0
 10
-5.47244
 20
0.39419
 30
0.0
 10
-5.47244
 20
0.39419
 30
0.0
 10
-5.45558
 20
0.38785
 30
0.0
 10
-5.45558
 20
0.38785
 30
0.0
 10
-5.45558
 20
0.38785
 30
0.0
 10
-5.40252
 20
0.36789
 30
0.0
 10
-5.34935
 20
0.34817
 30
0.0
 10
-5.29602
 20
0.32877
 30
0.0
 10
-5.29602
 20
0.32877
 30
0.0
 10
-5.29602
 20
0.32877
 30
0.0
 10
-5.29442
 20
0.32818
 30
0.0
 10
-5.29442
 20
0.32818
 30
0.0
 10
-5.29442
 20
0.32818
 30
0.0
 10
-5.23989
 20
0.30835
 30
0.0
 10
-5.18521
 20
0.28886
 30
0.0
 10
-5.13039
 20
0.26963
 30
0.0
 10
-5.13039
 20
0.26963
 30
0.0
 10
-5.13039
 20
0.26963
 30
0.0
 10
-5.11125
 20
0.26297
 30
0.0
 10
-5.11125
 20
0.26297
 30
0.0
 10
-5.11125
 20
0.26297
 30
0.0
 10
-5.06183
 20
0.24571
 30
0.0
 10
-5.01229
 20
0.22868
 30
0.0
 10
-4.96264
 20
0.2119
 30
0.0
 10
-4.96264
 20
0.2119
 30
0.0
 10
-4.96264
 20
0.2119
 30
0.0
 10
-4.94566
 20
0.20614
 30
0.0
 10
-4.94566
 20
0.20614
 30
0.0
 10
-4.94566
 20
0.20614
 30
0.0
 10
-4.89186
 20
0.18803
 30
0.0
 10
-4.83792
 20
0.17021
 30
0.0
 10
-4.78386
 20
0.15268
 30
0.0
 10
-4.78386
 20
0.15268
 30
0.0
 10
-4.78386
 20
0.15268
 30
0.0
 10
-4.7644
 20
0.14643
 30
0.0
 10
-4.7644
 20
0.14643
 30
0.0
 10
-4.7644
 20
0.14643
 30
0.0
 10
-4.71669
 20
0.13103
 30
0.0
 10
-4.66887
 20
0.11586
 30
0.0
 10
-4.62096
 20
0.10091
 30
0.0
 10
-4.62096
 20
0.10091
 30
0.0
 10
-4.62096
 20
0.10091
 30
0.0
 10
-4.59297
 20
0.09217
 30
0.0
 10
-4.59297
 20
0.09217
 30
0.0
 10
-4.59297
 20
0.09217
 30
0.0
 10
-4.5392
 20
0.0755
 30
0.0
 10
-4.48532
 20
0.05909
 30
0.0
 10
-4.4313
 20
0.04299
 30
0.0
 10
-4.4313
 20
0.04299
 30
0.0
 10
-4.4313
 20
0.04299
 30
0.0
 10
-4.42109
 20
0.03998
 30
0.0
 10
-4.42109
 20
0.03998
 30
0.0
 10
-4.42109
 20
0.03998
 30
0.0
 10
-4.37159
 20
0.02527
 30
0.0
 10
-4.32195
 20
0.01085
 30
0.0
 10
-4.27224
 20
-0.00338
 30
0.0
 10
-4.27224
 20
-0.00338
 30
0.0
 10
-4.27224
 20
-0.00338
 30
0.0
 10
-4.23705
 20
-0.01343
 30
0.0
 10
-4.23705
 20
-0.01343
 30
0.0
 10
-4.23705
 20
-0.01343
 30
0.0
 10
-4.13089
 20
-0.04355
 30
0.0
 10
-4.02425
 20
-0.07254
 30
0.0
 10
-3.91717
 20
-0.10044
 30
0.0
 10
-3.91717
 20
-0.10044
 30
0.0
 10
-3.91717
 20
-0.10044
 30
0.0
 10
-3.87903
 20
-0.11031
 30
0.0
 10
-3.87903
 20
-0.11031
 30
0.0
 10
-3.87903
 20
-0.11031
 30
0.0
 10
-3.82977
 20
-0.12301
 30
0.0
 10
-3.78044
 20
-0.13552
 30
0.0
 10
-3.731
 20
-0.14775
 30
0.0
 10
-3.731
 20
-0.14775
 30
0.0
 10
-3.731
 20
-0.14775
 30
0.0
 10
-3.71782
 20
-0.15104
 30
0.0
 10
-3.71782
 20
-0.15104
 30
0.0
 10
-3.71782
 20
-0.15104
 30
0.0
 10
-3.66438
 20
-0.1642
 30
0.0
 10
-3.6108
 20
-0.17701
 30
0.0
 10
-3.55714
 20
-0.18962
 30
0.0
 10
-3.55714
 20
-0.18962
 30
0.0
 10
-3.55714
 20
-0.18962
 30
0.0
 10
-3.51921
 20
-0.19845
 30
0.0
 10
-3.51921
 20
-0.19845
 30
0.0
 10
-3.51921
 20
-0.19845
 30
0.0
 10
-3.47385
 20
-0.20899
 30
0.0
 10
-3.42841
 20
-0.21932
 30
0.0
 10
-3.3829
 20
-0.22946
 30
0.0
 10
-3.3829
 20
-0.22946
 30
0.0
 10
-3.3829
 20
-0.22946
 30
0.0
 10
-3.35326
 20
-0.23611
 30
0.0
 10
-3.35326
 20
-0.23611
 30
0.0
 10
-3.35326
 20
-0.23611
 30
0.0
 10
-3.3003
 20
-0.2478
 30
0.0
 10
-3.24722
 20
-0.25917
 30
0.0
 10
-3.19405
 20
-0.27032
 30
0.0
 10
-3.19405
 20
-0.27032
 30
0.0
 10
-3.18127
 20
-0.273
 30
0.0
 10
-3.16846
 20
-0.27561
 30
0.0
 10
-3.15567
 20
-0.27826
 30
0.0
 10
-3.15567
 20
-0.27826
 30
0.0
 10
-3.11187
 20
-0.28732
 30
0.0
 10
-3.06801
 20
-0.29619
 30
0.0
 10
-3.02407
 20
-0.30489
 30
0.0
 10
-3.02407
 20
-0.30489
 30
0.0
 10
-3.01162
 20
-0.30735
 30
0.0
 10
-2.9992
 20
-0.30986
 30
0.0
 10
-2.98674
 20
-0.31229
 30
0.0
 10
-2.98674
 20
-0.31229
 30
0.0
 10
-2.93346
 20
-0.3227
 30
0.0
 10
-2.8801
 20
-0.33284
 30
0.0
 10
-2.82662
 20
-0.3427
 30
0.0
 10
-2.82662
 20
-0.3427
 30
0.0
 10
-2.8154
 20
-0.34477
 30
0.0
 10
-2.80415
 20
-0.34677
 30
0.0
 10
-2.79292
 20
-0.34881
 30
0.0
 10
-2.79292
 20
-0.34881
 30
0.0
 10
-2.7483
 20
-0.35693
 30
0.0
 10
-2.70361
 20
-0.36485
 30
0.0
 10
-2.65886
 20
-0.37259
 30
0.0
 10
-2.65886
 20
-0.37259
 30
0.0
 10
-2.6449
 20
-0.375
 30
0.0
 10
-2.63096
 20
-0.37744
 30
0.0
 10
-2.61699
 20
-0.37982
 30
0.0
 10
-2.61699
 20
-0.37982
 30
0.0
 10
-2.56309
 20
-0.38899
 30
0.0
 10
-2.50912
 20
-0.39792
 30
0.0
 10
-2.45503
 20
-0.40654
 30
0.0
 10
-2.45503
 20
-0.40654
 30
0.0
 10
-2.44752
 20
-0.40774
 30
0.0
 10
-2.43998
 20
-0.40887
 30
0.0
 10
-2.43247
 20
-0.41005
 30
0.0
 10
-2.43247
 20
-0.41005
 30
0.0
 10
-2.38475
 20
-0.41758
 30
0.0
 10
-2.33695
 20
-0.42485
 30
0.0
 10
-2.28909
 20
-0.43194
 30
0.0
 10
-2.28909
 20
-0.43194
 30
0.0
 10
-2.27441
 20
-0.43411
 30
0.0
 10
-2.25972
 20
-0.43629
 30
0.0
 10
-2.24503
 20
-0.43842
 30
0.0
 10
-2.24503
 20
-0.43842
 30
0.0
 10
-2.19067
 20
-0.44631
 30
0.0
 10
-2.13626
 20
-0.45401
 30
0.0
 10
-2.08172
 20
-0.46134
 30
0.0
 10
-2.08172
 20
-0.46134
 30
0.0
 10
-2.08172
 20
-0.46134
 30
0.0
 10
-2.08018
 20
-0.46155
 30
0.0
 10
-2.08018
 20
-0.46155
 30
0.0
 10
-2.08018
 20
-0.46155
 30
0.0
 10
-2.08018
 20
-0.46155
 30
0.0
 10
-2.07539
 20
-0.46216
 30
0.0
 10
-2.07539
 20
-0.46216
 30
0.0
 10
-2.07539
 20
-0.46216
 30
0.0
 10
-2.02228
 20
-0.46927
 30
0.0
 10
-1.96907
 20
-0.47604
 30
0.0
 10
-1.91579
 20
-0.48261
 30
0.0
 10
-1.91579
 20
-0.48261
 30
0.0
 10
-1.90081
 20
-0.48446
 30
0.0
 10
-1.88583
 20
-0.48626
 30
0.0
 10
-1.87083
 20
-0.48807
 30
0.0
 10
-1.87083
 20
-0.48807
 30
0.0
 10
-1.82259
 20
-0.49388
 30
0.0
 10
-1.77428
 20
-0.49948
 30
0.0
 10
-1.72591
 20
-0.50485
 30
0.0
 10
-1.72591
 20
-0.50485
 30
0.0
 10
-1.72591
 20
-0.50485
 30
0.0
 10
-1.70264
 20
-0.50748
 30
0.0
 10
-1.70264
 20
-0.50748
 30
0.0
 10
-1.70264
 20
-0.50748
 30
0.0
 10
-1.64811
 20
-0.51344
 30
0.0
 10
-1.59348
 20
-0.51904
 30
0.0
 10
-1.53878
 20
-0.52444
 30
0.0
 10
-1.53878
 20
-0.52444
 30
0.0
 10
-1.52402
 20
-0.5259
 30
0.0
 10
-1.50923
 20
-0.52729
 30
0.0
 10
-1.49446
 20
-0.52871
 30
0.0
 10
-1.49446
 20
-0.52871
 30
0.0
 10
-1.44881
 20
-0.53308
 30
0.0
 10
-1.40309
 20
-0.53727
 30
0.0
 10
-1.35732
 20
-0.54124
 30
0.0
 10
-1.35732
 20
-0.54124
 30
0.0
 10
-1.3459
 20
-0.54223
 30
0.0
 10
-1.33449
 20
-0.54328
 30
0.0
 10
-1.32306
 20
-0.54425
 30
0.0
 10
-1.32306
 20
-0.54425
 30
0.0
 10
-1.26844
 20
-0.54887
 30
0.0
 10
-1.21373
 20
-0.55317
 30
0.0
 10
-1.15894
 20
-0.55723
 30
0.0
 10
-1.15894
 20
-0.55723
 30
0.0
 10
-1.14474
 20
-0.55828
 30
0.0
 10
-1.13051
 20
-0.55924
 30
0.0
 10
-1.1163
 20
-0.56026
 30
0.0
 10
-1.1163
 20
-0.56026
 30
0.0
 10
-1.0713
 20
-0.56346
 30
0.0
 10
-1.02625
 20
-0.56648
 30
0.0
 10
-0.98115
 20
-0.5693
 30
0.0
 10
-0.98115
 20
-0.5693
 30
0.0
 10
-0.96792
 20
-0.57013
 30
0.0
 10
-0.95471
 20
-0.571
 30
0.0
 10
-0.94148
 20
-0.57179
 30
0.0
 10
-0.94148
 20
-0.57179
 30
0.0
 10
-0.88581
 20
-0.57513
 30
0.0
 10
-0.83005
 20
-0.57819
 30
0.0
 10
-0.77422
 20
-0.58094
 30
0.0
 10
-0.77422
 20
-0.58094
 30
0.0
 10
-0.76344
 20
-0.58147
 30
0.0
 10
-0.75264
 20
-0.58192
 30
0.0
 10
-0.74185
 20
-0.58243
 30
0.0
 10
-0.74185
 20
-0.58243
 30
0.0
 10
-0.69476
 20
-0.58466
 30
0.0
 10
-0.6476
 20
-0.58663
 30
0.0
 10
-0.6004
 20
-0.58844
 30
0.0
 10
-0.6004
 20
-0.58844
 30
0.0
 10
-0.6004
 20
-0.58844
 30
0.0
 10
-0.55695
 20
-0.59008
 30
0.0
 10
-0.55695
 20
-0.59008
 30
0.0
 10
-0.55695
 20
-0.59008
 30
0.0
 10
-0.50081
 20
-0.59208
 30
0.0
 10
-0.44461
 20
-0.5938
 30
0.0
 10
-0.38832
 20
-0.5952
 30
0.0
 10
-0.38832
 20
-0.5952
 30
0.0
 10
-0.38123
 20
-0.59538
 30
0.0
 10
-0.37412
 20
-0.59548
 30
0.0
 10
-0.36703
 20
-0.59564
 30
0.0
 10
-0.36703
 20
-0.59564
 30
0.0
 10
-0.31666
 20
-0.59682
 30
0.0
 10
-0.26621
 20
-0.59769
 30
0.0
 10
-0.21572
 20
-0.5984
 30
0.0
 10
-0.21572
 20
-0.5984
 30
0.0
 10
-0.21572
 20
-0.5984
 30
0.0
 10
-0.17158
 20
-0.59896
 30
0.0
 10
-0.17158
 20
-0.59896
 30
0.0
 10
-0.17158
 20
-0.59896
 30
0.0
 10
-0.11446
 20
-0.59962
 30
0.0
 10
-0.05727
 20
-0.6
 30
0.0
 10
0.0
 20
-0.6
 30
0.0
 10
0.0
 20
-0.6
 30
0.0
 10
0.05728
 20
-0.6
 30
0.0
 10
0.11446
 20
-0.59957
 30
0.0
 10
0.17159
 20
-0.59895
 30
0.0
 10
0.17159
 20
-0.59895
 30
0.0
 10
0.17159
 20
-0.59895
 30
0.0
 10
0.21571
 20
-0.5984
 30
0.0
 10
0.21571
 20
-0.5984
 30
0.0
 10
0.21571
 20
-0.5984
 30
0.0
 10
0.26621
 20
-0.59771
 30
0.0
 10
0.31666
 20
-0.59681
 30
0.0
 10
0.36705
 20
-0.59564
 30
0.0
 10
0.36705
 20
-0.59564
 30
0.0
 10
0.37414
 20
-0.59548
 30
0.0
 10
0.38123
 20
-0.59538
 30
0.0
 10
0.38832
 20
-0.5952
 30
0.0
 10
0.38832
 20
-0.5952
 30
0.0
 10
0.44462
 20
-0.59382
 30
0.0
 10
0.50082
 20
-0.59206
 30
0.0
 10
0.55696
 20
-0.59008
 30
0.0
 10
0.55696
 20
-0.59008
 30
0.0
 10
0.57143
 20
-0.58957
 30
0.0
 10
0.58589
 20
-0.589
 30
0.0
 10
0.60036
 20
-0.58845
 30
0.0
 10
0.60036
 20
-0.58845
 30
0.0
 10
0.64759
 20
-0.58665
 30
0.0
 10
0.69478
 20
-0.58464
 30
0.0
 10
0.7419
 20
-0.58242
 30
0.0
 10
0.7419
 20
-0.58242
 30
0.0
 10
0.75267
 20
-0.58191
 30
0.0
 10
0.76345
 20
-0.58147
 30
0.0
 10
0.77421
 20
-0.58094
 30
0.0
 10
0.77421
 20
-0.58094
 30
0.0
 10
0.83004
 20
-0.57819
 30
0.0
 10
0.8858
 20
-0.57513
 30
0.0
 10
0.94148
 20
-0.57179
 30
0.0
 10
0.94148
 20
-0.57179
 30
0.0
 10
0.95472
 20
-0.571
 30
0.0
 10
0.96793
 20
-0.57013
 30
0.0
 10
0.98115
 20
-0.5693
 30
0.0
 10
0.98115
 20
-0.5693
 30
0.0
 10
1.02628
 20
-0.56648
 30
0.0
 10
1.07136
 20
-0.56347
 30
0.0
 10
1.11639
 20
-0.56026
 30
0.0
 10
1.11639
 20
-0.56026
 30
0.0
 10
1.13055
 20
-0.55925
 30
0.0
 10
1.14472
 20
-0.55827
 30
0.0
 10
1.15887
 20
-0.55723
 30
0.0
 10
1.15887
 20
-0.55723
 30
0.0
 10
1.21371
 20
-0.55317
 30
0.0
 10
1.26847
 20
-0.54886
 30
0.0
 10
1.32316
 20
-0.54424
 30
0.0
 10
1.32316
 20
-0.54424
 30
0.0
 10
1.33447
 20
-0.54328
 30
0.0
 10
1.34576
 20
-0.54224
 30
0.0
 10
1.35706
 20
-0.54126
 30
0.0
 10
1.35706
 20
-0.54126
 30
0.0
 10
1.40298
 20
-0.53728
 30
0.0
 10
1.44885
 20
-0.53307
 30
0.0
 10
1.49466
 20
-0.52869
 30
0.0
 10
1.49466
 20
-0.52869
 30
0.0
 10
1.49466
 20
-0.52869
 30
0.0
 10
1.53864
 20
-0.52446
 30
0.0
 10
1.53864
 20
-0.52446
 30
0.0
 10
1.53864
 20
-0.52446
 30
0.0
 10
1.59341
 20
-0.51906
 30
0.0
 10
1.64811
 20
-0.51345
 30
0.0
 10
1.70271
 20
-0.50748
 30
0.0
 10
1.70271
 20
-0.50748
 30
0.0
 10
1.7106
 20
-0.50662
 30
0.0
 10
1.71846
 20
-0.50567
 30
0.0
 10
1.72634
 20
-0.5048
 30
0.0
 10
1.72634
 20
-0.5048
 30
0.0
 10
1.77429
 20
-0.49948
 30
0.0
 10
1.82218
 20
-0.49392
 30
0.0
 10
1.87
 20
-0.48817
 30
0.0
 10
1.87
 20
-0.48817
 30
0.0
 10
1.87
 20
-0.48817
 30
0.0
 10
1.91593
 20
-0.48259
 30
0.0
 10
1.91593
 20
-0.48259
 30
0.0
 10
1.91593
 20
-0.48259
 30
0.0
 10
1.96959
 20
-0.47597
 30
0.0
 10
2.02319
 20
-0.46917
 30
0.0
 10
2.07668
 20
-0.462
 30
0.0
 10
2.07668
 20
-0.462
 30
0.0
 10
2.07668
 20
-0.462
 30
0.0
 10
2.08018
 20
-0.46155
 30
0.0
 10
2.08018
 20
-0.46155
 30
0.0
 10
2.08018
 20
-0.46155
 30
0.0
 10
2.08018
 20
-0.46155
 30
0.0
 10
2.08174
 20
-0.46134
 30
0.0
 10
2.08174
 20
-0.46134
 30
0.0
 10
2.08174
 20
-0.46134
 30
0.0
 10
2.13628
 20
-0.45402
 30
0.0
 10
2.1907
 20
-0.4463
 30
0.0
 10
2.24505
 20
-0.43841
 30
0.0
 10
2.24505
 20
-0.43841
 30
0.0
 10
2.24505
 20
-0.43841
 30
0.0
 10
2.28968
 20
-0.43185
 30
0.0
 10
2.28968
 20
-0.43185
 30
0.0
 10
2.28968
 20
-0.43185
 30
0.0
 10
2.33652
 20
-0.42491
 30
0.0
 10
2.38331
 20
-0.41779
 30
0.0
 10
2.43002
 20
-0.41043
 30
0.0
 10
2.43002
 20
-0.41043
 30
0.0
 10
2.43002
 20
-0.41043
 30
0.0
 10
2.45575
 20
-0.40642
 30
0.0
 10
2.45575
 20
-0.40642
 30
0.0
 10
2.45575
 20
-0.40642
 30
0.0
 10
2.50965
 20
-0.39784
 30
0.0
 10
2.56344
 20
-0.38892
 30
0.0
 10
2.61716
 20
-0.37979
 30
0.0
 10
2.61716
 20
-0.37979
 30
0.0
 10
2.63121
 20
-0.3774
 30
0.0
 10
2.64525
 20
-0.37495
 30
0.0
 10
2.65928
 20
-0.37252
 30
0.0
 10
2.65928
 20
-0.37252
 30
0.0
 10
2.70331
 20
-0.3649
 30
0.0
 10
2.74727
 20
-0.35709
 30
0.0
 10
2.79117
 20
-0.34911
 30
0.0
 10
2.79117
 20
-0.34911
 30
0.0
 10
2.80322
 20
-0.34692
 30
0.0
 10
2.8153
 20
-0.34479
 30
0.0
 10
2.82734
 20
-0.34257
 30
0.0
 10
2.82734
 20
-0.34257
 30
0.0
 10
2.88047
 20
-0.33277
 30
0.0
 10
2.93351
 20
-0.32269
 30
0.0
 10
2.98644
 20
-0.31235
 30
0.0
 10
2.98644
 20
-0.31235
 30
0.0
 10
2.99896
 20
-0.30991
 30
0.0
 10
3.01144
 20
-0.3074
 30
0.0
 10
3.02395
 20
-0.30492
 30
0.0
 10
3.02395
 20
-0.30492
 30
0.0
 10
3.06793
 20
-0.29622
 30
0.0
 10
3.11185
 20
-0.28733
 30
0.0
 10
3.15569
 20
-0.27826
 30
0.0
 10
3.15569
 20
-0.27826
 30
0.0
 10
3.16863
 20
-0.27558
 30
0.0
 10
3.18158
 20
-0.27293
 30
0.0
 10
3.19451
 20
-0.27022
 30
0.0
 10
3.19451
 20
-0.27022
 30
0.0
 10
3.24766
 20
-0.25908
 30
0.0
 10
3.30071
 20
-0.2477
 30
0.0
 10
3.35366
 20
-0.23602
 30
0.0
 10
3.35366
 20
-0.23602
 30
0.0
 10
3.36323
 20
-0.23391
 30
0.0
 10
3.37277
 20
-0.23172
 30
0.0
 10
3.38234
 20
-0.22959
 30
0.0
 10
3.38234
 20
-0.22959
 30
0.0
 10
3.42791
 20
-0.21944
 30
0.0
 10
3.47341
 20
-0.20909
 30
0.0
 10
3.51883
 20
-0.19854
 30
0.0
 10
3.51883
 20
-0.19854
 30
0.0
 10
3.51883
 20
-0.19854
 30
0.0
 10
3.55731
 20
-0.18958
 30
0.0
 10
3.55731
 20
-0.18958
 30
0.0
 10
3.55731
 20
-0.18958
 30
0.0
 10
3.61083
 20
-0.17701
 30
0.0
 10
3.66427
 20
-0.16423
 30
0.0
 10
3.71758
 20
-0.1511
 30
0.0
 10
3.71758
 20
-0.1511
 30
0.0
 10
3.71758
 20
-0.1511
 30
0.0
 10
3.73196
 20
-0.1475
 30
0.0
 10
3.73196
 20
-0.1475
 30
0.0
 10
3.73196
 20
-0.1475
 30
0.0
 10
3.78096
 20
-0.13538
 30
0.0
 10
3.82984
 20
-0.12299
 30
0.0
 10
3.87866
 20
-0.11041
 30
0.0
 10
3.87866
 20
-0.11041
 30
0.0
 10
3.87866
 20
-0.11041
 30
0.0
 10
3.9175
 20
-0.10035
 30
0.0
 10
3.9175
 20
-0.10035
 30
0.0
 10
3.9175
 20
-0.10035
 30
0.0
 10
4.02453
 20
-0.07246
 30
0.0
 10
4.13113
 20
-0.04347
 30
0.0
 10
4.23725
 20
-0.01337
 30
0.0
 10
4.23725
 20
-0.01337
 30
0.0
 10
4.23725
 20
-0.01337
 30
0.0
 10
4.272
 20
-0.00345
 30
0.0
 10
4.272
 20
-0.00345
 30
0.0
 10
4.272
 20
-0.00345
 30
0.0
 10
4.32172
 20
0.01078
 30
0.0
 10
4.37137
 20
0.0252
 30
0.0
 10
4.42088
 20
0.03992
 30
0.0
 10
4.42088
 20
0.03992
 30
0.0
 10
4.42088
 20
0.03992
 30
0.0
 10
4.43139
 20
0.04302
 30
0.0
 10
4.43139
 20
0.04302
 30
0.0
 10
4.43139
 20
0.04302
 30
0.0
 10
4.48538
 20
0.05911
 30
0.0
 10
4.53923
 20
0.07552
 30
0.0
 10
4.59297
 20
0.09218
 30
0.0
 10
4.59297
 20
0.09218
 30
0.0
 10
4.59297
 20
0.09218
 30
0.0
 10
4.62142
 20
0.10106
 30
0.0
 10
4.62142
 20
0.10106
 30
0.0
 10
4.62142
 20
0.10106
 30
0.0
 10
4.66933
 20
0.11601
 30
0.0
 10
4.71715
 20
0.13117
 30
0.0
 10
4.76486
 20
0.14657
 30
0.0
 10
4.76486
 20
0.14657
 30
0.0
 10
4.76486
 20
0.14657
 30
0.0
 10
4.78344
 20
0.15254
 30
0.0
 10
4.78344
 20
0.15254
 30
0.0
 10
4.78344
 20
0.15254
 30
0.0
 10
4.83743
 20
0.17005
 30
0.0
 10
4.89128
 20
0.18785
 30
0.0
 10
4.94501
 20
0.20593
 30
0.0
 10
4.94501
 20
0.20593
 30
0.0
 10
4.94501
 20
0.20593
 30
0.0
 10
4.96386
 20
0.21232
 30
0.0
 10
4.96386
 20
0.21232
 30
0.0
 10
4.96386
 20
0.21232
 30
0.0
 10
5.01292
 20
0.2289
 30
0.0
 10
5.06187
 20
0.24572
 30
0.0
 10
5.11071
 20
0.26278
 30
0.0
 10
5.11071
 20
0.26278
 30
0.0
 10
5.11071
 20
0.26278
 30
0.0
 10
5.13069
 20
0.26974
 30
0.0
 10
5.13069
 20
0.26974
 30
0.0
 10
5.13069
 20
0.26974
 30
0.0
 10
5.18524
 20
0.28888
 30
0.0
 10
5.23966
 20
0.30827
 30
0.0
 10
5.29393
 20
0.328
 30
0.0
 10
5.29393
 20
0.328
 30
0.0
 10
5.29393
 20
0.328
 30
0.0
 10
5.29736
 20
0.32926
 30
0.0
 10
5.29736
 20
0.32926
 30
0.0
 10
5.29736
 20
0.32926
 30
0.0
 10
5.35017
 20
0.34847
 30
0.0
 10
5.40283
 20
0.368
 30
0.0
 10
5.45537
 20
0.38777
 30
0.0
 10
5.45537
 20
0.38777
 30
0.0
 10
5.45537
 20
0.38777
 30
0.0
 10
5.47259
 20
0.39425
 30
0.0
 10
5.47259
 20
0.39425
 30
0.0
 10
5.47259
 20
0.39425
 30
0.0
 10
5.58089
 20
0.43514
 30
0.0
 10
5.68862
 20
0.47722
 30
0.0
 10
5.79575
 20
0.52045
 30
0.0
 10
5.79575
 20
0.52045
 30
0.0
 10
5.79575
 20
0.52045
 30
0.0
 10
5.81042
 20
0.52637
 30
0.0
 10
5.81042
 20
0.52637
 30
0.0
 10
5.81042
 20
0.52637
 30
0.0
 10
5.91936
 20
0.57047
 30
0.0
 10
6.02768
 20
0.61575
 30
0.0
 10
6.13538
 20
0.66223
 30
0.0
 10
6.13538
 20
0.66223
 30
0.0
 10
6.13538
 20
0.66223
 30
0.0
 10
6.1398
 20
0.66414
 30
0.0
 10
6.1398
 20
0.66414
 30
0.0
 10
6.1398
 20
0.66414
 30
0.0
 10
7.79943
 20
1.38114
 30
0.0
 10
9.30889
 20
2.37993
 30
0.0
 10
10.60809
 20
3.6
 30
0.0
 10
10.60809
 20
3.6
 30
0.0
 10
10.60809
 20
3.6
 30
0.0
 10
12.2
 20
3.6
 30
0.0
 10
12.2
 20
3.6
 30
0.0
 10
12.2
 20
3.6
 30
0.0
 10
12.47614
 20
3.6
 30
0.0
 10
12.7
 20
3.37614
 30
0.0
 10
12.7
 20
3.1
 30
0.0
 10
12.7
 20
3.1
 30
0.0
 10
12.7
 20
3.1
 30
0.0
 10
12.7
 20
1.44896
 30
0.0
 10
12.7
 20
1.44896
 30
0.0
  0
ELLIPSE
  5
46
330
1F
100
AcDbEntity
  8
Layer 1
 62
     3
370
    53
100
AcDbEllipse
 10
-7.49997
 20
2.89997
 30
0.0
 11
0.0
 21
1.00003
 31
0.0
210
0.0
220
0.0
230
1.0
 40
1.0
 41
0.0
 42
6.283185307179586
  0
ELLIPSE
  5
47
330
1F
100
AcDbEntity
  8
Layer 1
370
    53
100
AcDbEllipse
 10
-7.49999
 20
2.89999
 30
0.0
 11
0.0
 21
0.30001
 31
0.0
210
0.0
220
0.0
230
1.0
 40
1.0
 41
0.0
 42
6.283185307179586
  0
SPLINE
  5
48
330
1F
100
AcDbEntity
  8
Layer 1
 62
     3
370
    53
100
AcDbSpline
210
0.0
220
0.0
230
1.0
 70
    11
 71
     3
 72
    36
 73
    32
 74
     0
 42
0.0000000001
 43
0.0000000001
 12
1.0
 22
0.0
 32
0.0
 13
1.0
 23
0.0
 33
0.0
 40
0.0
 40
0.0
 40
0.0
 40
0.0
 40
0.1111111111111111
 40
0.1111111111111111
 40
0.1111111111111111
 40
0.1111111111111111
 40
0.2222222222222222
 40
0.2222222222222222
 40
0.2222222222222222
 40
0.2222222222222222
 40
0.3333333333333333
 40
0.3333333333333333
 40
0.3333333333333333
 40
0.3333333333333333
 40
0.4444444444444444
 40
0.4444444444444444
 40
0.4444444444444444
 40
0.4444444444444444
 40
0.5555555555555556
 40
0.5555555555555556
 40
0.5555555555555556
 40
0.5555555555555556
 40
0.6666666666666666
 40
0.6666666666666666
 40
0.6666666666666666
 40
0.6666666666666666
 40
0.7777777777777778
 40
0.7777777777777778
 40
0.7777777777777778
 40
0.7777777777777778
 40
1.0
 40
1.0
 40
1.0
 40
1.0
 10
10.75
 20
-2.15
 30
0.0
 10
10.75
 20
-2.15
 30
0.0
 10
10.75
 20
-1.0
 30
0.0
 10
10.75
 20
-1.0
 30
0.0
 10
10.75
 20
-1.0
 30
0.0
 10
10.75
 20
-0.72386
 30
0.0
 10
10.97386
 20
-0.5
 30
0.0
 10
11.25
 20
-0.5
 30
0.0
 10
11.25
 20
-0.5
 30
0.0
 10
11.25
 20
-0.5
 30
0.0
 10
12.4
 20
-0.5
 30
0.0
 10
12.4
 20
-0.5
 30
0.0
 10
12.4
 20
-0.5
 30
0.0
 10
12.67614
 20
-0.5
 30
0.0
 10
12.9
 20
-0.72386
 30
0.0
 10
12.9
 20
-1.0
 30
0.0
 10
12.9
 20
-1.0
 30
0.0
 10
12.9
 20
-1.0
 30
0.0
 10
12.9
 20
-2.15
 30
0.0
 10
12.9
 20
-2.15
 30
0.0
 10
12.9
 20
-2.15
 30
0.0
 10
12.9
 20
-2.42614
 30
0.0
 10
12.67614
 20
-2.65
 30
0.0
 10
12.4
 20
-2.65
 30
0.0
 10
12.4
 20
-2.65
 30
0.0
 10
12.4
 20
-2.65
 30
0.0
 10
11.25
 20
-2.65
 30
0.0
 10
11.25
 20
-2.65
 30
0.0
 10
11.25
 20
-2.65
 30
0.0
 10
10.97386
 20
-2.65
 30
0.0
 10
10.75
 20
-2.42614
 30
0.0
 10
10.75
 20
-2.15
 30
0.0
  0
ELLIPSE
  5
49
330
1F
100
AcDbEntity
  8
Layer 1
370
    53
100
AcDbEllipse
 10
12.2
 20
-1.2
 30
0.0
 11
0.0
 21
0.3
 31
0.0
210
0.0
220
0.0
230
1.0
 40
1.0
 41
0.0
 42
6.283185307179586
  0
ELLIPSE
  5
4A
330
1F
100
AcDbEntity
  8
Layer 1
 62
     3
370
    53
100
AcDbEllipse
 10
-5.34997
 20
2.89997
 30
0.0
 11
0.0
 21
1.00003
 31
0.0
210
0.0
220
0.0
230
1.0
 40
1.0
 41
0.0
 42
6.283185307179586
  0
ELLIPSE
  5
4B
330
1F
100
AcDbEntity
  8
Layer 1
370
    53
100
AcDbEllipse
 10
-5.34999
 20
2.89999
 30
0.0
 11
0.0
 21
0.30001
 31
0.0
210
0.0
220
0.0
230
1.0
 40
1.0
 41
0.0
 42
6.283185307179586
  0
ELLIPSE
  5
4C
330
1F
100
AcDbEntity
  8
Layer 1
 62
     3
370
    53
100
AcDbEllipse
 10
-3.19997
 20
2.89997
 30
0.0
 11
0.0
 21
1.00003
 31
0.0
210
0.0
220
0.0
230
1.0
 40
1.0
 41
0.0
 42
6.283185307179586
  0
ELLIPSE
  5
4D
330
1F
100
AcDbEntity
  8
Layer 1
370
    53
100
AcDbEllipse
 10
-3.19999
 20
2.89999
 30
0.0
 11
0.0
 21
0.30001
 31
0.0
210
0.0
220
0.0
230
1.0
 40
1.0
 41
0.0
 42
6.283185307179586
  0
ELLIPSE
  5
4E
330
1F
100
AcDbEntity
  8
Layer 1
 62
     3
370
    53
100
AcDbEllipse
 10
-1.04997
 20
2.89997
 30
0.0
 11
0.0
 21
1.00003
 31
0.0
210
0.0
220
0.0
230
1.0
 40
1.0
 41
0.0
 42
6.283185307179586
  0
ELLIPSE
  5
4F
330
1F
100
AcDbEntity
  8
Layer 1
370
    53
100
AcDbEllipse
 10
-1.04999
 20
2.89999
 30
0.0
 11
0.0
 21
0.30001
 31
0.0
210
0.0
220
0.0
230
1.0
 40
1.0
 41
0.0
 42
6.283185307179586
  0
ELLIPSE
  5
50
330
1F
100
AcDbEntity
  8
Layer 1
 62
     3
370
    53
100
AcDbEllipse
 10
1.10003
 20
2.89997
 30
0.0
 11
0.0
 21
1.00003
 31
0.0
210
0.0
220
0.0
230
1.0
 40
1.0
 41
0.0
 42
6.283185307179586
  0
ELLIPSE
  5
51
330
1F
100
AcDbEntity
  8
Layer 1
370
    53
100
AcDbEllipse
 10
1.10001
 20
2.89999
 30
0.0
 11
0.0
 21
0.30001
 31
0.0
210
0.0
220
0.0
230
1.0
 40
1.0
 41
0.0
 42
6.283185307179586
  0
ELLIPSE
  5
52
330
1F
100
AcDbEntity
  8
Layer 1
 62
     3
370
    53
100
AcDbEllipse
 10
3.25003
 20
2.89997
 30
0.0
 11
0.0
 21
1.00003
 31
0.0
210
0.0
220
0.0
230
1.0
 40
1.0
 41
0.0
 42
6.283185307179586
  0
ELLIPSE
  5
53
330
1F
100
AcDbEntity
  8
Layer 1
370
    53
100
AcDbEllipse
 10
3.25001
 20
2.89999
 30
0.0
 11
0.0
 21
0.30001
 31
0.0
210
0.0
220
0.0
230
1.0
 40
1.0
 41
0.0
 42
6.283185307179586
  0
ELLIPSE
  5
54
330
1F
100
AcDbEntity
  8
Layer 1
 62
     3
370
    53
100
AcDbEllipse
 10
5.40003
 20
2.89997
 30
0.0
 11
0.0
 21
1.00003
 31
0.0
210
0.0
220
0.0
230
1.0
 40
1.0
 41
0.0
 42
6.283185307179586
  0
ELLIPSE
  5
55
330
1F
100
AcDbEntity
  8
Layer 1
370
    53
100
AcDbEllipse
 10
5.40001
 20
2.89999
 30
0.0
 11
0.0
 21
0.30001
 31
0.0
210
0.0
220
0.0
230
1.0
 40
1.0
 41
0.0
 42
6.283185307179586
  0
ELLIPSE
  5
56
330
1F
100
AcDbEntity
  8
Layer 1
 62
     3
370
    53
100
AcDbEllipse
 10
7.55003
 20
2.89997
 30
0.0
 11
0.0
 21
1.00003
 31
0.0
210
0.0
220
0.0
230
1.0
 40
1.0
 41
0.0
 42
6.283185307179586
  0
ELLIPSE
  5
57
330
1F
100
AcDbEntity
  8
Layer 1
370
    53
100
AcDbEllipse
 10
7.55001
 20
2.89999
 30
0.0
 11
0.0
 21
0.30001
 31
0.0
210
0.0
220
0.0
230
1.0
 40
1.0
 41
0.0
 42
6.283185307179586
  0
SPLINE
  5
58
330
1F
100
AcDbEntity
  8
Layer 1
 62
     3
370
    53
100
AcDbSpline
210
0.0
220
0.0
230
1.0
 70
    11
 71
     3
 72
    36
 73
    32
 74
     0
 42
0.0000000001
 43
0.0000000001
 12
1.0
 22
0.0
 32
0.0
 13
1.0
 23
0.0
 33
0.0
 40
0.0
 40
0.0
 40
0.0
 40
0.0
 40
0.1111111111111111
 40
0.1111111111111111
 40
0.1111111111111111
 40
0.1111111111111111
 40
0.2222222222222222
 40
0.2222222222222222
 40
0.2222222222222222
 40
0.2222222222222222
 40
0.3333333333333333
 40
0.3333333333333333
 40
0.3333333333333333
 40
0.3333333333333333
 40
0.4444444444444444
 40
0.4444444444444444
 40
0.4444444444444444
 40
0.4444444444444444
 40
0.5555555555555556
 40
0.5555555555555556
 40
0.5555555555555556
 40
0.5555555555555556
 40
0.6666666666666666
 40
0.6666666666666666
 40
0.6666666666666666
 40
0.6666666666666666
 40
0.7777777777777778
 40
0.7777777777777778
 40
0.7777777777777778
 40
0.7777777777777778
 40
1.0
 40
1.0
 40
1.0
 40
1.0
 10
-12.85
 20
-2.15
 30
0.0
 10
-12.85
 20
-2.15
 30
0.0
 10
-12.85
 20
-1.0
 30
0.0
 10
-12.85
 20
-1.0
 30
0.0
 10
-12.85
 20
-1.0
 30
0.0
 10
-12.85
 20
-0.72386
 30
0.0
 10
-12.62614
 20
-0.5
 30
0.0
 10
-12.35
 20
-0.5
 30
0.0
 10
-12.35
 20
-0.5
 30
0.0
 10
-12.35
 20
-0.5
 30
0.0
 10
-11.2
 20
-0.5
 30
0.0
 10
-11.2
 20
-0.5
 30
0.0
 10
-11.2
 20
-0.5
 30
0.0
 10
-10.92386
 20
-0.5
 30
0.0
 10
-10.7
 20
-0.72386
 30
0.0
 10
-10.7
 20
-1.0
 30
0.0
 10
-10.7
 20
-1.0
 30
0.0
 10
-10.7
 20
-1.0
 30
0.0
 10
-10.7
 20
-2.15
 30
0.0
 10
-10.7
 20
-2.15
 30
0.0
 10
-10.7
 20
-2.15
 30
0.0
 10
-10.7
 20
-2.42614
 30
0.0
 10
-10.92386
 20
-2.65
 30
0.0
 10
-11.2
 20
-2.65
 30
0.0
 10
-11.2
 20
-2.65
 30
0.0
 10
-11.2
 20
-2.65
 30
0.0
 10
-12.35
 20
-2.65
 30
0.0
 10
-12.35
 20
-2.65
 30
0.0
 10
-12.35
 20
-2.65
 30
0.0
 10
-12.62614
 20
-2.65
 30
0.0
 10
-12.85
 20
-2.42614
 30
0.0
 10
-12.85
 20
-2.15
 30
0.0
  0
ELLIPSE
  5
59
330
1F
100
AcDbEntity
  8
Layer 1
370
    53
100
AcDbEllipse
 10
-11.4
 20
-1.2
 30
0.0
 11
0.0
 21
0.3
 31
0.0
210
0.0
220
0.0
230
1.0
 40
1.0
 41
0.0
 42
6.283185307179586
  0
ELLIPSE
  5
5A
330
1F
100
AcDbEntity
  8
Layer 1
 62
     3
370
    53
100
AcDbEllipse
 10
-11.79997
 20
5.04997
 30
0.0
 11
0.0
 21
1.00003
 31
0.0
210
0.0
220
0.0
230
1.0
 40
1.0
 41
0.0
 42
6.283185307179586
  0
ELLIPSE
  5
5B
330
1F
100
AcDbEntity
  8
Layer 1
370
    53
100
AcDbEllipse
 10
-11.79999
 20
5.04999
 30
0.0
 11
0.0
 21
0.30001
 31
0.0
210
0.0
220
0.0
230
1.0
 40
1.0
 41
0.0
 42
6.283185307179586
  0
ELLIPSE
  5
5C
330
1F
100
AcDbEntity
  8
Layer 1
 62
     3
370
    53
100
AcDbEllipse
 10
-9.64997
 20
5.04997
 30
0.0
 11
0.0
 21
1.00003
 31
0.0
210
0.0
220
0.0
230
1.0
 40
1.0
 41
0.0
 42
6.283185307179586
  0
ELLIPSE
  5
5D
330
1F
100
AcDbEntity
  8
Layer 1
370
    53
100
AcDbEllipse
 10
-9.64999
 20
5.04999
 30
0.0
 11
0.0
 21
0.30001
 31
0.0
210
0.0
220
0.0
230
1.0
 40
1.0
 41
0.0
 42
6.283185307179586
  0
ELLIPSE
  5
5E
330
1F
100
AcDbEntity
  8
Layer 1
 62
     3
370
    53
100
AcDbEllipse
 10
-7.49997
 20
5.04997
 30
0.0
 11
0.0
 21
1.00003
 31
0.0
210
0.0
220
0.0
230
1.0
 40
1.0
 41
0.0
 42
6.283185307179586
  0
ELLIPSE
  5
5F
330
1F
100
AcDbEntity
  8
Layer 1
370
    53
100
AcDbEllipse
 10
-7.49999
 20
5.04999
 30
0.0
 11
0.0
 21
0.30001
 31
0.0
210
0.0
220
0.0
230
1.0
 40
1.0
 41
0.0
 42
6.283185307179586
  0
ELLIPSE
  5
60
330
1F
100
AcDbEntity
  8
Layer 1
 62
     3
370
    53
100
AcDbEllipse
 10
-5.34997
 20
5.04997
 30
0.0
 11
0.0
 21
1.00003
 31
0.0
210
0.0
220
0.0
230
1.0
 40
1.0
 41
0.0
 42
6.283185307179586
  0
ELLIPSE
  5
61
330
1F
100
AcDbEntity
  8
Layer 1
370
    53
100
AcDbEllipse
 10
-5.34999
 20
5.04999
 30
0.0
 11
0.0
 21
0.30001
 31
0.0
210
0.0
220
0.0
230
1.0
 40
1.0
 41
0.0
 42
6.283185307179586
  0
ELLIPSE
  5
62
330
1F
100
AcDbEntity
  8
Layer 1
 62
     3
370
    53
100
AcDbEllipse
 10
-3.19997
 20
5.04997
 30
0.0
 11
0.0
 21
1.00003
 31
0.0
210
0.0
220
0.0
230
1.0
 40
1.0
 41
0.0
 42
6.283185307179586
  0
ELLIPSE
  5
63
330
1F
100
AcDbEntity
  8
Layer 1
370
    53
100
AcDbEllipse
 10
-3.19999
 20
5.04999
 30
0.0
 11
0.0
 21
0.30001
 31
0.0
210
0.0
220
0.0
230
1.0
 40
1.0
 41
0.0
 42
6.283185307179586
  0
ELLIPSE
  5
64
330
1F
100
AcDbEntity
  8
Layer 1
 62
     3
370
    53
100
AcDbEllipse
 10
-1.04997
 20
5.04997
 30
0.0
 11
0.0
 21
1.00003
 31
0.0
210
0.0
220
0.0
230
1.0
 40
1.0
 41
0.0
 42
6.283185307179586
  0
ELLIPSE
  5
65
330
1F
100
AcDbEntity
  8
Layer 1
370
    53
100
AcDbEllipse
 10
-1.04999
 20
5.04999
 30
0.0
 11
0.0
 21
0.30001
 31
0.0
210
0.0
220
0.0
230
1.0
 40
1.0
 41
0.0
 42
6.283185307179586
  0
ELLIPSE
  5
66
330
1F
100
AcDbEntity
  8
Layer 1
 62
     3
370
    53
100
AcDbEllipse
 10
1.10003
 20
5.04997
 30
0.0
 11
0.0
 21
1.00003
 31
0.0
210
0.0
220
0.0
230
1.0
 40
1.0
 41
0.0
 42
6.283185307179586
  0
ELLIPSE
  5
67
330
1F
100
AcDbEntity
  8
Layer 1
370
    53
100
AcDbEllipse
 10
1.10001
 20
5.04999
 30
0.0
 11
0.0
 21
0.30001
 31
0.0
210
0.0
220
0.0
230
1.0
 40
1.0
 41
0.0
 42
6.283185307179586
  0
ELLIPSE
  5
68
330
1F
100
AcDbEntity
  8
Layer 1
 62
     3
370
    53
100
AcDbEllipse
 10
3.25003
 20
5.04997
 30
0.0
 11
0.0
 21
1.00003
 31
0.0
210
0.0
220
0.0
230
1.0
 40
1.0
 41
0.0
 42
6.283185307179586
  0
ELLIPSE
  5
69
330
1F
100
AcDbEntity
  8
Layer 1
370
    53
100
AcDbEllipse
 10
3.25001
 20
5.04999
 30
0.0
 11
0.0
 21
0.30001
 31
0.0
210
0.0
220
0.0
230
1.0
 40
1.0
 41
0.0
 42
6.283185307179586
  0
ELLIPSE
  5
6A
330
1F
100
AcDbEntity
  8
Layer 1
 62
     3
370
    53
100
AcDbEllipse
 10
5.40003
 20
5.04997
 30
0.0
 11
0.0
 21
1.00003
 31
0.0
210
0.0
220
0.0
230
1.0
 40
1.0
 41
0.0
 42
6.283185307179586
  0
ELLIPSE
  5
6B
330
1F
100
AcDbEntity
  8
Layer 1
370
    53
100
AcDbEllipse
 10
5.40001
 20
5.04999
 30
0.0
 11
0.0
 21
0.30001
 31
0.0
210
0.0
220
0.0
230
1.0
 40
1.0
 41
0.0
 42
6.283185307179586
  0
ELLIPSE
  5
6C
330
1F
100
AcDbEntity
  8
Layer 1
 62
     3
370
    53
100
AcDbEllipse
 10
7.55003
 20
5.04997
 30
0.0
 11
0.0
 21
1.00003
 31
0.0
210
0.0
220
0.0
230
1.0
 40
1.0
 41
0.0
 42
6.283185307179586
  0
ELLIPSE
  5
6D
330
1F
100
AcDbEntity
  8
Layer 1
370
    53
100
AcDbEllipse
 10
7.55001
 20
5.04999
 30
0.0
 11
0.0
 21
0.30001
 31
0.0
210
0.0
220
0.0
230
1.0
 40
1.0
 41
0.0
 42
6.283185307179586
  0
ELLIPSE
  5
6E
330
1F
100
AcDbEntity
  8
Layer 1
 62
     3
370
    53
100
AcDbEllipse
 10
9.70003
 20
5.04997
 30
0.0
 11
0.0
 21
1.00003
 31
0.0
210
0.0
220
0.0
230
1.0
 40
1.0
 41
0.0
 42
6.283185307179586
  0
ELLIPSE
  5
6F
330
1F
100
AcDbEntity
  8
Layer 1
370
    53
100
AcDbEllipse
 10
9.70001
 20
5.04999
 30
0.0
 11
0.0
 21
0.30001
 31
0.0
210
0.0
220
0.0
230
1.0
 40
1.0
 41
0.0
 42
6.283185307179586
  0
ELLIPSE
  5
70
330
1F
100
AcDbEntity
  8
Layer 1
 62
     3
370
    53
100
AcDbEllipse
 10
11.85003
 20
5.04997
 30
0.0
 11
0.0
 21
1.00003
 31
0.0
210
0.0
220
0.0
230
1.0
 40
1.0
 41
0.0
 42
6.283185307179586
  0
ELLIPSE
  5
71
330
1F
100
AcDbEntity
  8
Layer 1
370
    53
100
AcDbEllipse
 10
11.85001
 20
5.04999
 30
0.0
 11
0.0
 21
0.30001
 31
0.0
210
0.0
220
0.0
230
1.0
 40
1.0
 41
0.0
 42
6.283185307179586
  0
SPLINE
  5
72
330
1F
100
AcDbEntity
  8
Layer 1
 62
     3
370
    53
100
AcDbSpline
210
0.0
220
0.0
230
1.0
 70
    11
 71
     3
 72
    36
 73
    32
 74
     0
 42
0.0000000001
 43
0.0000000001
 12
1.0
 22
0.0
 32
0.0
 13
1.0
 23
0.0
 33
0.0
 40
0.0
 40
0.0
 40
0.0
 40
0.0
 40
0.1111111111111111
 40
0.1111111111111111
 40
0.1111111111111111
 40
0.1111111111111111
 40
0.2222222222222222
 40
0.2222222222222222
 40
0.2222222222222222
 40
0.2222222222222222
 40
0.3333333333333333
 40
0.3333333333333333
 40
0.3333333333333333
 40
0.3333333333333333
 40
0.4444444444444444
 40
0.4444444444444444
 40
0.4444444444444444
 40
0.4444444444444444
 40
0.5555555555555556
 40
0.5555555555555556
 40
0.5555555555555556
 40
0.5555555555555556
 40
0.6666666666666666
 40
0.6666666666666666
 40
0.6666666666666666
 40
0.6666666666666666
 40
0.7777777777777778
 40
0.7777777777777778
 40
0.7777777777777778
 40
0.7777777777777778
 40
1.0
 40
1.0
 40
1.0
 40
1.0
 10
10.75
 20
-5.55
 30
0.0
 10
10.75
 20
-5.55
 30
0.0
 10
10.75
 20
-4.4
 30
0.0
 10
10.75
 20
-4.4
 30
0.0
 10
10.75
 20
-4.4
 30
0.0
 10
10.75
 20
-4.12386
 30
0.0
 10
10.97386
 20
-3.9
 30
0.0
 10
11.25
 20
-3.9
 30
0.0
 10
11.25
 20
-3.9
 30
0.0
 10
11.25
 20
-3.9
 30
0.0
 10
12.4
 20
-3.9
 30
0.0
 10
12.4
 20
-3.9
 30
0.0
 10
12.4
 20
-3.9
 30
0.0
 10
12.67614
 20
-3.9
 30
0.0
 10
12.9
 20
-4.12386
 30
0.0
 10
12.9
 20
-4.4
 30
0.0
 10
12.9
 20
-4.4
 30
0.0
 10
12.9
 20
-4.4
 30
0.0
 10
12.9
 20
-5.55
 30
0.0
 10
12.9
 20
-5.55
 30
0.0
 10
12.9
 20
-5.55
 30
0.0
 10
12.9
 20
-5.82614
 30
0.0
 10
12.67614
 20
-6.05
 30
0.0
 10
12.4
 20
-6.05
 30
0.0
 10
12.4
 20
-6.05
 30
0.0
 10
12.4
 20
-6.05
 30
0.0
 10
11.25
 20
-6.05
 30
0.0
 10
11.25
 20
-6.05
 30
0.0
 10
11.25
 20
-6.05
 30
0.0
 10
10.97386
 20
-6.05
 30
0.0
 10
10.75
 20
-5.82614
 30
0.0
 10
10.75
 20
-5.55
 30
0.0
  0
ELLIPSE
  5
73
330
1F
100
AcDbEntity
  8
Layer 1
370
    53
100
AcDbEllipse
 10
12.2
 20
-4.6
 30
0.0
 11
0.0
 21
0.3
 31
0.0
210
0.0
220
0.0
230
1.0
 40
1.0
 41
0.0
 42
6.283185307179586
  0
SPLINE
  5
74
330
1F
100
AcDbEntity
  8
Layer 1
 62
     3
370
    53
100
AcDbSpline
210
0.0
220
0.0
230
1.0
 70
    11
 71
     3
 72
    36
 73
    32
 74
     0
 42
0.0000000001
 43
0.0000000001
 12
1.0
 22
0.0
 32
0.0
 13
1.0
 23
0.0
 33
0.0
 40
0.0
 40
0.0
 40
0.0
 40
0.0
 40
0.1111111111111111
 40
0.1111111111111111
 40
0.1111111111111111
 40
0.1111111111111111
 40
0.2222222222222222
 40
0.2222222222222222
 40
0.2222222222222222
 40
0.2222222222222222
 40
0.3333333333333333
 40
0.3333333333333333
 40
0.3333333333333333
 40
0.3333333333333333
 40
0.4444444444444444
 40
0.4444444444444444
 40
0.4444444444444444
 40
0.4444444444444444
 40
0.5555555555555556
 40
0.5555555555555556
 40
0.5555555555555556
 40
0.5555555555555556
 40
0.6666666666666666
 40
0.6666666666666666
 40
0.6666666666666666
 40
0.6666666666666666
 40
0.7777777777777778
 40
0.7777777777777778
 40
0.7777777777777778
 40
0.7777777777777778
 40
1.0
 40
1.0
 40
1.0
 40
1.0
 10
8.45
 20
-5.55
 30
0.0
 10
8.45
 20
-5.55
 30
0.0
 10
8.45
 20
-4.4
 30
0.0
 10
8.45
 20
-4.4
 30
0.0
 10
8.45
 20
-4.4
 30
0.0
 10
8.45
 20
-4.12386
 30
0.0
 10
8.67386
 20
-3.9
 30
0.0
 10
8.95
 20
-3.9
 30
0.0
 10
8.95
 20
-3.9
 30
0.0
 10
8.95
 20
-3.9
 30
0.0
 10
10.1
 20
-3.9
 30
0.0
 10
10.1
 20
-3.9
 30
0.0
 10
10.1
 20
-3.9
 30
0.0
 10
10.37614
 20
-3.9
 30
0.0
 10
10.6
 20
-4.12386
 30
0.0
 10
10.6
 20
-4.4
 30
0.0
 10
10.6
 20
-4.4
 30
0.0
 10
10.6
 20
-4.4
 30
0.0
 10
10.6
 20
-5.55
 30
0.0
 10
10.6
 20
-5.55
 30
0.0
 10
10.6
 20
-5.55
 30
0.0
 10
10.6
 20
-5.82614
 30
0.0
 10
10.37614
 20
-6.05
 30
0.0
 10
10.1
 20
-6.05
 30
0.0
 10
10.1
 20
-6.05
 30
0.0
 10
10.1
 20
-6.05
 30
0.0
 10
8.95
 20
-6.05
 30
0.0
 10
8.95
 20
-6.05
 30
0.0
 10
8.95
 20
-6.05
 30
0.0
 10
8.67386
 20
-6.05
 30
0.0
 10
8.45
 20
-5.82614
 30
0.0
 10
8.45
 20
-5.55
 30
0.0
  0
ELLIPSE
  5
75
330
1F
100
AcDbEntity
  8
Layer 1
370
    53
100
AcDbEllipse
 10
9.9
 20
-4.6
 30
0.0
 11
0.0
 21
0.3
 31
0.0
210
0.0
220
0.0
230
1.0
 40
1.0
 41
0.0
 42
6.283185307179586
  0
SPLINE
  5
76
330
1F
100
AcDbEntity
  8
Layer 1
 62
     3
370
    53
100
AcDbSpline
210
0.0
220
0.0
230
1.0
 70
    11
 71
     3
 72
    36
 73
    32
 74
     0
 42
0.0000000001
 43
0.0000000001
 12
1.0
 22
0.0
 32
0.0
 13
1.0
 23
0.0
 33
0.0
 40
0.0
 40
0.0
 40
0.0
 40
0.0
 40
0.1111111111111111
 40
0.1111111111111111
 40
0.1111111111111111
 40
0.1111111111111111
 40
0.2222222222222222
 40
0.2222222222222222
 40
0.2222222222222222
 40
0.2222222222222222
 40
0.3333333333333333
 40
0.3333333333333333
 40
0.3333333333333333
 40
0.3333333333333333
 40
0.4444444444444444
 40
0.4444444444444444
 40
0.4444444444444444
 40
0.4444444444444444
 40
0.5555555555555556
 40
0.5555555555555556
 40
0.5555555555555556
 40
0.5555555555555556
 40
0.6666666666666666
 40
0.6666666666666666
 40
0.6666666666666666
 40
0.6666666666666666
 40
0.7777777777777778
 40
0.7777777777777778
 40
0.7777777777777778
 40
0.7777777777777778
 40
1.0
 40
1.0
 40
1.0
 40
1.0
 10
6.15
 20
-5.55
 30
0.0
 10
6.15
 20
-5.55
 30
0.0
 10
6.15
 20
-4.4
 30
0.0
 10
6.15
 20
-4.4
 30
0.0
 10
6.15
 20
-4.4
 30
0.0
 10
6.15
 20
-4.12386
 30
0.0
 10
6.37386
 20
-3.9
 30
0.0
 10
6.65
 20
-3.9
 30
0.0
 10
6.65
 20
-3.9
 30
0.0
 10
6.65
 20
-3.9
 30
0.0
 10
7.8
 20
-3.9
 30
0.0
 10
7.8
 20
-3.9
 30
0.0
 10
7.8
 20
-3.9
 30
0.0
 10
8.07614
 20
-3.9
 30
0.0
 10
8.3
 20
-4.12386
 30
0.0
 10
8.3
 20
-4.4
 30
0.0
 10
8.3
 20
-4.4
 30
0.0
 10
8.3
 20
-4.4
 30
0.0
 10
8.3
 20
-5.55
 30
0.0
 10
8.3
 20
-5.55
 30
0.0
 10
8.3
 20
-5.55
 30
0.0
 10
8.3
 20
-5.82614
 30
0.0
 10
8.07614
 20
-6.05
 30
0.0
 10
7.8
 20
-6.05
 30
0.0
 10
7.8
 20
-6.05
 30
0.0
 10
7.8
 20
-6.05
 30
0.0
 10
6.65
 20
-6.05
 30
0.0
 10
6.65
 20
-6.05
 30
0.0
 10
6.65
 20
-6.05
 30
0.0
 10
6.37386
 20
-6.05
 30
0.0
 10
6.15
 20
-5.82614
 30
0.0
 10
6.15
 20
-5.55
 30
0.0
  0
ELLIPSE
  5
77
330
1F
100
AcDbEntity
  8
Layer 1
370
    53
100
AcDbEllipse
 10
7.6
 20
-4.6
 30
0.0
 11
0.0
 21
0.3
 31
0.0
210
0.0
220
0.0
230
1.0
 40
1.0
 41
0.0
 42
6.283185307179586
  0
SPLINE
  5
78
330
1F
100
AcDbEntity
  8
Layer 1
 62
     3
370
    53
100
AcDbSpline
210
0.0
220
0.0
230
1.0
 70
    11
 71
     3
 72
    36
 73
    32
 74
     0
 42
0.0000000001
 43
0.0000000001
 12
1.0
 22
0.0
 32
0.0
 13
1.0
 23
0.0
 33
0.0
 40
0.0
 40
0.0
 40
0.0
 40
0.0
 40
0.1111111111111111
 40
0.1111111111111111
 40
0.1111111111111111
 40
0.1111111111111111
 40
0.2222222222222222
 40
0.2222222222222222
 40
0.2222222222222222
 40
0.2222222222222222
 40
0.3333333333333333
 40
0.3333333333333333
 40
0.3333333333333333
 40
0.3333333333333333
 40
0.4444444444444444
 40
0.4444444444444444
 40
0.4444444444444444
 40
0.4444444444444444
 40
0.5555555555555556
 40
0.5555555555555556
 40
0.5555555555555556
 40
0.5555555555555556
 40
0.6666666666666666
 40
0.6666666666666666
 40
0.6666666666666666
 40
0.6666666666666666
 40
0.7777777777777778
 40
0.7777777777777778
 40
0.7777777777777778
 40
0.7777777777777778
 40
1.0
 40
1.0
 40
1.0
 40
1.0
 10
3.85
 20
-5.55
 30
0.0
 10
3.85
 20
-5.55
 30
0.0
 10
3.85
 20
-4.4
 30
0.0
 10
3.85
 20
-4.4
 30
0.0
 10
3.85
 20
-4.4
 30
0.0
 10
3.85
 20
-4.12386
 30
0.0
 10
4.07386
 20
-3.9
 30
0.0
 10
4.35
 20
-3.9
 30
0.0
 10
4.35
 20
-3.9
 30
0.0
 10
4.35
 20
-3.9
 30
0.0
 10
5.5
 20
-3.9
 30
0.0
 10
5.5
 20
-3.9
 30
0.0
 10
5.5
 20
-3.9
 30
0.0
 10
5.77614
 20
-3.9
 30
0.0
 10
6.0
 20
-4.12386
 30
0.0
 10
6.0
 20
-4.4
 30
0.0
 10
6.0
 20
-4.4
 30
0.0
 10
6.0
 20
-4.4
 30
0.0
 10
6.0
 20
-5.55
 30
0.0
 10
6.0
 20
-5.55
 30
0.0
 10
6.0
 20
-5.55
 30
0.0
 10
6.0
 20
-5.82614
 30
0.0
 10
5.77614
 20
-6.05
 30
0.0
 10
5.5
 20
-6.05
 30
0.0
 10
5.5
 20
-6.05
 30
0.0
 10
5.5
 20
-6.05
 30
0.0
 10
4.35
 20
-6.05
 30
0.0
 10
4.35
 20
-6.05
 30
0.0
 10
4.35
 20
-6.05
 30
0.0
 10
4.07386
 20
-6.05
 30
0.0
 10
3.85
 20
-5.82614
 30
0.0
 10
3.85
 20
-5.55
 30
0.0
  0
ELLIPSE
  5
79
330
1F
100
AcDbEntity
  8
Layer 1
370
    53
100
AcDbEllipse
 10
5.3
 20
-4.6
 30
0.0
 11
0.0
 21
0.3
 31
0.0
210
0.0
220
0.0
230
1.0
 40
1.0
 41
0.0
 42
6.283185307179586
  0
SPLINE
  5
7A
330
1F
100
AcDbEntity
  8
Layer 1
 62
     3
370
    53
100
AcDbSpline
210
0.0
220
0.0
230
1.0
 70
    11
 71
     3
 72
    36
 73
    32
 74
     0
 42
0.0000000001
 43
0.0000000001
 12
1.0
 22
0.0
 32
0.0
 13
1.0
 23
0.0
 33
0.0
 40
0.0
 40
0.0
 40
0.0
 40
0.0
 40
0.1111111111111111
 40
0.1111111111111111
 40
0.1111111111111111
 40
0.1111111111111111
 40
0.2222222222222222
 40
0.2222222222222222
 40
0.2222222222222222
 40
0.2222222222222222
 40
0.3333333333333333
 40
0.3333333333333333
 40
0.3333333333333333
 40
0.3333333333333333
 40
0.4444444444444444
 40
0.4444444444444444
 40
0.4444444444444444
 40
0.4444444444444444
 40
0.5555555555555556
 40
0.5555555555555556
 40
0.5555555555555556
 40
0.5555555555555556
 40
0.6666666666666666
 40
0.6666666666666666
 40
0.6666666666666666
 40
0.6666666666666666
 40
0.7777777777777778
 40
0.7777777777777778
 40
0.7777777777777778
 40
0.7777777777777778
 40
1.0
 40
1.0
 40
1.0
 40
1.0
 10
1.55
 20
-5.55
 30
0.0
 10
1.55
 20
-5.55
 30
0.0
 10
1.55
 20
-4.4
 30
0.0
 10
1.55
 20
-4.4
 30
0.0
 10
1.55
 20
-4.4
 30
0.0
 10
1.55
 20
-4.12386
 30
0.0
 10
1.77386
 20
-3.9
 30
0.0
 10
2.05
 20
-3.9
 30
0.0
 10
2.05
 20
-3.9
 30
0.0
 10
2.05
 20
-3.9
 30
0.0
 10
3.2
 20
-3.9
 30
0.0
 10
3.2
 20
-3.9
 30
0.0
 10
3.2
 20
-3.9
 30
0.0
 10
3.47614
 20
-3.9
 30
0.0
 10
3.7
 20
-4.12386
 30
0.0
 10
3.7
 20
-4.4
 30
0.0
 10
3.7
 20
-4.4
 30
0.0
 10
3.7
 20
-4.4
 30
0.0
 10
3.7
 20
-5.55
 30
0.0
 10
3.7
 20
-5.55
 30
0.0
 10
3.7
 20
-5.55
 30
0.0
 10
3.7
 20
-5.82614
 30
0.0
 10
3.47614
 20
-6.05
 30
0.0
 10
3.2
 20
-6.05
 30
0.0
 10
3.2
 20
-6.05
 30
0.0
 10
3.2
 20
-6.05
 30
0.0
 10
2.05
 20
-6.05
 30
0.0
 10
2.05
 20
-6.05
 30
0.0
 10
2.05
 20
-6.05
 30
0.0
 10
1.77386
 20
-6.05
 30
0.0
 10
1.55
 20
-5.82614
 30
0.0
 10
1.55
 20
-5.55
 30
0.0
  0
ELLIPSE
  5
7B
330
1F
100
AcDbEntity
  8
Layer 1
370
    53
100
AcDbEllipse
 10
3.0
 20
-4.6
 30
0.0
 11
0.0
 21
0.3
 31
0.0
210
0.0
220
0.0
230
1.0
 40
1.0
 41
0.0
 42
6.283185307179586
  0
SPLINE
  5
7C
330
1F
100
AcDbEntity
  8
Layer 1
 62
     3
370
    53
100
AcDbSpline
210
0.0
220
0.0
230
1.0
 70
    11
 71
     3
 72
    36
 73
    32
 74
     0
 42
0.0000000001
 43
0.0000000001
 12
1.0
 22
0.0
 32
0.0
 13
1.0
 23
0.0
 33
0.0
 40
0.0
 40
0.0
 40
0.0
 40
0.0
 40
0.1111111111111111
 40
0.1111111111111111
 40
0.1111111111111111
 40
0.1111111111111111
 40
0.2222222222222222
 40
0.2222222222222222
 40
0.2222222222222222
 40
0.2222222222222222
 40
0.3333333333333333
 40
0.3333333333333333
 40
0.3333333333333333
 40
0.3333333333333333
 40
0.4444444444444444
 40
0.4444444444444444
 40
0.4444444444444444
 40
0.4444444444444444
 40
0.5555555555555556
 40
0.5555555555555556
 40
0.5555555555555556
 40
0.5555555555555556
 40
0.6666666666666666
 40
0.6666666666666666
 40
0.6666666666666666
 40
0.6666666666666666
 40
0.7777777777777778
 40
0.7777777777777778
 40
0.7777777777777778
 40
0.7777777777777778
 40
1.0
 40
1.0
 40
1.0
 40
1.0
 10
-0.75
 20
-5.55
 30
0.0
 10
-0.75
 20
-5.55
 30
0.0
 10
-0.75
 20
-4.4
 30
0.0
 10
-0.75
 20
-4.4
 30
0.0
 10
-0.75
 20
-4.4
 30
0.0
 10
-0.75
 20
-4.12386
 30
0.0
 10
-0.52614
 20
-3.9
 30
0.0
 10
-0.25
 20
-3.9
 30
0.0
 10
-0.25
 20
-3.9
 30
0.0
 10
-0.25
 20
-3.9
 30
0.0
 10
0.9
 20
-3.9
 30
0.0
 10
0.9
 20
-3.9
 30
0.0
 10
0.9
 20
-3.9
 30
0.0
 10
1.17614
 20
-3.9
 30
0.0
 10
1.4
 20
-4.12386
 30
0.0
 10
1.4
 20
-4.4
 30
0.0
 10
1.4
 20
-4.4
 30
0.0
 10
1.4
 20
-4.4
 30
0.0
 10
1.4
 20
-5.55
 30
0.0
 10
1.4
 20
-5.55
 30
0.0
 10
1.4
 20
-5.55
 30
0.0
 10
1.4
 20
-5.82614
 30
0.0
 10
1.17614
 20
-6.05
 30
0.0
 10
0.9
 20
-6.05
 30
0.0
 10
0.9
 20
-6.05
 30
0.0
 10
0.9
 20
-6.05
 30
0.0
 10
-0.25
 20
-6.05
 30
0.0
 10
-0.25
 20
-6.05
 30
0.0
 10
-0.25
 20
-6.05
 30
0.0
 10
-0.52614
 20
-6.05
 30
0.0
 10
-0.75
 20
-5.82614
 30
0.0
 10
-0.75
 20
-5.55
 30
0.0
  0
ELLIPSE
  5
7D
330
1F
100
AcDbEntity
  8
Layer 1
370
    53
100
AcDbEllipse
 10
0.7
 20
-4.6
 30
0.0
 11
0.0
 21
0.3
 31
0.0
210
0.0
220
0.0
230
1.0
 40
1.0
 41
0.0
 42
6.283185307179586
  0
SPLINE
  5
7E
330
1F
100
AcDbEntity
  8
Layer 1
 62
     3
370
    53
100
AcDbSpline
210
0.0
220
0.0
230
1.0
 70
    11
 71
     3
 72
    36
 73
    32
 74
     0
 42
0.0000000001
 43
0.0000000001
 12
1.0
 22
0.0
 32
0.0
 13
1.0
 23
0.0
 33
0.0
 40
0.0
 40
0.0
 40
0.0
 40
0.0
 40
0.1111111111111111
 40
0.1111111111111111
 40
0.1111111111111111
 40
0.1111111111111111
 40
0.2222222222222222
 40
0.2222222222222222
 40
0.2222222222222222
 40
0.2222222222222222
 40
0.3333333333333333
 40
0.3333333333333333
 40
0.3333333333333333
 40
0.3333333333333333
 40
0.4444444444444444
 40
0.4444444444444444
 40
0.4444444444444444
 40
0.4444444444444444
 40
0.5555555555555556
 40
0.5555555555555556
 40
0.5555555555555556
 40
0.5555555555555556
 40
0.6666666666666666
 40
0.6666666666666666
 40
0.6666666666666666
 40
0.6666666666666666
 40
0.7777777777777778
 40
0.7777777777777778
 40
0.7777777777777778
 40
0.7777777777777778
 40
1.0
 40
1.0
 40
1.0
 40
1.0
 10
-3.05
 20
-5.55
 30
0.0
 10
-3.05
 20
-5.55
 30
0.0
 10
-3.05
 20
-4.4
 30
0.0
 10
-3.05
 20
-4.4
 30
0.0
 10
-3.05
 20
-4.4
 30
0.0
 10
-3.05
 20
-4.12386
 30
0.0
 10
-2.82614
 20
-3.9
 30
0.0
 10
-2.55
 20
-3.9
 30
0.0
 10
-2.55
 20
-3.9
 30
0.0
 10
-2.55
 20
-3.9
 30
0.0
 10
-1.4
 20
-3.9
 30
0.0
 10
-1.4
 20
-3.9
 30
0.0
 10
-1.4
 20
-3.9
 30
0.0
 10
-1.12386
 20
-3.9
 30
0.0
 10
-0.9
 20
-4.12386
 30
0.0
 10
-0.9
 20
-4.4
 30
0.0
 10
-0.9
 20
-4.4
 30
0.0
 10
-0.9
 20
-4.4
 30
0.0
 10
-0.9
 20
-5.55
 30
0.0
 10
-0.9
 20
-5.55
 30
0.0
 10
-0.9
 20
-5.55
 30
0.0
 10
-0.9
 20
-5.82614
 30
0.0
 10
-1.12386
 20
-6.05
 30
0.0
 10
-1.4
 20
-6.05
 30
0.0
 10
-1.4
 20
-6.05
 30
0.0
 10
-1.4
 20
-6.05
 30
0.0
 10
-2.55
 20
-6.05
 30
0.0
 10
-2.55
 20
-6.05
 30
0.0
 10
-2.55
 20
-6.05
 30
0.0
 10
-2.82614
 20
-6.05
 30
0.0
 10
-3.05
 20
-5.82614
 30
0.0
 10
-3.05
 20
-5.55
 30
0.0
  0
ELLIPSE
  5
7F
330
1F
100
AcDbEntity
  8
Layer 1
370
    53
100
AcDbEllipse
 10
-1.6
 20
-4.6
 30
0.0
 11
0.0
 21
0.3
 31
0.0
210
0.0
220
0.0
230
1.0
 40
1.0
 41
0.0
 42
6.283185307179586
  0
SPLINE
  5
80
330
1F
100
AcDbEntity
  8
Layer 1
 62
     3
370
    53
100
AcDbSpline
210
0.0
220
0.0
230
1.0
 70
    11
 71
     3
 72
    36
 73
    32
 74
     0
 42
0.0000000001
 43
0.0000000001
 12
1.0
 22
0.0
 32
0.0
 13
1.0
 23
0.0
 33
0.0
 40
0.0
 40
0.0
 40
0.0
 40
0.0
 40
0.1111111111111111
 40
0.1111111111111111
 40
0.1111111111111111
 40
0.1111111111111111
 40
0.2222222222222222
 40
0.2222222222222222
 40
0.2222222222222222
 40
0.2222222222222222
 40
0.3333333333333333
 40
0.3333333333333333
 40
0.3333333333333333
 40
0.3333333333333333
 40
0.4444444444444444
 40
0.4444444444444444
 40
0.4444444444444444
 40
0.4444444444444444
 40
0.5555555555555556
 40
0.5555555555555556
 40
0.5555555555555556
 40
0.5555555555555556
 40
0.6666666666666666
 40
0.6666666666666666
 40
0.6666666666666666
 40
0.6666666666666666
 40
0.7777777777777778
 40
0.7777777777777778
 40
0.7777777777777778
 40
0.7777777777777778
 40
1.0
 40
1.0
 40
1.0
 40
1.0
 10
-5.35
 20
-5.55
 30
0.0
 10
-5.35
 20
-5.55
 30
0.0
 10
-5.35
 20
-4.4
 30
0.0
 10
-5.35
 20
-4.4
 30
0.0
 10
-5.35
 20
-4.4
 30
0.0
 10
-5.35
 20
-4.12386
 30
0.0
 10
-5.12614
 20
-3.9
 30
0.0
 10
-4.85
 20
-3.9
 30
0.0
 10
-4.85
 20
-3.9
 30
0.0
 10
-4.85
 20
-3.9
 30
0.0
 10
-3.7
 20
-3.9
 30
0.0
 10
-3.7
 20
-3.9
 30
0.0
 10
-3.7
 20
-3.9
 30
0.0
 10
-3.42386
 20
-3.9
 30
0.0
 10
-3.2
 20
-4.12386
 30
0.0
 10
-3.2
 20
-4.4
 30
0.0
 10
-3.2
 20
-4.4
 30
0.0
 10
-3.2
 20
-4.4
 30
0.0
 10
-3.2
 20
-5.55
 30
0.0
 10
-3.2
 20
-5.55
 30
0.0
 10
-3.2
 20
-5.55
 30
0.0
 10
-3.2
 20
-5.82614
 30
0.0
 10
-3.42386
 20
-6.05
 30
0.0
 10
-3.7
 20
-6.05
 30
0.0
 10
-3.7
 20
-6.05
 30
0.0
 10
-3.7
 20
-6.05
 30
0.0
 10
-4.85
 20
-6.05
 30
0.0
 10
-4.85
 20
-6.05
 30
0.0
 10
-4.85
 20
-6.05
 30
0.0
 10
-5.12614
 20
-6.05
 30
0.0
 10
-5.35
 20
-5.82614
 30
0.0
 10
-5.35
 20
-5.55
 30
0.0
  0
ELLIPSE
  5
81
330
1F
100
AcDbEntity
  8
Layer 1
370
    53
100
AcDbEllipse
 10
-3.9
 20
-4.6
 30
0.0
 11
0.0
 21
0.3
 31
0.0
210
0.0
220
0.0
230
1.0
 40
1.0
 41
0.0
 42
6.283185307179586
  0
SPLINE
  5
82
330
1F
100
AcDbEntity
  8
Layer 1
 62
     3
370
    53
100
AcDbSpline
210
0.0
220
0.0
230
1.0
 70
    11
 71
     3
 72
    36
 73
    32
 74
     0
 42
0.0000000001
 43
0.0000000001
 12
1.0
 22
0.0
 32
0.0
 13
1.0
 23
0.0
 33
0.0
 40
0.0
 40
0.0
 40
0.0
 40
0.0
 40
0.1111111111111111
 40
0.1111111111111111
 40
0.1111111111111111
 40
0.1111111111111111
 40
0.2222222222222222
 40
0.2222222222222222
 40
0.2222222222222222
 40
0.2222222222222222
 40
0.3333333333333333
 40
0.3333333333333333
 40
0.3333333333333333
 40
0.3333333333333333
 40
0.4444444444444444
 40
0.4444444444444444
 40
0.4444444444444444
 40
0.4444444444444444
 40
0.5555555555555556
 40
0.5555555555555556
 40
0.5555555555555556
 40
0.5555555555555556
 40
0.6666666666666666
 40
0.6666666666666666
 40
0.6666666666666666
 40
0.6666666666666666
 40
0.7777777777777778
 40
0.7777777777777778
 40
0.7777777777777778
 40
0.7777777777777778
 40
1.0
 40
1.0
 40
1.0
 40
1.0
 10
-7.65
 20
-5.55
 30
0.0
 10
-7.65
 20
-5.55
 30
0.0
 10
-7.65
 20
-4.4
 30
0.0
 10
-7.65
 20
-4.4
 30
0.0
 10
-7.65
 20
-4.4
 30
0.0
 10
-7.65
 20
-4.12386
 30
0.0
 10
-7.42614
 20
-3.9
 30
0.0
 10
-7.15
 20
-3.9
 30
0.0
 10
-7.15
 20
-3.9
 30
0.0
 10
-7.15
 20
-3.9
 30
0.0
 10
-6.0
 20
-3.9
 30
0.0
 10
-6.0
 20
-3.9
 30
0.0
 10
-6.0
 20
-3.9
 30
0.0
 10
-5.72386
 20
-3.9
 30
0.0
 10
-5.5
 20
-4.12386
 30
0.0
 10
-5.5
 20
-4.4
 30
0.0
 10
-5.5
 20
-4.4
 30
0.0
 10
-5.5
 20
-4.4
 30
0.0
 10
-5.5
 20
-5.55
 30
0.0
 10
-5.5
 20
-5.55
 30
0.0
 10
-5.5
 20
-5.55
 30
0.0
 10
-5.5
 20
-5.82614
 30
0.0
 10
-5.72386
 20
-6.05
 30
0.0
 10
-6.0
 20
-6.05
 30
0.0
 10
-6.0
 20
-6.05
 30
0.0
 10
-6.0
 20
-6.05
 30
0.0
 10
-7.15
 20
-6.05
 30
0.0
 10
-7.15
 20
-6.05
 30
0.0
 10
-7.15
 20
-6.05
 30
0.0
 10
-7.42614
 20
-6.05
 30
0.0
 10
-7.65
 20
-5.82614
 30
0.0
 10
-7.65
 20
-5.55
 30
0.0
  0
ELLIPSE
  5
83
330
1F
100
AcDbEntity
  8
Layer 1
370
    53
100
AcDbEllipse
 10
-6.2
 20
-4.6
 30
0.0
 11
0.0
 21
0.3
 31
0.0
210
0.0
220
0.0
230
1.0
 40
1.0
 41
0.0
 42
6.283185307179586
  0
SPLINE
  5
84
330
1F
100
AcDbEntity
  8
Layer 1
 62
     3
370
    53
100
AcDbSpline
210
0.0
220
0.0
230
1.0
 70
    11
 71
     3
 72
    36
 73
    32
 74
     0
 42
0.0000000001
 43
0.0000000001
 12
1.0
 22
0.0
 32
0.0
 13
1.0
 23
0.0
 33
0.0
 40
0.0
 40
0.0
 40
0.0
 40
0.0
 40
0.1111111111111111
 40
0.1111111111111111
 40
0.1111111111111111
 40
0.1111111111111111
 40
0.2222222222222222
 40
0.2222222222222222
 40
0.2222222222222222
 40
0.2222222222222222
 40
0.3333333333333333
 40
0.3333333333333333
 40
0.3333333333333333
 40
0.3333333333333333
 40
0.4444444444444444
 40
0.4444444444444444
 40
0.4444444444444444
 40
0.4444444444444444
 40
0.5555555555555556
 40
0.5555555555555556
 40
0.5555555555555556
 40
0.5555555555555556
 40
0.6666666666666666
 40
0.6666666666666666
 40
0.6666666666666666
 40
0.6666666666666666
 40
0.7777777777777778
 40
0.7777777777777778
 40
0.7777777777777778
 40
0.7777777777777778
 40
1.0
 40
1.0
 40
1.0
 40
1.0
 10
-9.95
 20
-5.55
 30
0.0
 10
-9.95
 20
-5.55
 30
0.0
 10
-9.95
 20
-4.4
 30
0.0
 10
-9.95
 20
-4.4
 30
0.0
 10
-9.95
 20
-4.4
 30
0.0
 10
-9.95
 20
-4.12386
 30
0.0
 10
-9.72614
 20
-3.9
 30
0.0
 10
-9.45
 20
-3.9
 30
0.0
 10
-9.45
 20
-3.9
 30
0.0
 10
-9.45
 20
-3.9
 30
0.0
 10
-8.3
 20
-3.9
 30
0.0
 10
-8.3
 20
-3.9
 30
0.0
 10
-8.3
 20
-3.9
 30
0.0
 10
-8.02386
 20
-3.9
 30
0.0
 10
-7.8
 20
-4.12386
 30
0.0
 10
-7.8
 20
-4.4
 30
0.0
 10
-7.8
 20
-4.4
 30
0.0
 10
-7.8
 20
-4.4
 30
0.0
 10
-7.8
 20
-5.55
 30
0.0
 10
-7.8
 20
-5.55
 30
0.0
 10
-7.8
 20
-5.55
 30
0.0
 10
-7.8
 20
-5.82614
 30
0.0
 10
-8.02386
 20
-6.05
 30
0.0
 10
-8.3
 20
-6.05
 30
0.0
 10
-8.3
 20
-6.05
 30
0.0
 10
-8.3
 20
-6.05
 30
0.0
 10
-9.45
 20
-6.05
 30
0.0
 10
-9.45
 20
-6.05
 30
0.0
 10
-9.45
 20
-6.05
 30
0.0
 10
-9.72614
 20
-6.05
 30
0.0
 10
-9.95
 20
-5.82614
 30
0.0
 10
-9.95
 20
-5.55
 30
0.0
  0
ELLIPSE
  5
85
330
1F
100
AcDbEntity
  8
Layer 1
370
    53
100
AcDbEllipse
 10
-8.5
 20
-4.6
 30
0.0
 11
0.0
 21
0.3
 31
0.0
210
0.0
220
0.0
230
1.0
 40
1.0
 41
0.0
 42
6.283185307179586
  0
SPLINE
  5
86
330
1F
100
AcDbEntity
  8
Layer 1
 62
     3
370
    53
100
AcDbSpline
210
0.0
220
0.0
230
1.0
 70
    11
 71
     3
 72
    36
 73
    32
 74
     0
 42
0.0000000001
 43
0.0000000001
 12
1.0
 22
0.0
 32
0.0
 13
1.0
 23
0.0
 33
0.0
 40
0.0
 40
0.0
 40
0.0
 40
0.0
 40
0.1111111111111111
 40
0.1111111111111111
 40
0.1111111111111111
 40
0.1111111111111111
 40
0.2222222222222222
 40
0.2222222222222222
 40
0.2222222222222222
 40
0.2222222222222222
 40
0.3333333333333333
 40
0.3333333333333333
 40
0.3333333333333333
 40
0.3333333333333333
 40
0.4444444444444444
 40
0.4444444444444444
 40
0.4444444444444444
 40
0.4444444444444444
 40
0.5555555555555556
 40
0.5555555555555556
 40
0.5555555555555556
 40
0.5555555555555556
 40
0.6666666666666666
 40
0.6666666666666666
 40
0.6666666666666666
 40
0.6666666666666666
 40
0.7777777777777778
 40
0.7777777777777778
 40
0.7777777777777778
 40
0.7777777777777778
 40
1.0
 40
1.0
 40
1.0
 40
1.0
 10
-12.25
 20
-5.55
 30
0.0
 10
-12.25
 20
-5.55
 30
0.0
 10
-12.25
 20
-4.4
 30
0.0
 10
-12.25
 20
-4.4
 30
0.0
 10
-12.25
 20
-4.4
 30
0.0
 10
-12.25
 20
-4.12386
 30
0.0
 10
-12.02614
 20
-3.9
 30
0.0
 10
-11.75
 20
-3.9
 30
0.0
 10
-11.75
 20
-3.9
 30
0.0
 10
-11.75
 20
-3.9
 30
0.0
 10
-10.6
 20
-3.9
 30
0.0
 10
-10.6
 20
-3.9
 30
0.0
 10
-10.6
 20
-3.9
 30
0.0
 10
-10.32386
 20
-3.9
 30
0.0
 10
-10.1
 20
-4.12386
 30
0.0
 10
-10.1
 20
-4.4
 30
0.0
 10
-10.1
 20
-4.4
 30
0.0
 10
-10.1
 20
-4.4
 30
0.0
 10
-10.1
 20
-5.55
 30
0.0
 10
-10.1
 20
-5.55
 30
0.0
 10
-10.1
 20
-5.55
 30
0.0
 10
-10.1
 20
-5.82614
 30
0.0
 10
-10.32386
 20
-6.05
 30
0.0
 10
-10.6
 20
-6.05
 30
0.0
 10
-10.6
 20
-6.05
 30
0.0
 10
-10.6
 20
-6.05
 30
0.0
 10
-11.75
 20
-6.05
 30
0.0
 10
-11.75
 20
-6.05
 30
0.0
 10
-11.75
 20
-6.05
 30
0.0
 10
-12.02614
 20
-6.05
 30
0.0
 10
-12.25
 20
-5.82614
 30
0.0
 10
-12.25
 20
-5.55
 30
0.0
  0
ELLIPSE
  5
87
330
1F
100
AcDbEntity
  8
Layer 1
370
    53
100
AcDbEllipse
 10
-10.8
 20
-4.6
 30
0.0
 11
0.0
 21
0.3
 31
0.0
210
0.0
220
0.0
230
1.0
 40
1.0
 41
0.0
 42
6.283185307179586
  0
SPLINE
  5
88
330
1F
100
AcDbEntity
  8
Layer 1
 62
     3
370
    53
100
AcDbSpline
210
0.0
220
0.0
230
1.0
 70
    11
 71
     3
 72
    36
 73
    32
 74
     0
 42
0.0000000001
 43
0.0000000001
 12
1.0
 22
0.0
 32
0.0
 13
1.0
 23
0.0
 33
0.0
 40
0.0
 40
0.0
 40
0.0
 40
0.0
 40
0.1111111111111111
 40
0.1111111111111111
 40
0.1111111111111111
 40
0.1111111111111111
 40
0.2222222222222222
 40
0.2222222222222222
 40
0.2222222222222222
 40
0.2222222222222222
 40
0.3333333333333333
 40
0.3333333333333333
 40
0.3333333333333333
 40
0.3333333333333333
 40
0.4444444444444444
 40
0.4444444444444444
 40
0.4444444444444444
 40
0.4444444444444444
 40
0.5555555555555556
 40
0.5555555555555556
 40
0.5555555555555556
 40
0.5555555555555556
 40
0.6666666666666666
 40
0.6666666666666666
 40
0.6666666666666666
 40
0.6666666666666666
 40
0.7777777777777778
 40
0.7777777777777778
 40
0.7777777777777778
 40
0.7777777777777778
 40
1.0
 40
1.0
 40
1.0
 40
1.0
 10
10.75
 20
-7.85
 30
0.0
 10
10.75
 20
-7.85
 30
0.0
 10
10.75
 20
-6.7
 30
0.0
 10
10.75
 20
-6.7
 30
0.0
 10
10.75
 20
-6.7
 30
0.0
 10
10.75
 20
-6.42386
 30
0.0
 10
10.97386
 20
-6.2
 30
0.0
 10
11.25
 20
-6.2
 30
0.0
 10
11.25
 20
-6.2
 30
0.0
 10
11.25
 20
-6.2
 30
0.0
 10
12.4
 20
-6.2
 30
0.0
 10
12.4
 20
-6.2
 30
0.0
 10
12.4
 20
-6.2
 30
0.0
 10
12.67614
 20
-6.2
 30
0.0
 10
12.9
 20
-6.42386
 30
0.0
 10
12.9
 20
-6.7
 30
0.0
 10
12.9
 20
-6.7
 30
0.0
 10
12.9
 20
-6.7
 30
0.0
 10
12.9
 20
-7.85
 30
0.0
 10
12.9
 20
-7.85
 30
0.0
 10
12.9
 20
-7.85
 30
0.0
 10
12.9
 20
-8.12614
 30
0.0
 10
12.67614
 20
-8.35
 30
0.0
 10
12.4
 20
-8.35
 30
0.0
 10
12.4
 20
-8.35
 30
0.0
 10
12.4
 20
-8.35
 30
0.0
 10
11.25
 20
-8.35
 30
0.0
 10
11.25
 20
-8.35
 30
0.0
 10
11.25
 20
-8.35
 30
0.0
 10
10.97386
 20
-8.35
 30
0.0
 10
10.75
 20
-8.12614
 30
0.0
 10
10.75
 20
-7.85
 30
0.0
  0
ELLIPSE
  5
89
330
1F
100
AcDbEntity
  8
Layer 1
370
    53
100
AcDbEllipse
 10
12.2
 20
-6.9
 30
0.0
 11
0.0
 21
0.3
 31
0.0
210
0.0
220
0.0
230
1.0
 40
1.0
 41
0.0
 42
6.283185307179586
  0
SPLINE
  5
8A
330
1F
100
AcDbEntity
  8
Layer 1
 62
     3
370
    53
100
AcDbSpline
210
0.0
220
0.0
230
1.0
 70
    11
 71
     3
 72
    36
 73
    32
 74
     0
 42
0.0000000001
 43
0.0000000001
 12
1.0
 22
0.0
 32
0.0
 13
1.0
 23
0.0
 33
0.0
 40
0.0
 40
0.0
 40
0.0
 40
0.0
 40
0.1111111111111111
 40
0.1111111111111111
 40
0.1111111111111111
 40
0.1111111111111111
 40
0.2222222222222222
 40
0.2222222222222222
 40
0.2222222222222222
 40
0.2222222222222222
 40
0.3333333333333333
 40
0.3333333333333333
 40
0.3333333333333333
 40
0.3333333333333333
 40
0.4444444444444444
 40
0.4444444444444444
 40
0.4444444444444444
 40
0.4444444444444444
 40
0.5555555555555556
 40
0.5555555555555556
 40
0.5555555555555556
 40
0.5555555555555556
 40
0.6666666666666666
 40
0.6666666666666666
 40
0.6666666666666666
 40
0.6666666666666666
 40
0.7777777777777778
 40
0.7777777777777778
 40
0.7777777777777778
 40
0.7777777777777778
 40
1.0
 40
1.0
 40
1.0
 40
1.0
 10
8.45
 20
-7.85
 30
0.0
 10
8.45
 20
-7.85
 30
0.0
 10
8.45
 20
-6.7
 30
0.0
 10
8.45
 20
-6.7
 30
0.0
 10
8.45
 20
-6.7
 30
0.0
 10
8.45
 20
-6.42386
 30
0.0
 10
8.67386
 20
-6.2
 30
0.0
 10
8.95
 20
-6.2
 30
0.0
 10
8.95
 20
-6.2
 30
0.0
 10
8.95
 20
-6.2
 30
0.0
 10
10.1
 20
-6.2
 30
0.0
 10
10.1
 20
-6.2
 30
0.0
 10
10.1
 20
-6.2
 30
0.0
 10
10.37614
 20
-6.2
 30
0.0
 10
10.6
 20
-6.42386
 30
0.0
 10
10.6
 20
-6.7
 30
0.0
 10
10.6
 20
-6.7
 30
0.0
 10
10.6
 20
-6.7
 30
0.0
 10
10.6
 20
-7.85
 30
0.0
 10
10.6
 20
-7.85
 30
0.0
 10
10.6
 20
-7.85
 30
0.0
 10
10.6
 20
-8.12614
 30
0.0
 10
10.37614
 20
-8.35
 30
0.0
 10
10.1
 20
-8.35
 30
0.0
 10
10.1
 20
-8.35
 30
0.0
 10
10.1
 20
-8.35
 30
0.0
 10
8.95
 20
-8.35
 30
0.0
 10
8.95
 20
-8.35
 30
0.0
 10
8.95
 20
-8.35
 30
0.0
 10
8.67386
 20
-8.35
 30
0.0
 10
8.45
 20
-8.12614
 30
0.0
 10
8.45
 20
-7.85
 30
0.0
  0
ELLIPSE
  5
8B
330
1F
100
AcDbEntity
  8
Layer 1
370
    53
100
AcDbEllipse
 10
9.9
 20
-6.9
 30
0.0
 11
0.0
 21
0.3
 31
0.0
210
0.0
220
0.0
230
1.0
 40
1.0
 41
0.0
 42
6.283185307179586
  0
SPLINE
  5
8C
330
1F
100
AcDbEntity
  8
Layer 1
 62
     3
370
    53
100
AcDbSpline
210
0.0
220
0.0
230
1.0
 70
    11
 71
     3
 72
    36
 73
    32
 74
     0
 42
0.0000000001
 43
0.0000000001
 12
1.0
 22
0.0
 32
0.0
 13
1.0
 23
0.0
 33
0.0
 40
0.0
 40
0.0
 40
0.0
 40
0.0
 40
0.1111111111111111
 40
0.1111111111111111
 40
0.1111111111111111
 40
0.1111111111111111
 40
0.2222222222222222
 40
0.2222222222222222
 40
0.2222222222222222
 40
0.2222222222222222
 40
0.3333333333333333
 40
0.3333333333333333
 40
0.3333333333333333
 40
0.3333333333333333
 40
0.4444444444444444
 40
0.4444444444444444
 40
0.4444444444444444
 40
0.4444444444444444
 40
0.5555555555555556
 40
0.5555555555555556
 40
0.5555555555555556
 40
0.5555555555555556
 40
0.6666666666666666
 40
0.6666666666666666
 40
0.6666666666666666
 40
0.6666666666666666
 40
0.7777777777777778
 40
0.7777777777777778
 40
0.7777777777777778
 40
0.7777777777777778
 40
1.0
 40
1.0
 40
1.0
 40
1.0
 10
6.15
 20
-7.85
 30
0.0
 10
6.15
 20
-7.85
 30
0.0
 10
6.15
 20
-6.7
 30
0.0
 10
6.15
 20
-6.7
 30
0.0
 10
6.15
 20
-6.7
 30
0.0
 10
6.15
 20
-6.42386
 30
0.0
 10
6.37386
 20
-6.2
 30
0.0
 10
6.65
 20
-6.2
 30
0.0
 10
6.65
 20
-6.2
 30
0.0
 10
6.65
 20
-6.2
 30
0.0
 10
7.8
 20
-6.2
 30
0.0
 10
7.8
 20
-6.2
 30
0.0
 10
7.8
 20
-6.2
 30
0.0
 10
8.07614
 20
-6.2
 30
0.0
 10
8.3
 20
-6.42386
 30
0.0
 10
8.3
 20
-6.7
 30
0.0
 10
8.3
 20
-6.7
 30
0.0
 10
8.3
 20
-6.7
 30
0.0
 10
8.3
 20
-7.85
 30
0.0
 10
8.3
 20
-7.85
 30
0.0
 10
8.3
 20
-7.85
 30
0.0
 10
8.3
 20
-8.12614
 30
0.0
 10
8.07614
 20
-8.35
 30
0.0
 10
7.8
 20
-8.35
 30
0.0
 10
7.8
 20
-8.35
 30
0.0
 10
7.8
 20
-8.35
 30
0.0
 10
6.65
 20
-8.35
 30
0.0
 10
6.65
 20
-8.35
 30
0.0
 10
6.65
 20
-8.35
 30
0.0
 10
6.37386
 20
-8.35
 30
0.0
 10
6.15
 20
-8.12614
 30
0.0
 10
6.15
 20
-7.85
 30
0.0
  0
ELLIPSE
  5
8D
330
1F
100
AcDbEntity
  8
Layer 1
370
    53
100
AcDbEllipse
 10
7.6
 20
-6.9
 30
0.0
 11
0.0
 21
0.3
 31
0.0
210
0.0
220
0.0
230
1.0
 40
1.0
 41
0.0
 42
6.283185307179586
  0
SPLINE
  5
8E
330
1F
100
AcDbEntity
  8
Layer 1
 62
     3
370
    53
100
AcDbSpline
210
0.0
220
0.0
230
1.0
 70
    11
 71
     3
 72
    36
 73
    32
 74
     0
 42
0.0000000001
 43
0.0000000001
 12
1.0
 22
0.0
 32
0.0
 13
1.0
 23
0.0
 33
0.0
 40
0.0
 40
0.0
 40
0.0
 40
0.0
 40
0.1111111111111111
 40
0.1111111111111111
 40
0.1111111111111111
 40
0.1111111111111111
 40
0.2222222222222222
 40
0.2222222222222222
 40
0.2222222222222222
 40
0.2222222222222222
 40
0.3333333333333333
 40
0.3333333333333333
 40
0.3333333333333333
 40
0.3333333333333333
 40
0.4444444444444444
 40
0.4444444444444444
 40
0.4444444444444444
 40
0.4444444444444444
 40
0.5555555555555556
 40
0.5555555555555556
 40
0.5555555555555556
 40
0.5555555555555556
 40
0.6666666666666666
 40
0.6666666666666666
 40
0.6666666666666666
 40
0.6666666666666666
 40
0.7777777777777778
 40
0.7777777777777778
 40
0.7777777777777778
 40
0.7777777777777778
 40
1.0
 40
1.0
 40
1.0
 40
1.0
 10
3.85
 20
-7.85
 30
0.0
 10
3.85
 20
-7.85
 30
0.0
 10
3.85
 20
-6.7
 30
0.0
 10
3.85
 20
-6.7
 30
0.0
 10
3.85
 20
-6.7
 30
0.0
 10
3.85
 20
-6.42386
 30
0.0
 10
4.07386
 20
-6.2
 30
0.0
 10
4.35
 20
-6.2
 30
0.0
 10
4.35
 20
-6.2
 30
0.0
 10
4.35
 20
-6.2
 30
0.0
 10
5.5
 20
-6.2
 30
0.0
 10
5.5
 20
-6.2
 30
0.0
 10
5.5
 20
-6.2
 30
0.0
 10
5.77614
 20
-6.2
 30
0.0
 10
6.0
 20
-6.42386
 30
0.0
 10
6.0
 20
-6.7
 30
0.0
 10
6.0
 20
-6.7
 30
0.0
 10
6.0
 20
-6.7
 30
0.0
 10
6.0
 20
-7.85
 30
0.0
 10
6.0
 20
-7.85
 30
0.0
 10
6.0
 20
-7.85
 30
0.0
 10
6.0
 20
-8.12614
 30
0.0
 10
5.77614
 20
-8.35
 30
0.0
 10
5.5
 20
-8.35
 30
0.0
 10
5.5
 20
-8.35
 30
0.0
 10
5.5
 20
-8.35
 30
0.0
 10
4.35
 20
-8.35
 30
0.0
 10
4.35
 20
-8.35
 30
0.0
 10
4.35
 20
-8.35
 30
0.0
 10
4.07386
 20
-8.35
 30
0.0
 10
3.85
 20
-8.12614
 30
0.0
 10
3.85
 20
-7.85
 30
0.0
  0
ELLIPSE
  5
8F
330
1F
100
AcDbEntity
  8
Layer 1
370
    53
100
AcDbEllipse
 10
5.3
 20
-6.9
 30
0.0
 11
0.0
 21
0.3
 31
0.0
210
0.0
220
0.0
230
1.0
 40
1.0
 41
0.0
 42
6.283185307179586
  0
SPLINE
  5
90
330
1F
100
AcDbEntity
  8
Layer 1
 62
     3
370
    53
100
AcDbSpline
210
0.0
220
0.0
230
1.0
 70
    11
 71
     3
 72
    36
 73
    32
 74
     0
 42
0.0000000001
 43
0.0000000001
 12
1.0
 22
0.0
 32
0.0
 13
1.0
 23
0.0
 33
0.0
 40
0.0
 40
0.0
 40
0.0
 40
0.0
 40
0.1111111111111111
 40
0.1111111111111111
 40
0.1111111111111111
 40
0.1111111111111111
 40
0.2222222222222222
 40
0.2222222222222222
 40
0.2222222222222222
 40
0.2222222222222222
 40
0.3333333333333333
 40
0.3333333333333333
 40
0.3333333333333333
 40
0.3333333333333333
 40
0.4444444444444444
 40
0.4444444444444444
 40
0.4444444444444444
 40
0.4444444444444444
 40
0.5555555555555556
 40
0.5555555555555556
 40
0.5555555555555556
 40
0.5555555555555556
 40
0.6666666666666666
 40
0.6666666666666666
 40
0.6666666666666666
 40
0.6666666666666666
 40
0.7777777777777778
 40
0.7777777777777778
 40
0.7777777777777778
 40
0.7777777777777778
 40
1.0
 40
1.0
 40
1.0
 40
1.0
 10
1.55
 20
-7.85
 30
0.0
 10
1.55
 20
-7.85
 30
0.0
 10
1.55
 20
-6.7
 30
0.0
 10
1.55
 20
-6.7
 30
0.0
 10
1.55
 20
-6.7
 30
0.0
 10
1.55
 20
-6.42386
 30
0.0
 10
1.77386
 20
-6.2
 30
0.0
 10
2.05
 20
-6.2
 30
0.0
 10
2.05
 20
-6.2
 30
0.0
 10
2.05
 20
-6.2
 30
0.0
 10
3.2
 20
-6.2
 30
0.0
 10
3.2
 20
-6.2
 30
0.0
 10
3.2
 20
-6.2
 30
0.0
 10
3.47614
 20
-6.2
 30
0.0
 10
3.7
 20
-6.42386
 30
0.0
 10
3.7
 20
-6.7
 30
0.0
 10
3.7
 20
-6.7
 30
0.0
 10
3.7
 20
-6.7
 30
0.0
 10
3.7
 20
-7.85
 30
0.0
 10
3.7
 20
-7.85
 30
0.0
 10
3.7
 20
-7.85
 30
0.0
 10
3.7
 20
-8.12614
 30
0.0
 10
3.47614
 20
-8.35
 30
0.0
 10
3.2
 20
-8.35
 30
0.0
 10
3.2
 20
-8.35
 30
0.0
 10
3.2
 20
-8.35
 30
0.0
 10
2.05
 20
-8.35
 30
0.0
 10
2.05
 20
-8.35
 30
0.0
 10
2.05
 20
-8.35
 30
0.0
 10
1.77386
 20
-8.35
 30
0.0
 10
1.55
 20
-8.12614
 30
0.0
 10
1.55
 20
-7.85
 30
0.0
  0
ELLIPSE
  5
91
330
1F
100
AcDbEntity
  8
Layer 1
370
    53
100
AcDbEllipse
 10
3.0
 20
-6.9
 30
0.0
 11
0.0
 21
0.3
 31
0.0
210
0.0
220
0.0
230
1.0
 40
1.0
 41
0.0
 42
6.283185307179586
  0
SPLINE
  5
92
330
1F
100
AcDbEntity
  8
Layer 1
 62
     3
370
    53
100
AcDbSpline
210
0.0
220
0.0
230
1.0
 70
    11
 71
     3
 72
    36
 73
    32
 74
     0
 42
0.0000000001
 43
0.0000000001
 12
1.0
 22
0.0
 32
0.0
 13
1.0
 23
0.0
 33
0.0
 40
0.0
 40
0.0
 40
0.0
 40
0.0
 40
0.1111111111111111
 40
0.1111111111111111
 40
0.1111111111111111
 40
0.1111111111111111
 40
0.2222222222222222
 40
0.2222222222222222
 40
0.2222222222222222
 40
0.2222222222222222
 40
0.3333333333333333
 40
0.3333333333333333
 40
0.3333333333333333
 40
0.3333333333333333
 40
0.4444444444444444
 40
0.4444444444444444
 40
0.4444444444444444
 40
0.4444444444444444
 40
0.5555555555555556
 40
0.5555555555555556
 40
0.5555555555555556
 40
0.5555555555555556
 40
0.6666666666666666
 40
0.6666666666666666
 40
0.6666666666666666
 40
0.6666666666666666
 40
0.7777777777777778
 40
0.7777777777777778
 40
0.7777777777777778
 40
0.7777777777777778
 40
1.0
 40
1.0
 40
1.0
 40
1.0
 10
-0.75
 20
-7.85
 30
0.0
 10
-0.75
 20
-7.85
 30
0.0
 10
-0.75
 20
-6.7
 30
0.0
 10
-0.75
 20
-6.7
 30
0.0
 10
-0.75
 20
-6.7
 30
0.0
 10
-0.75
 20
-6.42386
 30
0.0
 10
-0.52614
 20
-6.2
 30
0.0
 10
-0.25
 20
-6.2
 30
0.0
 10
-0.25
 20
-6.2
 30
0.0
 10
-0.25
 20
-6.2
 30
0.0
 10
0.9
 20
-6.2
 30
0.0
 10
0.9
 20
-6.2
 30
0.0
 10
0.9
 20
-6.2
 30
0.0
 10
1.17614
 20
-6.2
 30
0.0
 10
1.4
 20
-6.42386
 30
0.0
 10
1.4
 20
-6.7
 30
0.0
 10
1.4
 20
-6.7
 30
0.0
 10
1.4
 20
-6.7
 30
0.0
 10
1.4
 20
-7.85
 30
0.0
 10
1.4
 20
-7.85
 30
0.0
 10
1.4
 20
-7.85
 30
0.0
 10
1.4
 20
-8.12614
 30
0.0
 10
1.17614
 20
-8.35
 30
0.0
 10
0.9
 20
-8.35
 30
0.0
 10
0.9
 20
-8.35
 30
0.0
 10
0.9
 20
-8.35
 30
0.0
 10
-0.25
 20
-8.35
 30
0.0
 10
-0.25
 20
-8.35
 30
0.0
 10
-0.25
 20
-8.35
 30
0.0
 10
-0.52614
 20
-8.35
 30
0.0
 10
-0.75
 20
-8.12614
 30
0.0
 10
-0.75
 20
-7.85
 30
0.0
  0
ELLIPSE
  5
93
330
1F
100
AcDbEntity
  8
Layer 1
370
    53
100
AcDbEllipse
 10
0.7
 20
-6.9
 30
0.0
 11
0.0
 21
0.3
 31
0.0
210
0.0
220
0.0
230
1.0
 40
1.0
 41
0.0
 42
6.283185307179586
  0
SPLINE
  5
94
330
1F
100
AcDbEntity
  8
Layer 1
 62
     3
370
    53
100
AcDbSpline
210
0.0
220
0.0
230
1.0
 70
    11
 71
     3
 72
    36
 73
    32
 74
     0
 42
0.0000000001
 43
0.0000000001
 12
1.0
 22
0.0
 32
0.0
 13
1.0
 23
0.0
 33
0.0
 40
0.0
 40
0.0
 40
0.0
 40
0.0
 40
0.1111111111111111
 40
0.1111111111111111
 40
0.1111111111111111
 40
0.1111111111111111
 40
0.2222222222222222
 40
0.2222222222222222
 40
0.2222222222222222
 40
0.2222222222222222
 40
0.3333333333333333
 40
0.3333333333333333
 40
0.3333333333333333
 40
0.3333333333333333
 40
0.4444444444444444
 40
0.4444444444444444
 40
0.4444444444444444
 40
0.4444444444444444
 40
0.5555555555555556
 40
0.5555555555555556
 40
0.5555555555555556
 40
0.5555555555555556
 40
0.6666666666666666
 40
0.6666666666666666
 40
0.6666666666666666
 40
0.6666666666666666
 40
0.7777777777777778
 40
0.7777777777777778
 40
0.7777777777777778
 40
0.7777777777777778
 40
1.0
 40
1.0
 40
1.0
 40
1.0
 10
-3.05
 20
-7.85
 30
0.0
 10
-3.05
 20
-7.85
 30
0.0
 10
-3.05
 20
-6.7
 30
0.0
 10
-3.05
 20
-6.7
 30
0.0
 10
-3.05
 20
-6.7
 30
0.0
 10
-3.05
 20
-6.42386
 30
0.0
 10
-2.82614
 20
-6.2
 30
0.0
 10
-2.55
 20
-6.2
 30
0.0
 10
-2.55
 20
-6.2
 30
0.0
 10
-2.55
 20
-6.2
 30
0.0
 10
-1.4
 20
-6.2
 30
0.0
 10
-1.4
 20
-6.2
 30
0.0
 10
-1.4
 20
-6.2
 30
0.0
 10
-1.12386
 20
-6.2
 30
0.0
 10
-0.9
 20
-6.42386
 30
0.0
 10
-0.9
 20
-6.7
 30
0.0
 10
-0.9
 20
-6.7
 30
0.0
 10
-0.9
 20
-6.7
 30
0.0
 10
-0.9
 20
-7.85
 30
0.0
 10
-0.9
 20
-7.85
 30
0.0
 10
-0.9
 20
-7.85
 30
0.0
 10
-0.9
 20
-8.12614
 30
0.0
 10
-1.12386
 20
-8.35
 30
0.0
 10
-1.4
 20
-8.35
 30
0.0
 10
-1.4
 20
-8.35
 30
0.0
 10
-1.4
 20
-8.35
 30
0.0
 10
-2.55
 20
-8.35
 30
0.0
 10
-2.55
 20
-8.35
 30
0.0
 10
-2.55
 20
-8.35
 30
0.0
 10
-2.82614
 20
-8.35
 30
0.0
 10
-3.05
 20
-8.12614
 30
0.0
 10
-3.05
 20
-7.85
 30
0.0
  0
ELLIPSE
  5
95
330
1F
100
AcDbEntity
  8
Layer 1
370
    53
100
AcDbEllipse
 10
-1.6
 20
-6.9
 30
0.0
 11
0.0
 21
0.3
 31
0.0
210
0.0
220
0.0
230
1.0
 40
1.0
 41
0.0
 42
6.283185307179586
  0
SPLINE
  5
96
330
1F
100
AcDbEntity
  8
Layer 1
 62
     3
370
    53
100
AcDbSpline
210
0.0
220
0.0
230
1.0
 70
    11
 71
     3
 72
    36
 73
    32
 74
     0
 42
0.0000000001
 43
0.0000000001
 12
1.0
 22
0.0
 32
0.0
 13
1.0
 23
0.0
 33
0.0
 40
0.0
 40
0.0
 40
0.0
 40
0.0
 40
0.1111111111111111
 40
0.1111111111111111
 40
0.1111111111111111
 40
0.1111111111111111
 40
0.2222222222222222
 40
0.2222222222222222
 40
0.2222222222222222
 40
0.2222222222222222
 40
0.3333333333333333
 40
0.3333333333333333
 40
0.3333333333333333
 40
0.3333333333333333
 40
0.4444444444444444
 40
0.4444444444444444
 40
0.4444444444444444
 40
0.4444444444444444
 40
0.5555555555555556
 40
0.5555555555555556
 40
0.5555555555555556
 40
0.5555555555555556
 40
0.6666666666666666
 40
0.6666666666666666
 40
0.6666666666666666
 40
0.6666666666666666
 40
0.7777777777777778
 40
0.7777777777777778
 40
0.7777777777777778
 40
0.7777777777777778
 40
1.0
 40
1.0
 40
1.0
 40
1.0
 10
-5.35
 20
-7.85
 30
0.0
 10
-5.35
 20
-7.85
 30
0.0
 10
-5.35
 20
-6.7
 30
0.0
 10
-5.35
 20
-6.7
 30
0.0
 10
-5.35
 20
-6.7
 30
0.0
 10
-5.35
 20
-6.42386
 30
0.0
 10
-5.12614
 20
-6.2
 30
0.0
 10
-4.85
 20
-6.2
 30
0.0
 10
-4.85
 20
-6.2
 30
0.0
 10
-4.85
 20
-6.2
 30
0.0
 10
-3.7
 20
-6.2
 30
0.0
 10
-3.7
 20
-6.2
 30
0.0
 10
-3.7
 20
-6.2
 30
0.0
 10
-3.42386
 20
-6.2
 30
0.0
 10
-3.2
 20
-6.42386
 30
0.0
 10
-3.2
 20
-6.7
 30
0.0
 10
-3.2
 20
-6.7
 30
0.0
 10
-3.2
 20
-6.7
 30
0.0
 10
-3.2
 20
-7.85
 30
0.0
 10
-3.2
 20
-7.85
 30
0.0
 10
-3.2
 20
-7.85
 30
0.0
 10
-3.2
 20
-8.12614
 30
0.0
 10
-3.42386
 20
-8.35
 30
0.0
 10
-3.7
 20
-8.35
 30
0.0
 10
-3.7
 20
-8.35
 30
0.0
 10
-3.7
 20
-8.35
 30
0.0
 10
-4.85
 20
-8.35
 30
0.0
 10
-4.85
 20
-8.35
 30
0.0
 10
-4.85
 20
-8.35
 30
0.0
 10
-5.12614
 20
-8.35
 30
0.0
 10
-5.35
 20
-8.12614
 30
0.0
 10
-5.35
 20
-7.85
 30
0.0
  0
ELLIPSE
  5
97
330
1F
100
AcDbEntity
  8
Layer 1
370
    53
100
AcDbEllipse
 10
-3.9
 20
-6.9
 30
0.0
 11
0.0
 21
0.3
 31
0.0
210
0.0
220
0.0
230
1.0
 40
1.0
 41
0.0
 42
6.283185307179586
  0
SPLINE
  5
98
330
1F
100
AcDbEntity
  8
Layer 1
 62
     3
370
    53
100
AcDbSpline
210
0.0
220
0.0
230
1.0
 70
    11
 71
     3
 72
    36
 73
    32
 74
     0
 42
0.0000000001
 43
0.0000000001
 12
1.0
 22
0.0
 32
0.0
 13
1.0
 23
0.0
 33
0.0
 40
0.0
 40
0.0
 40
0.0
 40
0.0
 40
0.1111111111111111
 40
0.1111111111111111
 40
0.1111111111111111
 40
0.1111111111111111
 40
0.2222222222222222
 40
0.2222222222222222
 40
0.2222222222222222
 40
0.2222222222222222
 40
0.3333333333333333
 40
0.3333333333333333
 40
0.3333333333333333
 40
0.3333333333333333
 40
0.4444444444444444
 40
0.4444444444444444
 40
0.4444444444444444
 40
0.4444444444444444
 40
0.5555555555555556
 40
0.5555555555555556
 40
0.5555555555555556
 40
0.5555555555555556
 40
0.6666666666666666
 40
0.6666666666666666
 40
0.6666666666666666
 40
0.6666666666666666
 40
0.7777777777777778
 40
0.7777777777777778
 40
0.7777777777777778
 40
0.7777777777777778
 40
1.0
 40
1.0
 40
1.0
 40
1.0
 10
-7.65
 20
-7.85
 30
0.0
 10
-7.65
 20
-7.85
 30
0.0
 10
-7.65
 20
-6.7
 30
0.0
 10
-7.65
 20
-6.7
 30
0.0
 10
-7.65
 20
-6.7
 30
0.0
 10
-7.65
 20
-6.42386
 30
0.0
 10
-7.42614
 20
-6.2
 30
0.0
 10
-7.15
 20
-6.2
 30
0.0
 10
-7.15
 20
-6.2
 30
0.0
 10
-7.15
 20
-6.2
 30
0.0
 10
-6.0
 20
-6.2
 30
0.0
 10
-6.0
 20
-6.2
 30
0.0
 10
-6.0
 20
-6.2
 30
0.0
 10
-5.72386
 20
-6.2
 30
0.0
 10
-5.5
 20
-6.42386
 30
0.0
 10
-5.5
 20
-6.7
 30
0.0
 10
-5.5
 20
-6.7
 30
0.0
 10
-5.5
 20
-6.7
 30
0.0
 10
-5.5
 20
-7.85
 30
0.0
 10
-5.5
 20
-7.85
 30
0.0
 10
-5.5
 20
-7.85
 30
0.0
 10
-5.5
 20
-8.12614
 30
0.0
 10
-5.72386
 20
-8.35
 30
0.0
 10
-6.0
 20
-8.35
 30
0.0
 10
-6.0
 20
-8.35
 30
0.0
 10
-6.0
 20
-8.35
 30
0.0
 10
-7.15
 20
-8.35
 30
0.0
 10
-7.15
 20
-8.35
 30
0.0
 10
-7.15
 20
-8.35
 30
0.0
 10
-7.42614
 20
-8.35
 30
0.0
 10
-7.65
 20
-8.12614
 30
0.0
 10
-7.65
 20
-7.85
 30
0.0
  0
ELLIPSE
  5
99
330
1F
100
AcDbEntity
  8
Layer 1
370
    53
100
AcDbEllipse
 10
-6.2
 20
-6.9
 30
0.0
 11
0.0
 21
0.3
 31
0.0
210
0.0
220
0.0
230
1.0
 40
1.0
 41
0.0
 42
6.283185307179586
  0
SPLINE
  5
9A
330
1F
100
AcDbEntity
  8
Layer 1
 62
     3
370
    53
100
AcDbSpline
210
0.0
220
0.0
230
1.0
 70
    11
 71
     3
 72
    36
 73
    32
 74
     0
 42
0.0000000001
 43
0.0000000001
 12
1.0
 22
0.0
 32
0.0
 13
1.0
 23
0.0
 33
0.0
 40
0.0
 40
0.0
 40
0.0
 40
0.0
 40
0.1111111111111111
 40
0.1111111111111111
 40
0.1111111111111111
 40
0.1111111111111111
 40
0.2222222222222222
 40
0.2222222222222222
 40
0.2222222222222222
 40
0.2222222222222222
 40
0.3333333333333333
 40
0.3333333333333333
 40
0.3333333333333333
 40
0.3333333333333333
 40
0.4444444444444444
 40
0.4444444444444444
 40
0.4444444444444444
 40
0.4444444444444444
 40
0.5555555555555556
 40
0.5555555555555556
 40
0.5555555555555556
 40
0.5555555555555556
 40
0.6666666666666666
 40
0.6666666666666666
 40
0.6666666666666666
 40
0.6666666666666666
 40
0.7777777777777778
 40
0.7777777777777778
 40
0.7777777777777778
 40
0.7777777777777778
 40
1.0
 40
1.0
 40
1.0
 40
1.0
 10
-9.95
 20
-7.85
 30
0.0
 10
-9.95
 20
-7.85
 30
0.0
 10
-9.95
 20
-6.7
 30
0.0
 10
-9.95
 20
-6.7
 30
0.0
 10
-9.95
 20
-6.7
 30
0.0
 10
-9.95
 20
-6.42386
 30
0.0
 10
-9.72614
 20
-6.2
 30
0.0
 10
-9.45
 20
-6.2
 30
0.0
 10
-9.45
 20
-6.2
 30
0.0
 10
-9.45
 20
-6.2
 30
0.0
 10
-8.3
 20
-6.2
 30
0.0
 10
-8.3
 20
-6.2
 30
0.0
 10
-8.3
 20
-6.2
 30
0.0
 10
-8.02386
 20
-6.2
 30
0.0
 10
-7.8
 20
-6.42386
 30
0.0
 10
-7.8
 20
-6.7
 30
0.0
 10
-7.8
 20
-6.7
 30
0.0
 10
-7.8
 20
-6.7
 30
0.0
 10
-7.8
 20
-7.85
 30
0.0
 10
-7.8
 20
-7.85
 30
0.0
 10
-7.8
 20
-7.85
 30
0.0
 10
-7.8
 20
-8.12614
 30
0.0
 10
-8.02386
 20
-8.35
 30
0.0
 10
-8.3
 20
-8.35
 30
0.0
 10
-8.3
 20
-8.35
 30
0.0
 10
-8.3
 20
-8.35
 30
0.0
 10
-9.45
 20
-8.35
 30
0.0
 10
-9.45
 20
-8.35
 30
0.0
 10
-9.45
 20
-8.35
 30
0.0
 10
-9.72614
 20
-8.35
 30
0.0
 10
-9.95
 20
-8.12614
 30
0.0
 10
-9.95
 20
-7.85
 30
0.0
  0
ELLIPSE
  5
9B
330
1F
100
AcDbEntity
  8
Layer 1
370
    53
100
AcDbEllipse
 10
-8.5
 20
-6.9
 30
0.0
 11
0.0
 21
0.3
 31
0.0
210
0.0
220
0.0
230
1.0
 40
1.0
 41
0.0
 42
6.283185307179586
  0
SPLINE
  5
9C
330
1F
100
AcDbEntity
  8
Layer 1
 62
     3
370
    53
100
AcDbSpline
210
0.0
220
0.0
230
1.0
 70
    11
 71
     3
 72
    36
 73
    32
 74
     0
 42
0.0000000001
 43
0.0000000001
 12
1.0
 22
0.0
 32
0.0
 13
1.0
 23
0.0
 33
0.0
 40
0.0
 40
0.0
 40
0.0
 40
0.0
 40
0.1111111111111111
 40
0.1111111111111111
 40
0.1111111111111111
 40
0.1111111111111111
 40
0.2222222222222222
 40
0.2222222222222222
 40
0.2222222222222222
 40
0.2222222222222222
 40
0.3333333333333333
 40
0.3333333333333333
 40
0.3333333333333333
 40
0.3333333333333333
 40
0.4444444444444444
 40
0.4444444444444444
 40
0.4444444444444444
 40
0.4444444444444444
 40
0.5555555555555556
 40
0.5555555555555556
 40
0.5555555555555556
 40
0.5555555555555556
 40
0.6666666666666666
 40
0.6666666666666666
 40
0.6666666666666666
 40
0.6666666666666666
 40
0.7777777777777778
 40
0.7777777777777778
 40
0.7777777777777778
 40
0.7777777777777778
 40
1.0
 40
1.0
 40
1.0
 40
1.0
 10
-12.25
 20
-7.85
 30
0.0
 10
-12.25
 20
-7.85
 30
0.0
 10
-12.25
 20
-6.7
 30
0.0
 10
-12.25
 20
-6.7
 30
0.0
 10
-12.25
 20
-6.7
 30
0.0
 10
-12.25
 20
-6.42386
 30
0.0
 10
-12.02614
 20
-6.2
 30
0.0
 10
-11.75
 20
-6.2
 30
0.0
 10
-11.75
 20
-6.2
 30
0.0
 10
-11.75
 20
-6.2
 30
0.0
 10
-10.6
 20
-6.2
 30
0.0
 10
-10.6
 20
-6.2
 30
0.0
 10
-10.6
 20
-6.2
 30
0.0
 10
-10.32386
 20
-6.2
 30
0.0
 10
-10.1
 20
-6.42386
 30
0.0
 10
-10.1
 20
-6.7
 30
0.0
 10
-10.1
 20
-6.7
 30
0.0
 10
-10.1
 20
-6.7
 30
0.0
 10
-10.1
 20
-7.85
 30
0.0
 10
-10.1
 20
-7.85
 30
0.0
 10
-10.1
 20
-7.85
 30
0.0
 10
-10.1
 20
-8.12614
 30
0.0
 10
-10.32386
 20
-8.35
 30
0.0
 10
-10.6
 20
-8.35
 30
0.0
 10
-10.6
 20
-8.35
 30
0.0
 10
-10.6
 20
-8.35
 30
0.0
 10
-11.75
 20
-8.35
 30
0.0
 10
-11.75
 20
-8.35
 30
0.0
 10
-11.75
 20
-8.35
 30
0.0
 10
-12.02614
 20
-8.35
 30
0.0
 10
-12.25
 20
-8.12614
 30
0.0
 10
-12.25
 20
-7.85
 30
0.0
  0
ELLIPSE
  5
9D
330
1F
100
AcDbEntity
  8
Layer 1
370
    53
100
AcDbEllipse
 10
-10.8
 20
-6.9
 30
0.0
 11
0.0
 21
0.3
 31
0.0
210
0.0
220
0.0
230
1.0
 40
1.0
 41
0.0
 42
6.283185307179586
  0
SPLINE
  5
9E
330
1F
100
AcDbEntity
  8
Layer 1
 62
     1
370
    53
100
AcDbSpline
210
0.0
220
0.0
230
1.0
 70
    11
 71
     3
 72
    36
 73
    32
 74
     0
 42
0.0000000001
 43
0.0000000001
 12
1.0
 22
0.0
 32
0.0
 13
1.0
 23
0.0
 33
0.0
 40
0.0
 40
0.0
 40
0.0
 40
0.0
 40
0.1111111111111111
 40
0.1111111111111111
 40
0.1111111111111111
 40
0.1111111111111111
 40
0.2222222222222222
 40
0.2222222222222222
 40
0.2222222222222222
 40
0.2222222222222222
 40
0.3333333333333333
 40
0.3333333333333333
 40
0.3333333333333333
 40
0.3333333333333333
 40
0.4444444444444444
 40
0.4444444444444444
 40
0.4444444444444444
 40
0.4444444444444444
 40
0.5555555555555556
 40
0.5555555555555556
 40
0.5555555555555556
 40
0.5555555555555556
 40
0.6666666666666666
 40
0.6666666666666666
 40
0.6666666666666666
 40
0.6666666666666666
 40
0.7777777777777778
 40
0.7777777777777778
 40
0.7777777777777778
 40
0.7777777777777778
 40
1.0
 40
1.0
 40
1.0
 40
1.0
 10
-13.4
 20
-10.725
 30
0.0
 10
-13.4
 20
-10.725
 30
0.0
 10
-13.4
 20
8.5375
 30
0.0
 10
-13.4
 20
8.5375
 30
0.0
 10
-13.4
 20
8.5375
 30
0.0
 10
-13.4
 20
8.81364
 30
0.0
 10
-13.17614
 20
9.0375
 30
0.0
 10
-12.9
 20
9.0375
 30
0.0
 10
-12.9
 20
9.0375
 30
0.0
 10
-12.9
 20
9.0375
 30
0.0
 10
12.975
 20
9.0375
 30
0.0
 10
12.975
 20
9.0375
 30
0.0
 10
12.975
 20
9.0375
 30
0.0
 10
13.25114
 20
9.0375
 30
0.0
 10
13.475
 20
8.81364
 30
0.0
 10
13.475
 20
8.5375
 30
0.0
 10
13.475
 20
8.5375
 30
0.0
 10
13.475
 20
8.5375
 30
0.0
 10
13.475
 20
-10.725
 30
0.0
 10
13.475
 20
-10.725
 30
0.0
 10
13.475
 20
-10.725
 30
0.0
 10
13.475
 20
-11.00114
 30
0.0
 10
13.25114
 20
-11.225
 30
0.0
 10
12.975
 20
-11.225
 30
0.0
 10
12.975
 20
-11.225
 30
0.0
 10
12.975
 20
-11.225
 30
0.0
 10
-12.9
 20
-11.225
 30
0.0
 10
-12.9
 20
-11.225
 30
0.0
 10
-12.9
 20
-11.225
 30
0.0
 10
-13.17614
 20
-11.225
 30
0.0
 10
-13.4
 20
-11.00114
 30
0.0
 10
-13.4
 20
-10.725
 30
0.0
  0
SPLINE
  5
9F
330
1F
100
AcDbEntity
  8
Layer 1
 62
     3
370
    53
100
AcDbSpline
210
0.0
220
0.0
230
1.0
 70
    11
 71
     3
 72
    36
 73
    32
 74
     0
 42
0.0000000001
 43
0.0000000001
 12
1.0
 22
0.0
 32
0.0
 13
1.0
 23
0.0
 33
0.0
 40
0.0
 40
0.0
 40
0.0
 40
0.0
 40
0.1111111111111111
 40
0.1111111111111111
 40
0.1111111111111111
 40
0.1111111111111111
 40
0.2222222222222222
 40
0.2222222222222222
 40
0.2222222222222222
 40
0.2222222222222222
 40
0.3333333333333333
 40
0.3333333333333333
 40
0.3333333333333333
 40
0.3333333333333333
 40
0.4444444444444444
 40
0.4444444444444444
 40
0.4444444444444444
 40
0.4444444444444444
 40
0.5555555555555556
 40
0.5555555555555556
 40
0.5555555555555556
 40
0.5555555555555556
 40
0.6666666666666666
 40
0.6666666666666666
 40
0.6666666666666666
 40
0.6666666666666666
 40
0.7777777777777778
 40
0.7777777777777778
 40
0.7777777777777778
 40
0.7777777777777778
 40
1.0
 40
1.0
 40
1.0
 40
1.0
 10
10.75
 20
-10.15
 30
0.0
 10
10.75
 20
-10.15
 30
0.0
 10
10.75
 20
-9.0
 30
0.0
 10
10.75
 20
-9.0
 30
0.0
 10
10.75
 20
-9.0
 30
0.0
 10
10.75
 20
-8.72386
 30
0.0
 10
10.97386
 20
-8.5
 30
0.0
 10
11.25
 20
-8.5
 30
0.0
 10
11.25
 20
-8.5
 30
0.0
 10
11.25
 20
-8.5
 30
0.0
 10
12.4
 20
-8.5
 30
0.0
 10
12.4
 20
-8.5
 30
0.0
 10
12.4
 20
-8.5
 30
0.0
 10
12.67614
 20
-8.5
 30
0.0
 10
12.9
 20
-8.72386
 30
0.0
 10
12.9
 20
-9.0
 30
0.0
 10
12.9
 20
-9.0
 30
0.0
 10
12.9
 20
-9.0
 30
0.0
 10
12.9
 20
-10.15
 30
0.0
 10
12.9
 20
-10.15
 30
0.0
 10
12.9
 20
-10.15
 30
0.0
 10
12.9
 20
-10.42614
 30
0.0
 10
12.67614
 20
-10.65
 30
0.0
 10
12.4
 20
-10.65
 30
0.0
 10
12.4
 20
-10.65
 30
0.0
 10
12.4
 20
-10.65
 30
0.0
 10
11.25
 20
-10.65
 30
0.0
 10
11.25
 20
-10.65
 30
0.0
 10
11.25
 20
-10.65
 30
0.0
 10
10.97386
 20
-10.65
 30
0.0
 10
10.75
 20
-10.42614
 30
0.0
 10
10.75
 20
-10.15
 30
0.0
  0
ELLIPSE
  5
A0
330
1F
100
AcDbEntity
  8
Layer 1
370
    53
100
AcDbEllipse
 10
12.2
 20
-9.2
 30
0.0
 11
0.0
 21
0.3
 31
0.0
210
0.0
220
0.0
230
1.0
 40
1.0
 41
0.0
 42
6.283185307179586
  0
SPLINE
  5
A1
330
1F
100
AcDbEntity
  8
Layer 1
 62
     3
370
    53
100
AcDbSpline
210
0.0
220
0.0
230
1.0
 70
    11
 71
     3
 72
    36
 73
    32
 74
     0
 42
0.0000000001
 43
0.0000000001
 12
1.0
 22
0.0
 32
0.0
 13
1.0
 23
0.0
 33
0.0
 40
0.0
 40
0.0
 40
0.0
 40
0.0
 40
0.1111111111111111
 40
0.1111111111111111
 40
0.1111111111111111
 40
0.1111111111111111
 40
0.2222222222222222
 40
0.2222222222222222
 40
0.2222222222222222
 40
0.2222222222222222
 40
0.3333333333333333
 40
0.3333333333333333
 40
0.3333333333333333
 40
0.3333333333333333
 40
0.4444444444444444
 40
0.4444444444444444
 40
0.4444444444444444
 40
0.4444444444444444
 40
0.5555555555555556
 40
0.5555555555555556
 40
0.5555555555555556
 40
0.5555555555555556
 40
0.6666666666666666
 40
0.6666666666666666
 40
0.6666666666666666
 40
0.6666666666666666
 40
0.7777777777777778
 40
0.7777777777777778
 40
0.7777777777777778
 40
0.7777777777777778
 40
1.0
 40
1.0
 40
1.0
 40
1.0
 10
8.45
 20
-10.15
 30
0.0
 10
8.45
 20
-10.15
 30
0.0
 10
8.45
 20
-9.0
 30
0.0
 10
8.45
 20
-9.0
 30
0.0
 10
8.45
 20
-9.0
 30
0.0
 10
8.45
 20
-8.72386
 30
0.0
 10
8.67386
 20
-8.5
 30
0.0
 10
8.95
 20
-8.5
 30
0.0
 10
8.95
 20
-8.5
 30
0.0
 10
8.95
 20
-8.5
 30
0.0
 10
10.1
 20
-8.5
 30
0.0
 10
10.1
 20
-8.5
 30
0.0
 10
10.1
 20
-8.5
 30
0.0
 10
10.37614
 20
-8.5
 30
0.0
 10
10.6
 20
-8.72386
 30
0.0
 10
10.6
 20
-9.0
 30
0.0
 10
10.6
 20
-9.0
 30
0.0
 10
10.6
 20
-9.0
 30
0.0
 10
10.6
 20
-10.15
 30
0.0
 10
10.6
 20
-10.15
 30
0.0
 10
10.6
 20
-10.15
 30
0.0
 10
10.6
 20
-10.42614
 30
0.0
 10
10.37614
 20
-10.65
 30
0.0
 10
10.1
 20
-10.65
 30
0.0
 10
10.1
 20
-10.65
 30
0.0
 10
10.1
 20
-10.65
 30
0.0
 10
8.95
 20
-10.65
 30
0.0
 10
8.95
 20
-10.65
 30
0.0
 10
8.95
 20
-10.65
 30
0.0
 10
8.67386
 20
-10.65
 30
0.0
 10
8.45
 20
-10.42614
 30
0.0
 10
8.45
 20
-10.15
 30
0.0
  0
ELLIPSE
  5
A2
330
1F
100
AcDbEntity
  8
Layer 1
370
    53
100
AcDbEllipse
 10
9.9
 20
-9.2
 30
0.0
 11
0.0
 21
0.3
 31
0.0
210
0.0
220
0.0
230
1.0
 40
1.0
 41
0.0
 42
6.283185307179586
  0
SPLINE
  5
A3
330
1F
100
AcDbEntity
  8
Layer 1
 62
     3
370
    53
100
AcDbSpline
210
0.0
220
0.0
230
1.0
 70
    11
 71
     3
 72
    36
 73
    32
 74
     0
 42
0.0000000001
 43
0.0000000001
 12
1.0
 22
0.0
 32
0.0
 13
1.0
 23
0.0
 33
0.0
 40
0.0
 40
0.0
 40
0.0
 40
0.0
 40
0.1111111111111111
 40
0.1111111111111111
 40
0.1111111111111111
 40
0.1111111111111111
 40
0.2222222222222222
 40
0.2222222222222222
 40
0.2222222222222222
 40
0.2222222222222222
 40
0.3333333333333333
 40
0.3333333333333333
 40
0.3333333333333333
 40
0.3333333333333333
 40
0.4444444444444444
 40
0.4444444444444444
 40
0.4444444444444444
 40
0.4444444444444444
 40
0.5555555555555556
 40
0.5555555555555556
 40
0.5555555555555556
 40
0.5555555555555556
 40
0.6666666666666666
 40
0.6666666666666666
 40
0.6666666666666666
 40
0.6666666666666666
 40
0.7777777777777778
 40
0.7777777777777778
 40
0.7777777777777778
 40
0.7777777777777778
 40
1.0
 40
1.0
 40
1.0
 40
1.0
 10
6.15
 20
-10.15
 30
0.0
 10
6.15
 20
-10.15
 30
0.0
 10
6.15
 20
-9.0
 30
0.0
 10
6.15
 20
-9.0
 30
0.0
 10
6.15
 20
-9.0
 30
0.0
 10
6.15
 20
-8.72386
 30
0.0
 10
6.37386
 20
-8.5
 30
0.0
 10
6.65
 20
-8.5
 30
0.0
 10
6.65
 20
-8.5
 30
0.0
 10
6.65
 20
-8.5
 30
0.0
 10
7.8
 20
-8.5
 30
0.0
 10
7.8
 20
-8.5
 30
0.0
 10
7.8
 20
-8.5
 30
0.0
 10
8.07614
 20
-8.5
 30
0.0
 10
8.3
 20
-8.72386
 30
0.0
 10
8.3
 20
-9.0
 30
0.0
 10
8.3
 20
-9.0
 30
0.0
 10
8.3
 20
-9.0
 30
0.0
 10
8.3
 20
-10.15
 30
0.0
 10
8.3
 20
-10.15
 30
0.0
 10
8.3
 20
-10.15
 30
0.0
 10
8.3
 20
-10.42614
 30
0.0
 10
8.07614
 20
-10.65
 30
0.0
 10
7.8
 20
-10.65
 30
0.0
 10
7.8
 20
-10.65
 30
0.0
 10
7.8
 20
-10.65
 30
0.0
 10
6.65
 20
-10.65
 30
0.0
 10
6.65
 20
-10.65
 30
0.0
 10
6.65
 20
-10.65
 30
0.0
 10
6.37386
 20
-10.65
 30
0.0
 10
6.15
 20
-10.42614
 30
0.0
 10
6.15
 20
-10.15
 30
0.0
  0
ELLIPSE
  5
A4
330
1F
100
AcDbEntity
  8
Layer 1
370
    53
100
AcDbEllipse
 10
7.6
 20
-9.2
 30
0.0
 11
0.0
 21
0.3
 31
0.0
210
0.0
220
0.0
230
1.0
 40
1.0
 41
0.0
 42
6.283185307179586
  0
SPLINE
  5
A5
330
1F
100
AcDbEntity
  8
Layer 1
 62
     3
370
    53
100
AcDbSpline
210
0.0
220
0.0
230
1.0
 70
    11
 71
     3
 72
    36
 73
    32
 74
     0
 42
0.0000000001
 43
0.0000000001
 12
1.0
 22
0.0
 32
0.0
 13
1.0
 23
0.0
 33
0.0
 40
0.0
 40
0.0
 40
0.0
 40
0.0
 40
0.1111111111111111
 40
0.1111111111111111
 40
0.1111111111111111
 40
0.1111111111111111
 40
0.2222222222222222
 40
0.2222222222222222
 40
0.2222222222222222
 40
0.2222222222222222
 40
0.3333333333333333
 40
0.3333333333333333
 40
0.3333333333333333
 40
0.3333333333333333
 40
0.4444444444444444
 40
0.4444444444444444
 40
0.4444444444444444
 40
0.4444444444444444
 40
0.5555555555555556
 40
0.5555555555555556
 40
0.5555555555555556
 40
0.5555555555555556
 40
0.6666666666666666
 40
0.6666666666666666
 40
0.6666666666666666
 40
0.6666666666666666
 40
0.7777777777777778
 40
0.7777777777777778
 40
0.7777777777777778
 40
0.7777777777777778
 40
1.0
 40
1.0
 40
1.0
 40
1.0
 10
3.85
 20
-10.15
 30
0.0
 10
3.85
 20
-10.15
 30
0.0
 10
3.85
 20
-9.0
 30
0.0
 10
3.85
 20
-9.0
 30
0.0
 10
3.85
 20
-9.0
 30
0.0
 10
3.85
 20
-8.72386
 30
0.0
 10
4.07386
 20
-8.5
 30
0.0
 10
4.35
 20
-8.5
 30
0.0
 10
4.35
 20
-8.5
 30
0.0
 10
4.35
 20
-8.5
 30
0.0
 10
5.5
 20
-8.5
 30
0.0
 10
5.5
 20
-8.5
 30
0.0
 10
5.5
 20
-8.5
 30
0.0
 10
5.77614
 20
-8.5
 30
0.0
 10
6.0
 20
-8.72386
 30
0.0
 10
6.0
 20
-9.0
 30
0.0
 10
6.0
 20
-9.0
 30
0.0
 10
6.0
 20
-9.0
 30
0.0
 10
6.0
 20
-10.15
 30
0.0
 10
6.0
 20
-10.15
 30
0.0
 10
6.0
 20
-10.15
 30
0.0
 10
6.0
 20
-10.42614
 30
0.0
 10
5.77614
 20
-10.65
 30
0.0
 10
5.5
 20
-10.65
 30
0.0
 10
5.5
 20
-10.65
 30
0.0
 10
5.5
 20
-10.65
 30
0.0
 10
4.35
 20
-10.65
 30
0.0
 10
4.35
 20
-10.65
 30
0.0
 10
4.35
 20
-10.65
 30
0.0
 10
4.07386
 20
-10.65
 30
0.0
 10
3.85
 20
-10.42614
 30
0.0
 10
3.85
 20
-10.15
 30
0.0
  0
ELLIPSE
  5
A6
330
1F
100
AcDbEntity
  8
Layer 1
370
    53
100
AcDbEllipse
 10
5.3
 20
-9.2
 30
0.0
 11
0.0
 21
0.3
 31
0.0
210
0.0
220
0.0
230
1.0
 40
1.0
 41
0.0
 42
6.283185307179586
  0
SPLINE
  5
A7
330
1F
100
AcDbEntity
  8
Layer 1
 62
     3
370
    53
100
AcDbSpline
210
0.0
220
0.0
230
1.0
 70
    11
 71
     3
 72
    36
 73
    32
 74
     0
 42
0.0000000001
 43
0.0000000001
 12
1.0
 22
0.0
 32
0.0
 13
1.0
 23
0.0
 33
0.0
 40
0.0
 40
0.0
 40
0.0
 40
0.0
 40
0.1111111111111111
 40
0.1111111111111111
 40
0.1111111111111111
 40
0.1111111111111111
 40
0.2222222222222222
 40
0.2222222222222222
 40
0.2222222222222222
 40
0.2222222222222222
 40
0.3333333333333333
 40
0.3333333333333333
 40
0.3333333333333333
 40
0.3333333333333333
 40
0.4444444444444444
 40
0.4444444444444444
 40
0.4444444444444444
 40
0.4444444444444444
 40
0.5555555555555556
 40
0.5555555555555556
 40
0.5555555555555556
 40
0.5555555555555556
 40
0.6666666666666666
 40
0.6666666666666666
 40
0.6666666666666666
 40
0.6666666666666666
 40
0.7777777777777778
 40
0.7777777777777778
 40
0.7777777777777778
 40
0.7777777777777778
 40
1.0
 40
1.0
 40
1.0
 40
1.0
 10
1.55
 20
-10.15
 30
0.0
 10
1.55
 20
-10.15
 30
0.0
 10
1.55
 20
-9.0
 30
0.0
 10
1.55
 20
-9.0
 30
0.0
 10
1.55
 20
-9.0
 30
0.0
 10
1.55
 20
-8.72386
 30
0.0
 10
1.77386
 20
-8.5
 30
0.0
 10
2.05
 20
-8.5
 30
0.0
 10
2.05
 20
-8.5
 30
0.0
 10
2.05
 20
-8.5
 30
0.0
 10
3.2
 20
-8.5
 30
0.0
 10
3.2
 20
-8.5
 30
0.0
 10
3.2
 20
-8.5
 30
0.0
 10
3.47614
 20
-8.5
 30
0.0
 10
3.7
 20
-8.72386
 30
0.0
 10
3.7
 20
-9.0
 30
0.0
 10
3.7
 20
-9.0
 30
0.0
 10
3.7
 20
-9.0
 30
0.0
 10
3.7
 20
-10.15
 30
0.0
 10
3.7
 20
-10.15
 30
0.0
 10
3.7
 20
-10.15
 30
0.0
 10
3.7
 20
-10.42614
 30
0.0
 10
3.47614
 20
-10.65
 30
0.0
 10
3.2
 20
-10.65
 30
0.0
 10
3.2
 20
-10.65
 30
0.0
 10
3.2
 20
-10.65
 30
0.0
 10
2.05
 20
-10.65
 30
0.0
 10
2.05
 20
-10.65
 30
0.0
 10
2.05
 20
-10.65
 30
0.0
 10
1.77386
 20
-10.65
 30
0.0
 10
1.55
 20
-10.42614
 30
0.0
 10
1.55
 20
-10.15
 30
0.0
  0
ELLIPSE
  5
A8
330
1F
100
AcDbEntity
  8
Layer 1
370
    53
100
AcDbEllipse
 10
3.0
 20
-9.2
 30
0.0
 11
0.0
 21
0.3
 31
0.0
210
0.0
220
0.0
230
1.0
 40
1.0
 41
0.0
 42
6.283185307179586
  0
SPLINE
  5
A9
330
1F
100
AcDbEntity
  8
Layer 1
 62
     3
370
    53
100
AcDbSpline
210
0.0
220
0.0
230
1.0
 70
    11
 71
     3
 72
    36
 73
    32
 74
     0
 42
0.0000000001
 43
0.0000000001
 12
1.0
 22
0.0
 32
0.0
 13
1.0
 23
0.0
 33
0.0
 40
0.0
 40
0.0
 40
0.0
 40
0.0
 40
0.1111111111111111
 40
0.1111111111111111
 40
0.1111111111111111
 40
0.1111111111111111
 40
0.2222222222222222
 40
0.2222222222222222
 40
0.2222222222222222
 40
0.2222222222222222
 40
0.3333333333333333
 40
0.3333333333333333
 40
0.3333333333333333
 40
0.3333333333333333
 40
0.4444444444444444
 40
0.4444444444444444
 40
0.4444444444444444
 40
0.4444444444444444
 40
0.5555555555555556
 40
0.5555555555555556
 40
0.5555555555555556
 40
0.5555555555555556
 40
0.6666666666666666
 40
0.6666666666666666
 40
0.6666666666666666
 40
0.6666666666666666
 40
0.7777777777777778
 40
0.7777777777777778
 40
0.7777777777777778
 40
0.7777777777777778
 40
1.0
 40
1.0
 40
1.0
 40
1.0
 10
-0.75
 20
-10.15
 30
0.0
 10
-0.75
 20
-10.15
 30
0.0
 10
-0.75
 20
-9.0
 30
0.0
 10
-0.75
 20
-9.0
 30
0.0
 10
-0.75
 20
-9.0
 30
0.0
 10
-0.75
 20
-8.72386
 30
0.0
 10
-0.52614
 20
-8.5
 30
0.0
 10
-0.25
 20
-8.5
 30
0.0
 10
-0.25
 20
-8.5
 30
0.0
 10
-0.25
 20
-8.5
 30
0.0
 10
0.9
 20
-8.5
 30
0.0
 10
0.9
 20
-8.5
 30
0.0
 10
0.9
 20
-8.5
 30
0.0
 10
1.17614
 20
-8.5
 30
0.0
 10
1.4
 20
-8.72386
 30
0.0
 10
1.4
 20
-9.0
 30
0.0
 10
1.4
 20
-9.0
 30
0.0
 10
1.4
 20
-9.0
 30
0.0
 10
1.4
 20
-10.15
 30
0.0
 10
1.4
 20
-10.15
 30
0.0
 10
1.4
 20
-10.15
 30
0.0
 10
1.4
 20
-10.42614
 30
0.0
 10
1.17614
 20
-10.65
 30
0.0
 10
0.9
 20
-10.65
 30
0.0
 10
0.9
 20
-10.65
 30
0.0
 10
0.9
 20
-10.65
 30
0.0
 10
-0.25
 20
-10.65
 30
0.0
 10
-0.25
 20
-10.65
 30
0.0
 10
-0.25
 20
-10.65
 30
0.0
 10
-0.52614
 20
-10.65
 30
0.0
 10
-0.75
 20
-10.42614
 30
0.0
 10
-0.75
 20
-10.15
 30
0.0
  0
ELLIPSE
  5
AA
330
1F
100
AcDbEntity
  8
Layer 1
370
    53
100
AcDbEllipse
 10
0.7
 20
-9.2
 30
0.0
 11
0.0
 21
0.3
 31
0.0
210
0.0
220
0.0
230
1.0
 40
1.0
 41
0.0
 42
6.283185307179586
  0
SPLINE
  5
AB
330
1F
100
AcDbEntity
  8
Layer 1
 62
     3
370
    53
100
AcDbSpline
210
0.0
220
0.0
230
1.0
 70
    11
 71
     3
 72
    36
 73
    32
 74
     0
 42
0.0000000001
 43
0.0000000001
 12
1.0
 22
0.0
 32
0.0
 13
1.0
 23
0.0
 33
0.0
 40
0.0
 40
0.0
 40
0.0
 40
0.0
 40
0.1111111111111111
 40
0.1111111111111111
 40
0.1111111111111111
 40
0.1111111111111111
 40
0.2222222222222222
 40
0.2222222222222222
 40
0.2222222222222222
 40
0.2222222222222222
 40
0.3333333333333333
 40
0.3333333333333333
 40
0.3333333333333333
 40
0.3333333333333333
 40
0.4444444444444444
 40
0.4444444444444444
 40
0.4444444444444444
 40
0.4444444444444444
 40
0.5555555555555556
 40
0.5555555555555556
 40
0.5555555555555556
 40
0.5555555555555556
 40
0.6666666666666666
 40
0.6666666666666666
 40
0.6666666666666666
 40
0.6666666666666666
 40
0.7777777777777778
 40
0.7777777777777778
 40
0.7777777777777778
 40
0.7777777777777778
 40
1.0
 40
1.0
 40
1.0
 40
1.0
 10
-3.05
 20
-10.15
 30
0.0
 10
-3.05
 20
-10.15
 30
0.0
 10
-3.05
 20
-9.0
 30
0.0
 10
-3.05
 20
-9.0
 30
0.0
 10
-3.05
 20
-9.0
 30
0.0
 10
-3.05
 20
-8.72386
 30
0.0
 10
-2.82614
 20
-8.5
 30
0.0
 10
-2.55
 20
-8.5
 30
0.0
 10
-2.55
 20
-8.5
 30
0.0
 10
-2.55
 20
-8.5
 30
0.0
 10
-1.4
 20
-8.5
 30
0.0
 10
-1.4
 20
-8.5
 30
0.0
 10
-1.4
 20
-8.5
 30
0.0
 10
-1.12386
 20
-8.5
 30
0.0
 10
-0.9
 20
-8.72386
 30
0.0
 10
-0.9
 20
-9.0
 30
0.0
 10
-0.9
 20
-9.0
 30
0.0
 10
-0.9
 20
-9.0
 30
0.0
 10
-0.9
 20
-10.15
 30
0.0
 10
-0.9
 20
-10.15
 30
0.0
 10
-0.9
 20
-10.15
 30
0.0
 10
-0.9
 20
-10.42614
 30
0.0
 10
-1.12386
 20
-10.65
 30
0.0
 10
-1.4
 20
-10.65
 30
0.0
 10
-1.4
 20
-10.65
 30
0.0
 10
-1.4
 20
-10.65
 30
0.0
 10
-2.55
 20
-10.65
 30
0.0
 10
-2.55
 20
-10.65
 30
0.0
 10
-2.55
 20
-10.65
 30
0.0
 10
-2.82614
 20
-10.65
 30
0.0
 10
-3.05
 20
-10.42614
 30
0.0
 10
-3.05
 20
-10.15
 30
0.0
  0
ELLIPSE
  5
AC
330
1F
100
AcDbEntity
  8
Layer 1
370
    53
100
AcDbEllipse
 10
-1.6
 20
-9.2
 30
0.0
 11
0.0
 21
0.3
 31
0.0
210
0.0
220
0.0
230
1.0
 40
1.0
 41
0.0
 42
6.283185307179586
  0
SPLINE
  5
AD
330
1F
100
AcDbEntity
  8
Layer 1
 62
     3
370
    53
100
AcDbSpline
210
0.0
220
0.0
230
1.0
 70
    11
 71
     3
 72
    36
 73
    32
 74
     0
 42
0.0000000001
 43
0.0000000001
 12
1.0
 22
0.0
 32
0.0
 13
1.0
 23
0.0
 33
0.0
 40
0.0
 40
0.0
 40
0.0
 40
0.0
 40
0.1111111111111111
 40
0.1111111111111111
 40
0.1111111111111111
 40
0.1111111111111111
 40
0.2222222222222222
 40
0.2222222222222222
 40
0.2222222222222222
 40
0.2222222222222222
 40
0.3333333333333333
 40
0.3333333333333333
 40
0.3333333333333333
 40
0.3333333333333333
 40
0.4444444444444444
 40
0.4444444444444444
 40
0.4444444444444444
 40
0.4444444444444444
 40
0.5555555555555556
 40
0.5555555555555556
 40
0.5555555555555556
 40
0.5555555555555556
 40
0.6666666666666666
 40
0.6666666666666666
 40
0.6666666666666666
 40
0.6666666666666666
 40
0.7777777777777778
 40
0.7777777777777778
 40
0.7777777777777778
 40
0.7777777777777778
 40
1.0
 40
1.0
 40
1.0
 40
1.0
 10
-5.35
 20
-10.15
 30
0.0
 10
-5.35
 20
-10.15
 30
0.0
 10
-5.35
 20
-9.0
 30
0.0
 10
-5.35
 20
-9.0
 30
0.0
 10
-5.35
 20
-9.0
 30
0.0
 10
-5.35
 20
-8.72386
 30
0.0
 10
-5.12614
 20
-8.5
 30
0.0
 10
-4.85
 20
-8.5
 30
0.0
 10
-4.85
 20
-8.5
 30
0.0
 10
-4.85
 20
-8.5
 30
0.0
 10
-3.7
 20
-8.5
 30
0.0
 10
-3.7
 20
-8.5
 30
0.0
 10
-3.7
 20
-8.5
 30
0.0
 10
-3.42386
 20
-8.5
 30
0.0
 10
-3.2
 20
-8.72386
 30
0.0
 10
-3.2
 20
-9.0
 30
0.0
 10
-3.2
 20
-9.0
 30
0.0
 10
-3.2
 20
-9.0
 30
0.0
 10
-3.2
 20
-10.15
 30
0.0
 10
-3.2
 20
-10.15
 30
0.0
 10
-3.2
 20
-10.15
 30
0.0
 10
-3.2
 20
-10.42614
 30
0.0
 10
-3.42386
 20
-10.65
 30
0.0
 10
-3.7
 20
-10.65
 30
0.0
 10
-3.7
 20
-10.65
 30
0.0
 10
-3.7
 20
-10.65
 30
0.0
 10
-4.85
 20
-10.65
 30
0.0
 10
-4.85
 20
-10.65
 30
0.0
 10
-4.85
 20
-10.65
 30
0.0
 10
-5.12614
 20
-10.65
 30
0.0
 10
-5.35
 20
-10.42614
 30
0.0
 10
-5.35
 20
-10.15
 30
0.0
  0
ELLIPSE
  5
AE
330
1F
100
AcDbEntity
  8
Layer 1
370
    53
100
AcDbEllipse
 10
-3.9
 20
-9.2
 30
0.0
 11
0.0
 21
0.3
 31
0.0
210
0.0
220
0.0
230
1.0
 40
1.0
 41
0.0
 42
6.283185307179586
  0
SPLINE
  5
AF
330
1F
100
AcDbEntity
  8
Layer 1
 62
     3
370
    53
100
AcDbSpline
210
0.0
220
0.0
230
1.0
 70
    11
 71
     3
 72
    36
 73
    32
 74
     0
 42
0.0000000001
 43
0.0000000001
 12
1.0
 22
0.0
 32
0.0
 13
1.0
 23
0.0
 33
0.0
 40
0.0
 40
0.0
 40
0.0
 40
0.0
 40
0.1111111111111111
 40
0.1111111111111111
 40
0.1111111111111111
 40
0.1111111111111111
 40
0.2222222222222222
 40
0.2222222222222222
 40
0.2222222222222222
 40
0.2222222222222222
 40
0.3333333333333333
 40
0.3333333333333333
 40
0.3333333333333333
 40
0.3333333333333333
 40
0.4444444444444444
 40
0.4444444444444444
 40
0.4444444444444444
 40
0.4444444444444444
 40
0.5555555555555556
 40
0.5555555555555556
 40
0.5555555555555556
 40
0.5555555555555556
 40
0.6666666666666666
 40
0.6666666666666666
 40
0.6666666666666666
 40
0.6666666666666666
 40
0.7777777777777778
 40
0.7777777777777778
 40
0.7777777777777778
 40
0.7777777777777778
 40
1.0
 40
1.0
 40
1.0
 40
1.0
 10
-7.65
 20
-10.15
 30
0.0
 10
-7.65
 20
-10.15
 30
0.0
 10
-7.65
 20
-9.0
 30
0.0
 10
-7.65
 20
-9.0
 30
0.0
 10
-7.65
 20
-9.0
 30
0.0
 10
-7.65
 20
-8.72386
 30
0.0
 10
-7.42614
 20
-8.5
 30
0.0
 10
-7.15
 20
-8.5
 30
0.0
 10
-7.15
 20
-8.5
 30
0.0
 10
-7.15
 20
-8.5
 30
0.0
 10
-6.0
 20
-8.5
 30
0.0
 10
-6.0
 20
-8.5
 30
0.0
 10
-6.0
 20
-8.5
 30
0.0
 10
-5.72386
 20
-8.5
 30
0.0
 10
-5.5
 20
-8.72386
 30
0.0
 10
-5.5
 20
-9.0
 30
0.0
 10
-5.5
 20
-9.0
 30
0.0
 10
-5.5
 20
-9.0
 30
0.0
 10
-5.5
 20
-10.15
 30
0.0
 10
-5.5
 20
-10.15
 30
0.0
 10
-5.5
 20
-10.15
 30
0.0
 10
-5.5
 20
-10.42614
 30
0.0
 10
-5.72386
 20
-10.65
 30
0.0
 10
-6.0
 20
-10.65
 30
0.0
 10
-6.0
 20
-10.65
 30
0.0
 10
-6.0
 20
-10.65
 30
0.0
 10
-7.15
 20
-10.65
 30
0.0
 10
-7.15
 20
-10.65
 30
0.0
 10
-7.15
 20
-10.65
 30
0.0
 10
-7.42614
 20
-10.65
 30
0.0
 10
-7.65
 20
-10.42614
 30
0.0
 10
-7.65
 20
-10.15
 30
0.0
  0
ELLIPSE
  5
B0
330
1F
100
AcDbEntity
  8
Layer 1
370
    53
100
AcDbEllipse
 10
-6.2
 20
-9.2
 30
0.0
 11
0.0
 21
0.3
 31
0.0
210
0.0
220
0.0
230
1.0
 40
1.0
 41
0.0
 42
6.283185307179586
  0
SPLINE
  5
B1
330
1F
100
AcDbEntity
  8
Layer 1
 62
     3
370
    53
100
AcDbSpline
210
0.0
220
0.0
230
1.0
 70
    11
 71
     3
 72
    36
 73
    32
 74
     0
 42
0.0000000001
 43
0.0000000001
 12
1.0
 22
0.0
 32
0.0
 13
1.0
 23
0.0
 33
0.0
 40
0.0
 40
0.0
 40
0.0
 40
0.0
 40
0.1111111111111111
 40
0.1111111111111111
 40
0.1111111111111111
 40
0.1111111111111111
 40
0.2222222222222222
 40
0.2222222222222222
 40
0.2222222222222222
 40
0.2222222222222222
 40
0.3333333333333333
 40
0.3333333333333333
 40
0.3333333333333333
 40
0.3333333333333333
 40
0.4444444444444444
 40
0.4444444444444444
 40
0.4444444444444444
 40
0.4444444444444444
 40
0.5555555555555556
 40
0.5555555555555556
 40
0.5555555555555556
 40
0.5555555555555556
 40
0.6666666666666666
 40
0.6666666666666666
 40
0.6666666666666666
 40
0.6666666666666666
 40
0.7777777777777778
 40
0.7777777777777778
 40
0.7777777777777778
 40
0.7777777777777778
 40
1.0
 40
1.0
 40
1.0
 40
1.0
 10
-9.95
 20
-10.15
 30
0.0
 10
-9.95
 20
-10.15
 30
0.0
 10
-9.95
 20
-9.0
 30
0.0
 10
-9.95
 20
-9.0
 30
0.0
 10
-9.95
 20
-9.0
 30
0.0
 10
-9.95
 20
-8.72386
 30
0.0
 10
-9.72614
 20
-8.5
 30
0.0
 10
-9.45
 20
-8.5
 30
0.0
 10
-9.45
 20
-8.5
 30
0.0
 10
-9.45
 20
-8.5
 30
0.0
 10
-8.3
 20
-8.5
 30
0.0
 10
-8.3
 20
-8.5
 30
0.0
 10
-8.3
 20
-8.5
 30
0.0
 10
-8.02386
 20
-8.5
 30
0.0
 10
-7.8
 20
-8.72386
 30
0.0
 10
-7.8
 20
-9.0
 30
0.0
 10
-7.8
 20
-9.0
 30
0.0
 10
-7.8
 20
-9.0
 30
0.0
 10
-7.8
 20
-10.15
 30
0.0
 10
-7.8
 20
-10.15
 30
0.0
 10
-7.8
 20
-10.15
 30
0.0
 10
-7.8
 20
-10.42614
 30
0.0
 10
-8.02386
 20
-10.65
 30
0.0
 10
-8.3
 20
-10.65
 30
0.0
 10
-8.3
 20
-10.65
 30
0.0
 10
-8.3
 20
-10.65
 30
0.0
 10
-9.45
 20
-10.65
 30
0.0
 10
-9.45
 20
-10.65
 30
0.0
 10
-9.45
 20
-10.65
 30
0.0
 10
-9.72614
 20
-10.65
 30
0.0
 10
-9.95
 20
-10.42614
 30
0.0
 10
-9.95
 20
-10.15
 30
0.0
  0
ELLIPSE
  5
B2
330
1F
100
AcDbEntity
  8
Layer 1
370
    53
100
AcDbEllipse
 10
-8.5
 20
-9.2
 30
0.0
 11
0.0
 21
0.3
 31
0.0
210
0.0
220
0.0
230
1.0
 40
1.0
 41
0.0
 42
6.283185307179586
  0
SPLINE
  5
B3
330
1F
100
AcDbEntity
  8
Layer 1
 62
     3
370
    53
100
AcDbSpline
210
0.0
220
0.0
230
1.0
 70
    11
 71
     3
 72
    36
 73
    32
 74
     0
 42
0.0000000001
 43
0.0000000001
 12
1.0
 22
0.0
 32
0.0
 13
1.0
 23
0.0
 33
0.0
 40
0.0
 40
0.0
 40
0.0
 40
0.0
 40
0.1111111111111111
 40
0.1111111111111111
 40
0.1111111111111111
 40
0.1111111111111111
 40
0.2222222222222222
 40
0.2222222222222222
 40
0.2222222222222222
 40
0.2222222222222222
 40
0.3333333333333333
 40
0.3333333333333333
 40
0.3333333333333333
 40
0.3333333333333333
 40
0.4444444444444444
 40
0.4444444444444444
 40
0.4444444444444444
 40
0.4444444444444444
 40
0.5555555555555556
 40
0.5555555555555556
 40
0.5555555555555556
 40
0.5555555555555556
 40
0.6666666666666666
 40
0.6666666666666666
 40
0.6666666666666666
 40
0.6666666666666666
 40
0.7777777777777778
 40
0.7777777777777778
 40
0.7777777777777778
 40
0.7777777777777778
 40
1.0
 40
1.0
 40
1.0
 40
1.0
 10
-12.25
 20
-10.15
 30
0.0
 10
-12.25
 20
-10.15
 30
0.0
 10
-12.25
 20
-9.0
 30
0.0
 10
-12.25
 20
-9.0
 30
0.0
 10
-12.25
 20
-9.0
 30
0.0
 10
-12.25
 20
-8.72386
 30
0.0
 10
-12.02614
 20
-8.5
 30
0.0
 10
-11.75
 20
-8.5
 30
0.0
 10
-11.75
 20
-8.5
 30
0.0
 10
-11.75
 20
-8.5
 30
0.0
 10
-10.6
 20
-8.5
 30
0.0
 10
-10.6
 20
-8.5
 30
0.0
 10
-10.6
 20
-8.5
 30
0.0
 10
-10.32386
 20
-8.5
 30
0.0
 10
-10.1
 20
-8.72386
 30
0.0
 10
-10.1
 20
-9.0
 30
0.0
 10
-10.1
 20
-9.0
 30
0.0
 10
-10.1
 20
-9.0
 30
0.0
 10
-10.1
 20
-10.15
 30
0.0
 10
-10.1
 20
-10.15
 30
0.0
 10
-10.1
 20
-10.15
 30
0.0
 10
-10.1
 20
-10.42614
 30
0.0
 10
-10.32386
 20
-10.65
 30
0.0
 10
-10.6
 20
-10.65
 30
0.0
 10
-10.6
 20
-10.65
 30
0.0
 10
-10.6
 20
-10.65
 30
0.0
 10
-11.75
 20
-10.65
 30
0.0
 10
-11.75
 20
-10.65
 30
0.0
 10
-11.75
 20
-10.65
 30
0.0
 10
-12.02614
 20
-10.65
 30
0.0
 10
-12.25
 20
-10.42614
 30
0.0
 10
-12.25
 20
-10.15
 30
0.0
  0
ELLIPSE
  5
B4
330
1F
100
AcDbEntity
  8
Layer 1
370
    53
100
AcDbEllipse
 10
-10.8
 20
-9.2
 30
0.0
 11
0.0
 21
0.3
 31
0.0
210
0.0
220
0.0
230
1.0
 40
1.0
 41
0.0
 42
6.283185307179586
  0
ELLIPSE
  5
B5
330
1F
100
AcDbEntity
  8
Layer 1
 62
     3
370
    53
100
AcDbEllipse
 10
-11.79997
 20
7.34997
 30
0.0
 11
0.0
 21
1.00003
 31
0.0
210
0.0
220
0.0
230
1.0
 40
1.0
 41
0.0
 42
6.283185307179586
  0
ELLIPSE
  5
B6
330
1F
100
AcDbEntity
  8
Layer 1
370
    53
100
AcDbEllipse
 10
-11.79999
 20
7.34999
 30
0.0
 11
0.0
 21
0.30001
 31
0.0
210
0.0
220
0.0
230
1.0
 40
1.0
 41
0.0
 42
6.283185307179586
  0
ELLIPSE
  5
B7
330
1F
100
AcDbEntity
  8
Layer 1
 62
     3
370
    53
100
AcDbEllipse
 10
-9.64997
 20
7.34997
 30
0.0
 11
0.0
 21
1.00003
 31
0.0
210
0.0
220
0.0
230
1.0
 40
1.0
 41
0.0
 42
6.283185307179586
  0
ELLIPSE
  5
B8
330
1F
100
AcDbEntity
  8
Layer 1
370
    53
100
AcDbEllipse
 10
-9.64999
 20
7.34999
 30
0.0
 11
0.0
 21
0.30001
 31
0.0
210
0.0
220
0.0
230
1.0
 40
1.0
 41
0.0
 42
6.283185307179586
  0
ELLIPSE
  5
B9
330
1F
100
AcDbEntity
  8
Layer 1
 62
     3
370
    53
100
AcDbEllipse
 10
-7.49997
 20
7.34997
 30
0.0
 11
0.0
 21
1.00003
 31
0.0
210
0.0
220
0.0
230
1.0
 40
1.0
 41
0.0
 42
6.283185307179586
  0
ELLIPSE
  5
BA
330
1F
100
AcDbEntity
  8
Layer 1
370
    53
100
AcDbEllipse
 10
-7.49999
 20
7.34999
 30
0.0
 11
0.0
 21
0.30001
 31
0.0
210
0.0
220
0.0
230
1.0
 40
1.0
 41
0.0
 42
6.283185307179586
  0
ELLIPSE
  5
BB
330
1F
100
AcDbEntity
  8
Layer 1
 62
     3
370
    53
100
AcDbEllipse
 10
-5.34997
 20
7.34997
 30
0.0
 11
0.0
 21
1.00003
 31
0.0
210
0.0
220
0.0
230
1.0
 40
1.0
 41
0.0
 42
6.283185307179586
  0
ELLIPSE
  5
BC
330
1F
100
AcDbEntity
  8
Layer 1
370
    53
100
AcDbEllipse
 10
-5.34999
 20
7.34999
 30
0.0
 11
0.0
 21
0.30001
 31
0.0
210
0.0
220
0.0
230
1.0
 40
1.0
 41
0.0
 42
6.283185307179586
  0
ELLIPSE
  5
BD
330
1F
100
AcDbEntity
  8
Layer 1
 62
     3
370
    53
100
AcDbEllipse
 10
-3.19997
 20
7.34997
 30
0.0
 11
0.0
 21
1.00003
 31
0.0
210
0.0
220
0.0
230
1.0
 40
1.0
 41
0.0
 42
6.283185307179586
  0
ELLIPSE
  5
BE
330
1F
100
AcDbEntity
  8
Layer 1
370
    53
100
AcDbEllipse
 10
-3.19999
 20
7.34999
 30
0.0
 11
0.0
 21
0.30001
 31
0.0
210
0.0
220
0.0
230
1.0
 40
1.0
 41
0.0
 42
6.283185307179586
  0
ELLIPSE
  5
BF
330
1F
100
AcDbEntity
  8
Layer 1
 62
     3
370
    53
100
AcDbEllipse
 10
-1.04997
 20
7.34997
 30
0.0
 11
0.0
 21
1.00003
 31
0.0
210
0.0
220
0.0
230
1.0
 40
1.0
 41
0.0
 42
6.283185307179586
  0
ELLIPSE
  5
C0
330
1F
100
AcDbEntity
  8
Layer 1
370
    53
100
AcDbEllipse
 10
-1.04999
 20
7.34999
 30
0.0
 11
0.0
 21
0.30001
 31
0.0
210
0.0
220
0.0
230
1.0
 40
1.0
 41
0.0
 42
6.283185307179586
  0
ELLIPSE
  5
C1
330
1F
100
AcDbEntity
  8
Layer 1
 62
     3
370
    53
100
AcDbEllipse
 10
1.10003
 20
7.34997
 30
0.0
 11
0.0
 21
1.00003
 31
0.0
210
0.0
220
0.0
230
1.0
 40
1.0
 41
0.0
 42
6.283185307179586
  0
ELLIPSE
  5
C2
330
1F
100
AcDbEntity
  8
Layer 1
370
    53
100
AcDbEllipse
 10
1.10001
 20
7.34999
 30
0.0
 11
0.0
 21
0.30001
 31
0.0
210
0.0
220
0.0
230
1.0
 40
1.0
 41
0.0
 42
6.283185307179586
  0
ELLIPSE
  5
C3
330
1F
100
AcDbEntity
  8
Layer 1
 62
     3
370
    53
100
AcDbEllipse
 10
3.25003
 20
7.34997
 30
0.0
 11
0.0
 21
1.00003
 31
0.0
210
0.0
220
0.0
230
1.0
 40
1.0
 41
0.0
 42
6.283185307179586
  0
ELLIPSE
  5
C4
330
1F
100
AcDbEntity
  8
Layer 1
370
    53
100
AcDbEllipse
 10
3.25001
 20
7.34999
 30
0.0
 11
0.0
 21
0.30001
 31
0.0
210
0.0
220
0.0
230
1.0
 40
1.0
 41
0.0
 42
6.283185307179586
  0
ELLIPSE
  5
C5
330
1F
100
AcDbEntity
  8
Layer 1
 62
     3
370
    53
100
AcDbEllipse
 10
5.40003
 20
7.34997
 30
0.0
 11
0.0
 21
1.00003
 31
0.0
210
0.0
220
0.0
230
1.0
 40
1.0
 41
0.0
 42
6.283185307179586
  0
ELLIPSE
  5
C6
330
1F
100
AcDbEntity
  8
Layer 1
370
    53
100
AcDbEllipse
 10
5.40001
 20
7.34999
 30
0.0
 11
0.0
 21
0.30001
 31
0.0
210
0.0
220
0.0
230
1.0
 40
1.0
 41
0.0
 42
6.283185307179586
  0
ELLIPSE
  5
C7
330
1F
100
AcDbEntity
  8
Layer 1
 62
     3
370
    53
100
AcDbEllipse
 10
7.55003
 20
7.34997
 30
0.0
 11
0.0
 21
1.00003
 31
0.0
210
0.0
220
0.0
230
1.0
 40
1.0
 41
0.0
 42
6.283185307179586
  0
ELLIPSE
  5
C8
330
1F
100
AcDbEntity
  8
Layer 1
370
    53
100
AcDbEllipse
 10
7.55001
 20
7.34999
 30
0.0
 11
0.0
 21
0.30001
 31
0.0
210
0.0
220
0.0
230
1.0
 40
1.0
 41
0.0
 42
6.283185307179586
  0
ELLIPSE
  5
C9
330
1F
100
AcDbEntity
  8
Layer 1
 62
     3
370
    53
100
AcDbEllipse
 10
9.70003
 20
7.34997
 30
0.0
 11
0.0
 21
1.00003
 31
0.0
210
0.0
220
0.0
230
1.0
 40
1.0
 41
0.0
 42
6.283185307179586
  0
ELLIPSE
  5
CA
330
1F
100
AcDbEntity
  8
Layer 1
370
    53
100
AcDbEllipse
 10
9.70001
 20
7.34999
 30
0.0
 11
0.0
 21
0.30001
 31
0.0
210
0.0
220
0.0
230
1.0
 40
1.0
 41
0.0
 42
6.283185307179586
  0
ELLIPSE
  5
CB
330
1F
100
AcDbEntity
  8
Layer 1
 62
     3
370
    53
100
AcDbEllipse
 10
11.85003
 20
7.34997
 30
0.0
 11
0.0
 21
1.00003
 31
0.0
210
0.0
220
0.0
230
1.0
 40
1.0
 41
0.0
 42
6.283185307179586
  0
ELLIPSE
  5
CC
330
1F
100
AcDbEntity
  8
Layer 1
370
    53
100
AcDbEllipse
 10
11.85001
 20
7.34999
 30
0.0
 11
0.0
 21
0.30001
 31
0.0
210
0.0
220
0.0
230
1.0
 40
1.0
 41
0.0
 42
6.283185307179586
  0
ENDSEC
  0
SECTION
  2
OBJECTS
  0
DICTIONARY
  5
C
330
0
100
AcDbDictionary
281
     1
  3
ACAD_GROUP
350
D
  3
ACAD_LAYOUT
350
1A
  3
ACAD_MATERIAL
350
3B
  3
ACAD_MLEADERSTYLE
350
EE
  3
ACAD_MLINESTYLE
350
17
  3
ACAD_PLOTSETTINGS
350
19
  3
ACAD_PLOTSTYLENAME
350
E
  3
ACAD_TABLESTYLE
350
ED
  3
ACAD_VISUALSTYLE
350
2A
  0
DICTIONARY
  5
D
102
{ACAD_REACTORS
330
C
102
}
330
C
100
AcDbDictionary
281
     1
  0
DICTIONARY
  5
1A
102
{ACAD_REACTORS
330
C
102
}
330
C
100
AcDbDictionary
281
     1
  3
Layout1
350
1E
  3
Layout2
350
26
  3
Model
350
22
  0
DICTIONARY
  5
3B
102
{ACAD_REACTORS
330
C
102
}
330
C
100
AcDbDictionary
281
     1
  3
ByBlock
350
3D
  3
ByLayer
350
3C
  3
Global
350
3E
  0
DICTIONARY
  5
EE
102
{ACAD_REACTORS
330
C
102
}
330
C
100
AcDbDictionary
281
     1
  0
DICTIONARY
  5
17
102
{ACAD_REACTORS
330
C
102
}
330
C
100
AcDbDictionary
281
     1
  3
Standard
350
18
  0
DICTIONARY
  5
19
102
{ACAD_REACTORS
330
C
102
}
330
C
100
AcDbDictionary
281
     1
  0
ACDBDICTIONARYWDFLT
  5
E
102
{ACAD_REACTORS
330
C
102
}
330
C
100
AcDbDictionary
281
     1
  3
Normal
350
F
100
AcDbDictionaryWithDefault
340
F
  0
DICTIONARY
  5
ED
102
{ACAD_REACTORS
330
C
102
}
330
C
100
AcDbDictionary
281
     1
  0
DICTIONARY
  5
2A
102
{ACAD_REACTORS
330
C
102
}
330
C
100
AcDbDictionary
281
     1
  3
2dWireframe
350
2F
  3
3D Hidden
350
31
  3
3dWireframe
350
30
  3
Basic
350
32
  3
Brighten
350
36
  3
ColorChange
350
3A
  3
Conceptual
350
34
  3
Dim
350
35
  3
Facepattern
350
39
  3
Flat
350
2B
  3
FlatWithEdges
350
2C
  3
Gouraud
350
2D
  3
GouraudWithEdges
350
2E
  3
Linepattern
350
38
  3
Realistic
350
33
  3
Thicken
350
37
  0
LAYOUT
  5
1E
102
{ACAD_REACTORS
330
1A
102
}
330
1A
100
AcDbPlotSettings
  1

  2
none_device
  4

  6

 40
0.0
 41
0.0
 42
0.0
 43
0.0
 44
0.0
 45
0.0
 46
0.0
 47
0.0
 48
0.0
 49
0.0
140
0.0
141
0.0
142
1.0
143
1.0
 70
   688
 72
     0
 73
     0
 74
     5
  7

 75
    16
 76
     0
 77
     2
 78
   300
147
1.0
148
0.0
149
0.0
100
AcDbLayout
  1
Layout1
 70
     1
 71
     1
 10
0.0
 20
0.0
 11
12.0
 21
9.0
 12
0.0
 22
0.0
 32
0.0
 14
1.000000000000000E+20
 24
1.000000000000000E+20
 34
1.000000000000000E+20
 15
-1.000000000000000E+20
 25
-1.000000000000000E+20
 35
-1.000000000000000E+20
146
0.0
 13
0.0
 23
0.0
 33
0.0
 16
1.0
 26
0.0
 36
0.0
 17
0.0
 27
1.0
 37
0.0
 76
     0
330
1B
  0
LAYOUT
  5
26
102
{ACAD_REACTORS
330
1A
102
}
330
1A
100
AcDbPlotSettings
  1

  2
none_device
  4

  6

 40
0.0
 41
0.0
 42
0.0
 43
0.0
 44
0.0
 45
0.0
 46
0.0
 47
0.0
 48
0.0
 49
0.0
140
0.0
141
0.0
142
1.0
143
1.0
 70
   688
 72
     0
 73
     0
 74
     5
  7

 75
    16
 76
     0
 77
     2
 78
   300
147
1.0
148
0.0
149
0.0
100
AcDbLayout
  1
Layout2
 70
     1
 71
     2
 10
0.0
 20
0.0
 11
0.0
 21
0.0
 12
0.0
 22
0.0
 32
0.0
 14
0.0
 24
0.0
 34
0.0
 15
0.0
 25
0.0
 35
0.0
146
0.0
 13
0.0
 23
0.0
 33
0.0
 16
1.0
 26
0.0
 36
0.0
 17
0.0
 27
1.0
 37
0.0
 76
     0
330
23
  0
LAYOUT
  5
22
102
{ACAD_REACTORS
330
1A
102
}
330
1A
100
AcDbPlotSettings
  1

  2
none_device
  4

  6

 40
0.0
 41
0.0
 42
0.0
 43
0.0
 44
0.0
 45
0.0
 46
0.0
 47
0.0
 48
0.0
 49
0.0
140
0.0
141
0.0
142
1.0
143
1.0
 70
  1712
 72
     0
 73
     0
 74
     0
  7

 75
     0
 76
     0
 77
     2
 78
   300
147
1.0
148
0.0
149
0.0
100
AcDbLayout
  1
Model
 70
     1
 71
     0
 10
0.0
 20
0.0
 11
12.0
 21
9.0
 12
0.0
 22
0.0
 32
0.0
 14
-13.42646
 24
-11.25146
 34
0.0
 15
13.50146
 25
9.06396
 35
0.0
146
0.0
 13
0.0
 23
0.0
 33
0.0
 16
1.0
 26
0.0
 36
0.0
 17
0.0
 27
1.0
 37
0.0
 76
     0
330
1F
331
29
  0
MATERIAL
  5
3D
102
{ACAD_REACTORS
330
3B
102
}
330
3B
100
AcDbMaterial
  1
ByBlock
 72
     1
 94
      127
  0
MATERIAL
  5
3C
102
{ACAD_REACTORS
330
3B
102
}
330
3B
100
AcDbMaterial
  1
ByLayer
 72
     1
 94
      127
  0
MATERIAL
  5
3E
102
{ACAD_REACTORS
330
3B
102
}
330
3B
100
AcDbMaterial
  1
Global
 72
     1
 94
      127
  0
MLINESTYLE
  5
18
102
{ACAD_REACTORS
330
17
102
}
330
17
100
AcDbMlineStyle
  2
Standard
 70
     0
  3

 62
   256
 51
90.0
 52
90.0
 71
     2
 49
0.5
 62
   256
  6
BYLAYER
 49
-0.5
 62
   256
  6
BYLAYER
  0
ACDBPLACEHOLDER
  5
F
102
{ACAD_REACTORS
330
E
102
}
330
E
  0
VISUALSTYLE
  5
2F
102
{ACAD_REACTORS
330
2A
102
}
102
{ACAD_XDICTIONARY
360
D5
102
}
330
2A
100
AcDbVisualStyle
  2
2dWireframe
 70
     4
 71
     0
 72
     2
 73
     0
 90
        0
 40
-0.6
 41
-30.0
 62
     5
 63
     7
421
 16777215
 74
     1
 91
        4
 64
     7
 65
   257
 75
     1
175
     1
 42
1.0
 92
        0
 66
   257
 43
1.0
 76
     1
 77
     6
 78
     2
 67
     7
 79
     5
170
     0
171
     0
290
     0
174
     0
 93
        1
 44
0.0
173
     0
291
     0
 45
0.0
  0
VISUALSTYLE
  5
31
102
{ACAD_REACTORS
330
2A
102
}
102
{ACAD_XDICTIONARY
360
D9
102
}
330
2A
100
AcDbVisualStyle
  2
3D Hidden
 70
     6
 71
     1
 72
     2
 73
     2
 90
        0
 40
-0.6
 41
-30.0
 62
     5
 63
     7
421
 16777215
 74
     2
 91
        2
 64
     7
 65
   257
 75
     2
175
     1
 42
40.0
 92
        0
 66
   257
 43
1.0
 76
     1
 77
     6
 78
     2
 67
     7
 79
     3
170
     0
171
     0
290
     0
174
     0
 93
        1
 44
0.0
173
     0
291
     0
 45
0.0
  0
VISUALSTYLE
  5
30
102
{ACAD_REACTORS
330
2A
102
}
102
{ACAD_XDICTIONARY
360
D7
102
}
330
2A
100
AcDbVisualStyle
  2
3dWireframe
 70
     5
 71
     0
 72
     2
 73
     0
 90
        0
 40
-0.6
 41
-30.0
 62
     5
 63
     7
421
 16777215
 74
     1
 91
        4
 64
     7
 65
   257
 75
     1
175
     1
 42
1.0
 92
        0
 66
   257
 43
1.0
 76
     1
 77
     6
 78
     2
 67
     7
 79
     5
170
     0
171
     0
290
     0
174
     0
 93
        1
 44
0.0
173
     0
291
     0
 45
0.0
  0
VISUALSTYLE
  5
32
102
{ACAD_REACTORS
330
2A
102
}
102
{ACAD_XDICTIONARY
360
DB
102
}
330
2A
100
AcDbVisualStyle
  2
Basic
 70
     7
 71
     1
 72
     0
 73
     1
 90
        0
 40
-0.6
 41
-30.0
 62
     5
 63
     7
421
 16777215
 74
     0
 91
        4
 64
     7
 65
   257
 75
     1
175
     1
 42
1.0
 92
        8
 66
     7
 43
1.0
 76
     1
 77
     6
 78
     2
 67
     7
 79
     5
170
     0
171
     0
290
     0
174
     0
 93
        1
 44
0.0
173
     0
291
     1
 45
0.0
  0
VISUALSTYLE
  5
36
102
{ACAD_REACTORS
330
2A
102
}
102
{ACAD_XDICTIONARY
360
E3
102
}
330
2A
100
AcDbVisualStyle
  2
Brighten
 70
    12
 71
     2
 72
     2
 73
     0
 90
        0
 40
-0.6
 41
-30.0
 62
     5
 63
     7
421
 16777215
 74
     1
 91
        4
 64
     7
 65
   257
 75
     1
175
     1
 42
1.0
 92
        8
 66
     7
 43
1.0
 76
     1
 77
     6
 78
     2
 67
     7
 79
     5
170
     0
171
     0
290
     0
174
     0
 93
        1
 44
50.0
173
     0
291
     1
 45
0.0
  0
VISUALSTYLE
  5
3A
102
{ACAD_REACTORS
330
2A
102
}
102
{ACAD_XDICTIONARY
360
EB
102
}
330
2A
100
AcDbVisualStyle
  2
ColorChange
 70
    16
 71
     2
 72
     2
 73
     3
 90
        0
 40
-0.6
 41
-30.0
 62
     5
 63
     8
421
  8421504
 74
     1
 91
        4
 64
     7
 65
   257
 75
     1
175
     1
 42
1.0
 92
        8
 66
     8
424
  8421504
 43
1.0
 76
     1
 77
     6
 78
     2
 67
     7
 79
     5
170
     0
171
     0
290
     0
174
     0
 93
        1
 44
0.0
173
     0
291
     1
 45
0.0
  0
VISUALSTYLE
  5
34
102
{ACAD_REACTORS
330
2A
102
}
102
{ACAD_XDICTIONARY
360
DF
102
}
330
2A
100
AcDbVisualStyle
  2
Conceptual
 70
     9
 71
     3
 72
     2
 73
     0
 90
        0
 40
-0.6
 41
-30.0
 62
     5
 63
     7
421
 16777215
 74
     2
 91
        2
 64
     7
 65
   257
 75
     1
175
     1
 42
40.0
 92
        8
 66
     7
 43
1.0
 76
     1
 77
     6
 78
     2
 67
     7
 79
     3
170
     0
171
     0
290
     0
174
     0
 93
        1
 44
0.0
173
     0
291
     0
 45
0.0
  0
VISUALSTYLE
  5
35
102
{ACAD_REACTORS
330
2A
102
}
102
{ACAD_XDICTIONARY
360
E1
102
}
330
2A
100
AcDbVisualStyle
  2
Dim
 70
    11
 71
     2
 72
     2
 73
     0
 90
        0
 40
-0.6
 41
-30.0
 62
     5
 63
     7
421
 16777215
 74
     1
 91
        4
 64
     7
 65
   257
 75
     1
175
     1
 42
1.0
 92
        8
 66
     7
 43
1.0
 76
     1
 77
     6
 78
     2
 67
     7
 79
     5
170
     0
171
     0
290
     0
174
     0
 93
        1
 44
-50.0
173
     0
291
     1
 45
0.0
  0
VISUALSTYLE
  5
39
102
{ACAD_REACTORS
330
2A
102
}
102
{ACAD_XDICTIONARY
360
E9
102
}
330
2A
100
AcDbVisualStyle
  2
Facepattern
 70
    15
 71
     2
 72
     2
 73
     0
 90
        0
 40
-0.6
 41
-30.0
 62
     5
 63
     7
421
 16777215
 74
     1
 91
        4
 64
     7
 65
   257
 75
     1
175
     1
 42
1.0
 92
        8
 66
     7
 43
1.0
 76
     1
 77
     6
 78
     2
 67
     7
 79
     5
170
     0
171
     0
290
     0
174
     0
 93
        1
 44
0.0
173
     0
291
     1
 45
0.0
  0
VISUALSTYLE
  5
2B
102
{ACAD_REACTORS
330
2A
102
}
102
{ACAD_XDICTIONARY
360
CD
102
}
330
2A
100
AcDbVisualStyle
  2
Flat
 70
     0
 71
     2
 72
     1
 73
     1
 90
        2
 40
-0.6
 41
30.0
 62
     5
 63
     7
421
 16777215
 74
     0
 91
        4
 64
     7
 65
   257
 75
     1
175
     1
 42
1.0
 92
        8
 66
     7
 43
1.0
 76
     1
 77
     6
 78
     2
 67
     7
 79
     5
170
     0
171
     0
290
     0
174
     0
 93
       13
 44
0.0
173
     0
291
     1
 45
0.0
  0
VISUALSTYLE
  5
2C
102
{ACAD_REACTORS
330
2A
102
}
102
{ACAD_XDICTIONARY
360
CF
102
}
330
2A
100
AcDbVisualStyle
  2
FlatWithEdges
 70
     1
 71
     2
 72
     1
 73
     1
 90
        2
 40
-0.6
 41
30.0
 62
     5
 63
     7
421
 16777215
 74
     1
 91
        4
 64
     7
 65
   257
 75
     1
175
     1
 42
1.0
 92
        0
 66
   257
 43
1.0
 76
     1
 77
     6
 78
     2
 67
     7
 79
     5
170
     0
171
     0
290
     0
174
     0
 93
       13
 44
0.0
173
     0
291
     1
 45
0.0
  0
VISUALSTYLE
  5
2D
102
{ACAD_REACTORS
330
2A
102
}
102
{ACAD_XDICTIONARY
360
D1
102
}
330
2A
100
AcDbVisualStyle
  2
Gouraud
 70
     2
 71
     2
 72
     2
 73
     1
 90
        2
 40
-0.6
 41
30.0
 62
     5
 63
     7
421
 16777215
 74
     0
 91
        4
 64
     7
 65
   257
 75
     1
175
     1
 42
1.0
 92
        0
 66
     7
 43
1.0
 76
     1
 77
     6
 78
     2
 67
     7
 79
     5
170
     0
171
     0
290
     0
174
     0
 93
       13
 44
0.0
173
     0
291
     1
 45
0.0
  0
VISUALSTYLE
  5
2E
102
{ACAD_REACTORS
330
2A
102
}
102
{ACAD_XDICTIONARY
360
D3
102
}
330
2A
100
AcDbVisualStyle
  2
GouraudWithEdges
 70
     3
 71
     2
 72
     2
 73
     1
 90
        2
 40
-0.6
 41
30.0
 62
     5
 63
     7
421
 16777215
 74
     1
 91
        4
 64
     7
 65
   257
 75
     1
175
     1
 42
1.0
 92
        0
 66
   257
 43
1.0
 76
     1
 77
     6
 78
     2
 67
     7
 79
     5
170
     0
171
     0
290
     0
174
     0
 93
       13
 44
0.0
173
     0
291
     1
 45
0.0
  0
VISUALSTYLE
  5
38
102
{ACAD_REACTORS
330
2A
102
}
102
{ACAD_XDICTIONARY
360
E7
102
}
330
2A
100
AcDbVisualStyle
  2
Linepattern
 70
    14
 71
     2
 72
     2
 73
     0
 90
        0
 40
-0.6
 41
-30.0
 62
     5
 63
     7
421
 16777215
 74
     1
 91
        4
 64
     7
 65
   257
 75
     7
175
     7
 42
1.0
 92
        8
 66
     7
 43
1.0
 76
     1
 77
     6
 78
     2
 67
     7
 79
     5
170
     0
171
     0
290
     0
174
     0
 93
        1
 44
0.0
173
     0
291
     1
 45
0.0
  0
VISUALSTYLE
  5
33
102
{ACAD_REACTORS
330
2A
102
}
102
{ACAD_XDICTIONARY
360
DD
102
}
330
2A
100
AcDbVisualStyle
  2
Realistic
 70
     8
 71
     2
 72
     2
 73
     0
 90
        0
 40
-0.6
 41
-30.0
 62
     5
 63
     7
421
 16777215
 74
     1
 91
        0
 64
     7
 65
   257
 75
     1
175
     1
 42
1.0
 92
        8
 66
     8
424
  7895160
 43
1.0
 76
     1
 77
     6
 78
     2
 67
     7
 79
     5
170
     0
171
     0
290
     0
174
     0
 93
       13
 44
0.0
173
     0
291
     0
 45
0.0
  0
VISUALSTYLE
  5
37
102
{ACAD_REACTORS
330
2A
102
}
102
{ACAD_XDICTIONARY
360
E5
102
}
330
2A
100
AcDbVisualStyle
  2
Thicken
 70
    13
 71
     2
 72
     2
 73
     0
 90
        0
 40
-0.6
 41
-30.0
 62
     5
 63
     7
421
 16777215
 74
     1
 91
        4
 64
     7
 65
   257
 75
     1
175
     1
 42
1.0
 92
       12
 66
     7
 43
1.0
 76
     1
 77
     6
 78
     2
 67
     7
 79
     5
170
     0
171
     0
290
     0
174
     0
 93
        1
 44
0.0
173
     0
291
     1
 45
0.0
  0
DICTIONARY
  5
D5
330
2F
100
AcDbDictionary
280
     1
281
     1
  3
ACAD_XREC_ROUNDTRIP
360
D6
  0
DICTIONARY
  5
D9
330
31
100
AcDbDictionary
280
     1
281
     1
  3
ACAD_XREC_ROUNDTRIP
360
DA
  0
DICTIONARY
  5
D7
330
30
100
AcDbDictionary
280
     1
281
     1
  3
ACAD_XREC_ROUNDTRIP
360
D8
  0
DICTIONARY
  5
DB
330
32
100
AcDbDictionary
280
     1
281
     1
  3
ACAD_XREC_ROUNDTRIP
360
DC
  0
DICTIONARY
  5
E3
330
36
100
AcDbDictionary
280
     1
281
     1
  3
ACAD_XREC_ROUNDTRIP
360
E4
  0
DICTIONARY
  5
EB
330
3A
100
AcDbDictionary
280
     1
281
     1
  3
ACAD_XREC_ROUNDTRIP
360
EC
  0
DICTIONARY
  5
DF
330
34
100
AcDbDictionary
280
     1
281
     1
  3
ACAD_XREC_ROUNDTRIP
360
E0
  0
DICTIONARY
  5
E1
330
35
100
AcDbDictionary
280
     1
281
     1
  3
ACAD_XREC_ROUNDTRIP
360
E2
  0
DICTIONARY
  5
E9
330
39
100
AcDbDictionary
280
     1
281
     1
  3
ACAD_XREC_ROUNDTRIP
360
EA
  0
DICTIONARY
  5
CD
330
2B
100
AcDbDictionary
280
     1
281
     1
  3
ACAD_XREC_ROUNDTRIP
360
CE
  0
DICTIONARY
  5
CF
330
2C
100
AcDbDictionary
280
     1
281
     1
  3
ACAD_XREC_ROUNDTRIP
360
D0
  0
DICTIONARY
  5
D1
330
2D
100
AcDbDictionary
280
     1
281
     1
  3
ACAD_XREC_ROUNDTRIP
360
D2
  0
DICTIONARY
  5
D3
330
2E
100
AcDbDictionary
280
     1
281
     1
  3
ACAD_XREC_ROUNDTRIP
360
D4
  0
DICTIONARY
  5
E7
330
38
100
AcDbDictionary
280
     1
281
     1
  3
ACAD_XREC_ROUNDTRIP
360
E8
  0
DICTIONARY
  5
DD
330
33
100
AcDbDictionary
280
     1
281
     1
  3
ACAD_XREC_ROUNDTRIP
360
DE
  0
DICTIONARY
  5
E5
330
37
100
AcDbDictionary
280
     1
281
     1
  3
ACAD_XREC_ROUNDTRIP
360
E6
  0
XRECORD
  5
D6
102
{ACAD_REACTORS
330
D5
102
}
330
D5
100
AcDbXrecord
280
     1
102
RTVSPropertyOp0
 70
     1
102
RTVSPropertyOp1
 70
     1
102
RTVSPropertyOp2
 70
     1
102
RTVSPropertyOp3
 70
     1
102
RTVSPropertyOp4
 70
     1
102
RTVSPropertyOp5
 70
     1
102
RTVSPropertyOp6
 70
     1
102
RTVSPropertyOp7
 70
     1
102
RTVSPropertyOp8
 70
     1
102
RTVSPropertyOp9
 70
     1
102
RTVSPropertyOp10
 70
     1
102
RTVSPropertyOp11
 70
     1
102
RTVSPropertyOp12
 70
     1
102
RTVSPropertyOp13
 70
     1
102
RTVSPropertyOp14
 70
     1
102
RTVSPropertyOp15
 70
     1
102
RTVSPropertyOp16
 70
     1
102
RTVSPropertyOp17
 70
     1
102
RTVSPropertyOp18
 70
     1
102
RTVSPropertyOp19
 70
     1
102
RTVSPropertyOp20
 70
     1
102
RTVSPropertyOp21
 70
     1
102
RTVSPropertyOp22
 70
     1
102
RTVSPropertyOp23
 70
     1
102
RTVSPropertyOp24
 70
     1
102
RTVSPropertyOp25
 70
     1
102
RTVSPropertyOp26
 70
     1
102
RTVSPropertyOp27
 70
     1
102
RTVSPropertyOp28
 70
     1
102
RTVSPropertyOp29
 70
     1
102
RTVSPropertyOp30
 70
     1
102
RTVSPropertyOp31
 70
     1
102
RTVSPropertyOp32
 70
     1
  0
XRECORD
  5
DA
102
{ACAD_REACTORS
330
D9
102
}
330
D9
100
AcDbXrecord
280
     1
102
RTVSPropertyOp0
 70
     1
102
RTVSPropertyOp1
 70
     1
102
RTVSPropertyOp2
 70
     1
102
RTVSPropertyOp3
 70
     1
102
RTVSPropertyOp4
 70
     1
102
RTVSPropertyOp5
 70
     1
102
RTVSPropertyOp6
 70
     1
102
RTVSPropertyOp7
 70
     1
102
RTVSPropertyOp8
 70
     1
102
RTVSPropertyOp9
 70
     1
102
RTVSPropertyOp10
 70
     1
102
RTVSPropertyOp11
 70
     1
102
RTVSPropertyOp12
 70
     1
102
RTVSPropertyOp13
 70
     1
102
RTVSPropertyOp14
 70
     1
102
RTVSPropertyOp15
 70
     1
102
RTVSPropertyOp16
 70
     1
102
RTVSPropertyOp17
 70
     1
102
RTVSPropertyOp18
 70
     1
102
RTVSPropertyOp19
 70
     1
102
RTVSPropertyOp20
 70
     1
102
RTVSPropertyOp21
 70
     1
102
RTVSPropertyOp22
 70
     1
102
RTVSPropertyOp23
 70
     1
102
RTVSPropertyOp24
 70
     1
102
RTVSPropertyOp25
 70
     1
102
RTVSPropertyOp26
 70
     1
102
RTVSPropertyOp27
 70
     1
102
RTVSPropertyOp28
 70
     1
102
RTVSPropertyOp29
 70
     1
102
RTVSPropertyOp30
 70
     1
102
RTVSPropertyOp31
 70
     1
102
RTVSPropertyOp32
 70
     1
  0
XRECORD
  5
D8
102
{ACAD_REACTORS
330
D7
102
}
330
D7
100
AcDbXrecord
280
     1
102
RTVSPropertyOp0
 70
     1
102
RTVSPropertyOp1
 70
     1
102
RTVSPropertyOp2
 70
     1
102
RTVSPropertyOp3
 70
     1
102
RTVSPropertyOp4
 70
     1
102
RTVSPropertyOp5
 70
     1
102
RTVSPropertyOp6
 70
     1
102
RTVSPropertyOp7
 70
     1
102
RTVSPropertyOp8
 70
     1
102
RTVSPropertyOp9
 70
     1
102
RTVSPropertyOp10
 70
     1
102
RTVSPropertyOp11
 70
     1
102
RTVSPropertyOp12
 70
     1
102
RTVSPropertyOp13
 70
     1
102
RTVSPropertyOp14
 70
     1
102
RTVSPropertyOp15
 70
     1
102
RTVSPropertyOp16
 70
     1
102
RTVSPropertyOp17
 70
     1
102
RTVSPropertyOp18
 70
     1
102
RTVSPropertyOp19
 70
     1
102
RTVSPropertyOp20
 70
     1
102
RTVSPropertyOp21
 70
     1
102
RTVSPropertyOp22
 70
     1
102
RTVSPropertyOp23
 70
     1
102
RTVSPropertyOp24
 70
     1
102
RTVSPropertyOp25
 70
     1
102
RTVSPropertyOp26
 70
     1
102
RTVSPropertyOp27
 70
     1
102
RTVSPropertyOp28
 70
     1
102
RTVSPropertyOp29
 70
     1
102
RTVSPropertyOp30
 70
     1
102
RTVSPropertyOp31
 70
     1
102
RTVSPropertyOp32
 70
     1
  0
XRECORD
  5
DC
102
{ACAD_REACTORS
330
DB
102
}
330
DB
100
AcDbXrecord
280
     1
102
RTVSPropertyOp0
 70
     1
102
RTVSPropertyOp1
 70
     1
102
RTVSPropertyOp2
 70
     1
102
RTVSPropertyOp3
 70
     1
102
RTVSPropertyOp4
 70
     1
102
RTVSPropertyOp5
 70
     1
102
RTVSPropertyOp6
 70
     1
102
RTVSPropertyOp7
 70
     1
102
RTVSPropertyOp8
 70
     1
102
RTVSPropertyOp9
 70
     1
102
RTVSPropertyOp10
 70
     1
102
RTVSPropertyOp11
 70
     1
102
RTVSPropertyOp12
 70
     1
102
RTVSPropertyOp13
 70
     1
102
RTVSPropertyOp14
 70
     1
102
RTVSPropertyOp15
 70
     1
102
RTVSPropertyOp16
 70
     1
102
RTVSPropertyOp17
 70
     1
102
RTVSPropertyOp18
 70
     1
102
RTVSPropertyOp19
 70
     1
102
RTVSPropertyOp20
 70
     1
102
RTVSPropertyOp21
 70
     1
102
RTVSPropertyOp22
 70
     1
102
RTVSPropertyOp23
 70
     1
102
RTVSPropertyOp24
 70
     1
102
RTVSPropertyOp25
 70
     1
102
RTVSPropertyOp26
 70
     1
102
RTVSPropertyOp27
 70
     1
102
RTVSPropertyOp28
 70
     1
102
RTVSPropertyOp29
 70
     1
102
RTVSPropertyOp30
 70
     1
102
RTVSPropertyOp31
 70
     1
102
RTVSPropertyOp32
 70
     1
  0
XRECORD
  5
E4
102
{ACAD_REACTORS
330
E3
102
}
330
E3
100
AcDbXrecord
280
     1
102
RTVSPropertyOp0
 70
     1
102
RTVSPropertyOp1
 70
     1
102
RTVSPropertyOp2
 70
     1
102
RTVSPropertyOp3
 70
     1
102
RTVSPropertyOp4
 70
     1
102
RTVSPropertyOp5
 70
     1
102
RTVSPropertyOp6
 70
     1
102
RTVSPropertyOp7
 70
     1
102
RTVSPropertyOp8
 70
     1
102
RTVSPropertyOp9
 70
     1
102
RTVSPropertyOp10
 70
     1
102
RTVSPropertyOp11
 70
     1
102
RTVSPropertyOp12
 70
     1
102
RTVSPropertyOp13
 70
     1
102
RTVSPropertyOp14
 70
     1
102
RTVSPropertyOp15
 70
     1
102
RTVSPropertyOp16
 70
     1
102
RTVSPropertyOp17
 70
     1
102
RTVSPropertyOp18
 70
     1
102
RTVSPropertyOp19
 70
     1
102
RTVSPropertyOp20
 70
     1
102
RTVSPropertyOp21
 70
     1
102
RTVSPropertyOp22
 70
     1
102
RTVSPropertyOp23
 70
     1
102
RTVSPropertyOp24
 70
     1
102
RTVSPropertyOp25
 70
     1
102
RTVSPropertyOp26
 70
     1
102
RTVSPropertyOp27
 70
     1
102
RTVSPropertyOp28
 70
     1
102
RTVSPropertyOp29
 70
     1
102
RTVSPropertyOp30
 70
     1
102
RTVSPropertyOp31
 70
     1
102
RTVSPropertyOp32
 70
     1
  0
XRECORD
  5
EC
102
{ACAD_REACTORS
330
EB
102
}
330
EB
100
AcDbXrecord
280
     1
102
RTVSPropertyOp0
 70
     1
102
RTVSPropertyOp1
 70
     1
102
RTVSPropertyOp2
 70
     1
102
RTVSPropertyOp3
 70
     1
102
RTVSPropertyOp4
 70
     1
102
RTVSPropertyOp5
 70
     1
102
RTVSPropertyOp6
 70
     1
102
RTVSPropertyOp7
 70
     1
102
RTVSPropertyOp8
 70
     1
102
RTVSPropertyOp9
 70
     1
102
RTVSPropertyOp10
 70
     1
102
RTVSPropertyOp11
 70
     1
102
RTVSPropertyOp12
 70
     1
102
RTVSPropertyOp13
 70
     1
102
RTVSPropertyOp14
 70
     1
102
RTVSPropertyOp15
 70
     1
102
RTVSPropertyOp16
 70
     1
102
RTVSPropertyOp17
 70
     1
102
RTVSPropertyOp18
 70
     1
102
RTVSPropertyOp19
 70
     1
102
RTVSPropertyOp20
 70
     1
102
RTVSPropertyOp21
 70
     1
102
RTVSPropertyOp22
 70
     1
102
RTVSPropertyOp23
 70
     1
102
RTVSPropertyOp24
 70
     1
102
RTVSPropertyOp25
 70
     1
102
RTVSPropertyOp26
 70
     1
102
RTVSPropertyOp27
 70
     1
102
RTVSPropertyOp28
 70
     1
102
RTVSPropertyOp29
 70
     1
102
RTVSPropertyOp30
 70
     1
102
RTVSPropertyOp31
 70
     1
102
RTVSPropertyOp32
 70
     1
  0
XRECORD
  5
E0
102
{ACAD_REACTORS
330
DF
102
}
330
DF
100
AcDbXrecord
280
     1
102
RTVSPropertyOp0
 70
     1
102
RTVSPropertyOp1
 70
     1
102
RTVSPropertyOp2
 70
     1
102
RTVSPropertyOp3
 70
     1
102
RTVSPropertyOp4
 70
     1
102
RTVSPropertyOp5
 70
     1
102
RTVSPropertyOp6
 70
     1
102
RTVSPropertyOp7
 70
     1
102
RTVSPropertyOp8
 70
     1
102
RTVSPropertyOp9
 70
     1
102
RTVSPropertyOp10
 70
     1
102
RTVSPropertyOp11
 70
     1
102
RTVSPropertyOp12
 70
     1
102
RTVSPropertyOp13
 70
     1
102
RTVSPropertyOp14
 70
     1
102
RTVSPropertyOp15
 70
     1
102
RTVSPropertyOp16
 70
     1
102
RTVSPropertyOp17
 70
     1
102
RTVSPropertyOp18
 70
     1
102
RTVSPropertyOp19
 70
     1
102
RTVSPropertyOp20
 70
     1
102
RTVSPropertyOp21
 70
     1
102
RTVSPropertyOp22
 70
     1
102
RTVSPropertyOp23
 70
     1
102
RTVSPropertyOp24
 70
     1
102
RTVSPropertyOp25
 70
     1
102
RTVSPropertyOp26
 70
     1
102
RTVSPropertyOp27
 70
     1
102
RTVSPropertyOp28
 70
     1
102
RTVSPropertyOp29
 70
     1
102
RTVSPropertyOp30
 70
     1
102
RTVSPropertyOp31
 70
     1
102
RTVSPropertyOp32
 70
     1
  0
XRECORD
  5
E2
102
{ACAD_REACTORS
330
E1
102
}
330
E1
100
AcDbXrecord
280
     1
102
RTVSPropertyOp0
 70
     1
102
RTVSPropertyOp1
 70
     1
102
RTVSPropertyOp2
 70
     1
102
RTVSPropertyOp3
 70
     1
102
RTVSPropertyOp4
 70
     1
102
RTVSPropertyOp5
 70
     1
102
RTVSPropertyOp6
 70
     1
102
RTVSPropertyOp7
 70
     1
102
RTVSPropertyOp8
 70
     1
102
RTVSPropertyOp9
 70
     1
102
RTVSPropertyOp10
 70
     1
102
RTVSPropertyOp11
 70
     1
102
RTVSPropertyOp12
 70
     1
102
RTVSPropertyOp13
 70
     1
102
RTVSPropertyOp14
 70
     1
102
RTVSPropertyOp15
 70
     1
102
RTVSPropertyOp16
 70
     1
102
RTVSPropertyOp17
 70
     1
102
RTVSPropertyOp18
 70
     1
102
RTVSPropertyOp19
 70
     1
102
RTVSPropertyOp20
 70
     1
102
RTVSPropertyOp21
 70
     1
102
RTVSPropertyOp22
 70
     1
102
RTVSPropertyOp23
 70
     1
102
RTVSPropertyOp24
 70
     1
102
RTVSPropertyOp25
 70
     1
102
RTVSPropertyOp26
 70
     1
102
RTVSPropertyOp27
 70
     1
102
RTVSPropertyOp28
 70
     1
102
RTVSPropertyOp29
 70
     1
102
RTVSPropertyOp30
 70
     1
102
RTVSPropertyOp31
 70
     1
102
RTVSPropertyOp32
 70
     1
  0
XRECORD
  5
EA
102
{ACAD_REACTORS
330
E9
102
}
330
E9
100
AcDbXrecord
280
     1
102
RTVSPropertyOp0
 70
     1
102
RTVSPropertyOp1
 70
     1
102
RTVSPropertyOp2
 70
     1
102
RTVSPropertyOp3
 70
     1
102
RTVSPropertyOp4
 70
     1
102
RTVSPropertyOp5
 70
     1
102
RTVSPropertyOp6
 70
     1
102
RTVSPropertyOp7
 70
     1
102
RTVSPropertyOp8
 70
     1
102
RTVSPropertyOp9
 70
     1
102
RTVSPropertyOp10
 70
     1
102
RTVSPropertyOp11
 70
     1
102
RTVSPropertyOp12
 70
     1
102
RTVSPropertyOp13
 70
     1
102
RTVSPropertyOp14
 70
     1
102
RTVSPropertyOp15
 70
     1
102
RTVSPropertyOp16
 70
     1
102
RTVSPropertyOp17
 70
     1
102
RTVSPropertyOp18
 70
     1
102
RTVSPropertyOp19
 70
     1
102
RTVSPropertyOp20
 70
     1
102
RTVSPropertyOp21
 70
     1
102
RTVSPropertyOp22
 70
     1
102
RTVSPropertyOp23
 70
     1
102
RTVSPropertyOp24
 70
     1
102
RTVSPropertyOp25
 70
     1
102
RTVSPropertyOp26
 70
     1
102
RTVSPropertyOp27
 70
     1
102
RTVSPropertyOp28
 70
     1
102
RTVSPropertyOp29
 70
     1
102
RTVSPropertyOp30
 70
     1
102
RTVSPropertyOp31
 70
     1
102
RTVSPropertyOp32
 70
     1
  0
XRECORD
  5
CE
102
{ACAD_REACTORS
330
CD
102
}
330
CD
100
AcDbXrecord
280
     1
102
RTVSPropertyOp0
 70
     1
102
RTVSPropertyOp1
 70
     1
102
RTVSPropertyOp2
 70
     1
102
RTVSPropertyOp3
 70
     1
102
RTVSPropertyOp4
 70
     1
102
RTVSPropertyOp5
 70
     1
102
RTVSPropertyOp6
 70
     1
102
RTVSPropertyOp7
 70
     1
102
RTVSPropertyOp8
 70
     1
102
RTVSPropertyOp9
 70
     1
102
RTVSPropertyOp10
 70
     1
102
RTVSPropertyOp11
 70
     1
102
RTVSPropertyOp12
 70
     1
102
RTVSPropertyOp13
 70
     1
102
RTVSPropertyOp14
 70
     1
102
RTVSPropertyOp15
 70
     1
102
RTVSPropertyOp16
 70
     1
102
RTVSPropertyOp17
 70
     1
102
RTVSPropertyOp18
 70
     1
102
RTVSPropertyOp19
 70
     1
102
RTVSPropertyOp20
 70
     1
102
RTVSPropertyOp21
 70
     1
102
RTVSPropertyOp22
 70
     1
102
RTVSPropertyOp23
 70
     1
102
RTVSPropertyOp24
 70
     1
102
RTVSPropertyOp25
 70
     1
102
RTVSPropertyOp26
 70
     1
102
RTVSPropertyOp27
 70
     1
102
RTVSPropertyOp28
 70
     1
102
RTVSPropertyOp29
 70
     1
102
RTVSPropertyOp30
 70
     1
102
RTVSPropertyOp31
 70
     1
102
RTVSPropertyOp32
 70
     1
  0
XRECORD
  5
D0
102
{ACAD_REACTORS
330
CF
102
}
330
CF
100
AcDbXrecord
280
     1
102
RTVSPropertyOp0
 70
     1
102
RTVSPropertyOp1
 70
     1
102
RTVSPropertyOp2
 70
     1
102
RTVSPropertyOp3
 70
     1
102
RTVSPropertyOp4
 70
     1
102
RTVSPropertyOp5
 70
     1
102
RTVSPropertyOp6
 70
     1
102
RTVSPropertyOp7
 70
     1
102
RTVSPropertyOp8
 70
     1
102
RTVSPropertyOp9
 70
     1
102
RTVSPropertyOp10
 70
     1
102
RTVSPropertyOp11
 70
     1
102
RTVSPropertyOp12
 70
     1
102
RTVSPropertyOp13
 70
     1
102
RTVSPropertyOp14
 70
     1
102
RTVSPropertyOp15
 70
     1
102
RTVSPropertyOp16
 70
     1
102
RTVSPropertyOp17
 70
     1
102
RTVSPropertyOp18
 70
     1
102
RTVSPropertyOp19
 70
     1
102
RTVSPropertyOp20
 70
     1
102
RTVSPropertyOp21
 70
     1
102
RTVSPropertyOp22
 70
     1
102
RTVSPropertyOp23
 70
     1
102
RTVSPropertyOp24
 70
     1
102
RTVSPropertyOp25
 70
     1
102
RTVSPropertyOp26
 70
     1
102
RTVSPropertyOp27
 70
     1
102
RTVSPropertyOp28
 70
     1
102
RTVSPropertyOp29
 70
     1
102
RTVSPropertyOp30
 70
     1
102
RTVSPropertyOp31
 70
     1
102
RTVSPropertyOp32
 70
     1
  0
XRECORD
  5
D2
102
{ACAD_REACTORS
330
D1
102
}
330
D1
100
AcDbXrecord
280
     1
102
RTVSPropertyOp0
 70
     1
102
RTVSPropertyOp1
 70
     1
102
RTVSPropertyOp2
 70
     1
102
RTVSPropertyOp3
 70
     1
102
RTVSPropertyOp4
 70
     1
102
RTVSPropertyOp5
 70
     1
102
RTVSPropertyOp6
 70
     1
102
RTVSPropertyOp7
 70
     1
102
RTVSPropertyOp8
 70
     1
102
RTVSPropertyOp9
 70
     1
102
RTVSPropertyOp10
 70
     1
102
RTVSPropertyOp11
 70
     1
102
RTVSPropertyOp12
 70
     1
102
RTVSPropertyOp13
 70
     1
102
RTVSPropertyOp14
 70
     1
102
RTVSPropertyOp15
 70
     1
102
RTVSPropertyOp16
 70
     1
102
RTVSPropertyOp17
 70
     1
102
RTVSPropertyOp18
 70
     1
102
RTVSPropertyOp19
 70
     1
102
RTVSPropertyOp20
 70
     1
102
RTVSPropertyOp21
 70
     1
102
RTVSPropertyOp22
 70
     1
102
RTVSPropertyOp23
 70
     1
102
RTVSPropertyOp24
 70
     1
102
RTVSPropertyOp25
 70
     1
102
RTVSPropertyOp26
 70
     1
102
RTVSPropertyOp27
 70
     1
102
RTVSPropertyOp28
 70
     1
102
RTVSPropertyOp29
 70
     1
102
RTVSPropertyOp30
 70
     1
102
RTVSPropertyOp31
 70
     1
102
RTVSPropertyOp32
 70
     1
  0
XRECORD
  5
D4
102
{ACAD_REACTORS
330
D3
102
}
330
D3
100
AcDbXrecord
280
     1
102
RTVSPropertyOp0
 70
     1
102
RTVSPropertyOp1
 70
     1
102
RTVSPropertyOp2
 70
     1
102
RTVSPropertyOp3
 70
     1
102
RTVSPropertyOp4
 70
     1
102
RTVSPropertyOp5
 70
     1
102
RTVSPropertyOp6
 70
     1
102
RTVSPropertyOp7
 70
     1
102
RTVSPropertyOp8
 70
     1
102
RTVSPropertyOp9
 70
     1
102
RTVSPropertyOp10
 70
     1
102
RTVSPropertyOp11
 70
     1
102
RTVSPropertyOp12
 70
     1
102
RTVSPropertyOp13
 70
     1
102
RTVSPropertyOp14
 70
     1
102
RTVSPropertyOp15
 70
     1
102
RTVSPropertyOp16
 70
     1
102
RTVSPropertyOp17
 70
     1
102
RTVSPropertyOp18
 70
     1
102
RTVSPropertyOp19
 70
     1
102
RTVSPropertyOp20
 70
     1
102
RTVSPropertyOp21
 70
     1
102
RTVSPropertyOp22
 70
     1
102
RTVSPropertyOp23
 70
     1
102
RTVSPropertyOp24
 70
     1
102
RTVSPropertyOp25
 70
     1
102
RTVSPropertyOp26
 70
     1
102
RTVSPropertyOp27
 70
     1
102
RTVSPropertyOp28
 70
     1
102
RTVSPropertyOp29
 70
     1
102
RTVSPropertyOp30
 70
     1
102
RTVSPropertyOp31
 70
     1
102
RTVSPropertyOp32
 70
     1
  0
XRECORD
  5
E8
102
{ACAD_REACTORS
330
E7
102
}
330
E7
100
AcDbXrecord
280
     1
102
RTVSPropertyOp0
 70
     1
102
RTVSPropertyOp1
 70
     1
102
RTVSPropertyOp2
 70
     1
102
RTVSPropertyOp3
 70
     1
102
RTVSPropertyOp4
 70
     1
102
RTVSPropertyOp5
 70
     1
102
RTVSPropertyOp6
 70
     1
102
RTVSPropertyOp7
 70
     1
102
RTVSPropertyOp8
 70
     1
102
RTVSPropertyOp9
 70
     1
102
RTVSPropertyOp10
 70
     1
102
RTVSPropertyOp11
 70
     1
102
RTVSPropertyOp12
 70
     1
102
RTVSPropertyOp13
 70
     1
102
RTVSPropertyOp14
 70
     1
102
RTVSPropertyOp15
 70
     1
102
RTVSPropertyOp16
 70
     1
102
RTVSPropertyOp17
 70
     1
102
RTVSPropertyOp18
 70
     1
102
RTVSPropertyOp19
 70
     1
102
RTVSPropertyOp20
 70
     1
102
RTVSPropertyOp21
 70
     1
102
RTVSPropertyOp22
 70
     1
102
RTVSPropertyOp23
 70
     1
102
RTVSPropertyOp24
 70
     1
102
RTVSPropertyOp25
 70
     1
102
RTVSPropertyOp26
 70
     1
102
RTVSPropertyOp27
 70
     1
102
RTVSPropertyOp28
 70
     1
102
RTVSPropertyOp29
 70
     1
102
RTVSPropertyOp30
 70
     1
102
RTVSPropertyOp31
 70
     1
102
RTVSPropertyOp32
 70
     1
  0
XRECORD
  5
DE
102
{ACAD_REACTORS
330
DD
102
}
330
DD
100
AcDbXrecord
280
     1
102
RTVSPropertyOp0
 70
     1
102
RTVSPropertyOp1
 70
     1
102
RTVSPropertyOp2
 70
     1
102
RTVSPropertyOp3
 70
     1
102
RTVSPropertyOp4
 70
     1
102
RTVSPropertyOp5
 70
     1
102
RTVSPropertyOp6
 70
     1
102
RTVSPropertyOp7
 70
     1
102
RTVSPropertyOp8
 70
     1
102
RTVSPropertyOp9
 70
     1
102
RTVSPropertyOp10
 70
     1
102
RTVSPropertyOp11
 70
     1
102
RTVSPropertyOp12
 70
     1
102
RTVSPropertyOp13
 70
     1
102
RTVSPropertyOp14
 70
     1
102
RTVSPropertyOp15
 70
     1
102
RTVSPropertyOp16
 70
     1
102
RTVSPropertyOp17
 70
     1
102
RTVSPropertyOp18
 70
     1
102
RTVSPropertyOp19
 70
     1
102
RTVSPropertyOp20
 70
     1
102
RTVSPropertyOp21
 70
     1
102
RTVSPropertyOp22
 70
     1
102
RTVSPropertyOp23
 70
     1
102
RTVSPropertyOp24
 70
     1
102
RTVSPropertyOp25
 70
     1
102
RTVSPropertyOp26
 70
     1
102
RTVSPropertyOp27
 70
     1
102
RTVSPropertyOp28
 70
     1
102
RTVSPropertyOp29
 70
     1
102
RTVSPropertyOp30
 70
     1
102
RTVSPropertyOp31
 70
     1
102
RTVSPropertyOp32
 70
     1
  0
XRECORD
  5
E6
102
{ACAD_REACTORS
330
E5
102
}
330
E5
100
AcDbXrecord
280
     1
102
RTVSPropertyOp0
 70
     1
102
RTVSPropertyOp1
 70
     1
102
RTVSPropertyOp2
 70
     1
102
RTVSPropertyOp3
 70
     1
102
RTVSPropertyOp4
 70
     1
102
RTVSPropertyOp5
 70
     1
102
RTVSPropertyOp6
 70
     1
102
RTVSPropertyOp7
 70
     1
102
RTVSPropertyOp8
 70
     1
102
RTVSPropertyOp9
 70
     1
102
RTVSPropertyOp10
 70
     1
102
RTVSPropertyOp11
 70
     1
102
RTVSPropertyOp12
 70
     1
102
RTVSPropertyOp13
 70
     1
102
RTVSPropertyOp14
 70
     1
102
RTVSPropertyOp15
 70
     1
102
RTVSPropertyOp16
 70
     1
102
RTVSPropertyOp17
 70
     1
102
RTVSPropertyOp18
 70
     1
102
RTVSPropertyOp19
 70
     1
102
RTVSPropertyOp20
 70
     1
102
RTVSPropertyOp21
 70
     1
102
RTVSPropertyOp22
 70
     1
102
RTVSPropertyOp23
 70
     1
102
RTVSPropertyOp24
 70
     1
102
RTVSPropertyOp25
 70
     1
102
RTVSPropertyOp26
 70
     1
102
RTVSPropertyOp27
 70
     1
102
RTVSPropertyOp28
 70
     1
102
RTVSPropertyOp29
 70
     1
102
RTVSPropertyOp30
 70
     1
102
RTVSPropertyOp31
 70
     1
102
RTVSPropertyOp32
 70
     1
  0
ENDSEC
  0
EOF
